SplineFontDB: 3.2
FontName: SeriousShanns
FullName: Serious Shanns
FamilyName: Serious Shanns
Weight: Book
Copyright: https://github.com/kaBeech/serious-shanns/blob/main/LICENSE
Version: 6.0.0
ItalicAngle: 0
UnderlinePosition: 0
UnderlineWidth: 0
Ascent: 800
Descent: 200
InvalidEm: 0
sfntRevision: 0x00003333
LayerCount: 2
Layer: 0 0 "Back" 1
Layer: 1 0 "Fore" 0
XUID: [1021 45 630387186 12505762]
StyleMap: 0x0040
FSType: 0
OS2Version: 3
OS2_WeightWidthSlopeOnly: 0
OS2_UseTypoMetrics: 0
CreationTime: 1532631502
ModificationTime: 315532800
PfmFamily: 49
TTFWeight: 400
TTFWidth: 5
LineGap: 0
VLineGap: 0
Panose: 0 0 0 0 0 0 0 0 0 0
OS2TypoAscent: 613
OS2TypoAOffset: 0
OS2TypoDescent: -188
OS2TypoDOffset: 0
OS2TypoLinegap: 98
OS2WinAscent: 778
OS2WinAOffset: 0
OS2WinDescent: 308
OS2WinDOffset: 0
HheadAscent: 796
HheadAOffset: 0
HheadDescent: -317
HheadDOffset: 0
OS2SubXSize: 317
OS2SubYSize: 293
OS2SubXOff: 0
OS2SubYOff: 37
OS2SupXSize: 317
OS2SupYSize: 293
OS2SupXOff: 0
OS2SupYOff: 171
OS2StrikeYSize: 0
OS2StrikeYPos: 132
OS2CapHeight: 576
OS2XHeight: 485
OS2Vendor: 'NONE'
OS2CodePages: 00000001.00000000
OS2UnicodeRanges: 00000001.00000000.00000000.00000000
MarkAttachClasses: 1
DEI: 91125
LangName: 1033 "" "" "Normal" "FontForge 2.0 : Serious Shanns : 11-6-2024" "" "Version 0.2.0"
Encoding: UnicodeBmp
Compacted: 1
UnicodeInterp: none
NameList: AGL For New Fonts
DisplaySize: -48
AntiAlias: 1
FitToEm: 0
WinInfo: 0 16 11
BeginPrivate: 8
BlueValues 32 [-40 -6 502 523 708 718 765 769]
OtherBlues 11 [-297 -287]
BlueScale 9 0.0291667
BlueShift 1 2
StdHW 4 [85]
StdVW 4 [96]
StemSnapH 7 [65 85]
StemSnapV 4 [96]
EndPrivate
BeginChars: 65537 99

StartChar: .notdef
Encoding: 65536 -1 0
Width: 570
VWidth: 886
GlyphClass: 1
Flags: W
HStem: -191.725 45.8994<171.15 444> 626.825 45.8994<171.15 444>
VStem: 126.1 45.0508<-145.825 626.825> 444 45.9004<-145.825 626.825>
LayerCount: 2
Fore
SplineSet
126.099609375 -191.724609375 m 1
 126.099609375 672.724609375 l 1
 489.900390625 672.724609375 l 1
 489.900390625 -191.724609375 l 1
 126.099609375 -191.724609375 l 1
171.150390625 -145.825195312 m 1
 444 -145.825195312 l 1
 444 626.825195312 l 1
 171.150390625 626.825195312 l 1
 171.150390625 -145.825195312 l 1
EndSplineSet
Validated: 524289
EndChar

StartChar: exclam
Encoding: 33 33 1
Width: 570
VWidth: 907
GlyphClass: 2
Flags: HMW
HStem: 36.5258 130.571
VStem: 238.297 139.401 273.147 78.5278
LayerCount: 2
Fore
SplineSet
358.149414062 684.712890625 m 0xa0
 358.149414062 679.612304688 356.873046875 642.35546875 354.323242188 572.938476562 c 0
 352.557617188 524.879882812 351.674804688 483.000976562 351.674804688 447.30078125 c 0
 351.674804688 431.434570312 351.849609375 416.7890625 352.198242188 403.36328125 c 0
 352.763671875 382.11328125 353.046875 365.149414062 353.046875 352.469726562 c 0
 353.046875 339.790039062 352.763671875 331.396484375 352.197265625 327.287109375 c 0
 351.44140625 321.810546875 351.064453125 314.131835938 351.064453125 304.25 c 0
 351.064453125 299.305664062 351.159179688 293.809570312 351.34765625 287.762695312 c 0
 350.21484375 275.295898438 345.3984375 265.520507812 336.8984375 258.4375 c 0
 329.028320312 251.87890625 319.700195312 248.600585938 308.916015625 248.600585938 c 0
 308.052734375 248.600585938 307.180664062 248.62109375 306.298828125 248.663085938 c 0
 294.965820312 248.663085938 285.616210938 252.346679688 278.249023438 259.713867188 c 0
 271.864257812 266.098632812 268.670898438 275.037109375 268.670898438 286.530273438 c 0
 268.670898438 288.297851562 268.747070312 290.125976562 268.8984375 292.014648438 c 0
 269.46484375 300.514648438 270.314453125 308.731445312 271.448242188 316.6640625 c 0
 272.581054688 324.59765625 273.2890625 331.254882812 273.572265625 336.638671875 c 0
 273.85546875 342.021484375 274.280273438 354.771484375 274.846679688 374.888671875 c 0
 274.989257812 379.91796875 275.059570312 385.310546875 275.059570312 391.06640625 c 0
 275.059570312 408.33203125 274.421875 428.864257812 273.147460938 452.663085938 c 0
 272.580078125 474.763671875 272.155273438 498.138671875 271.872070312 522.788085938 c 0
 271.77734375 530.997070312 271.73046875 538.75 271.73046875 546.046875 c 0
 271.73046875 560.663085938 271.919921875 573.452148438 272.297851562 584.412109375 c 0
 272.865234375 600.845703125 273.431640625 619.545898438 273.999023438 640.512695312 c 0
 274.565429688 661.479492188 274.848632812 675.362304688 274.848632812 682.162109375 c 0
 275.416015625 697.462890625 279.807617188 709.079101562 288.024414062 717.012695312 c 0
 296.241210938 724.9453125 306.299804688 728.912109375 318.19921875 728.912109375 c 0
 319.049804688 728.953125 319.887695312 728.973632812 320.715820312 728.973632812 c 0
 331.463867188 728.973632812 340.258789062 725.553710938 347.099609375 718.712890625 c 0
 354.466796875 711.345703125 358.149414062 700.012695312 358.149414062 684.712890625 c 0xa0
309.698242188 37.013671875 m 0
 306.701171875 36.689453125 303.783203125 36.52734375 300.942382812 36.52734375 c 0
 283.909179688 36.52734375 269.685546875 42.3544921875 258.272460938 54.009765625 c 0
 244.955078125 67.6103515625 238.296875 84.04296875 238.296875 103.310546875 c 0
 238.296875 120.310546875 245.805664062 135.04296875 260.822265625 147.509765625 c 0
 275.838867188 159.9765625 292.130859375 166.494140625 309.698242188 167.060546875 c 0
 310.579101562 167.0859375 311.454101562 167.098632812 312.322265625 167.098632812 c 0
 330.97265625 167.098632812 346.389648438 161.27734375 358.573242188 149.63671875 c 0
 371.323242188 137.454101562 377.698242188 122.295898438 377.698242188 104.162109375 c 0xc0
 377.698242188 86.029296875 371.46484375 70.87109375 358.998046875 58.6884765625 c 0
 346.53125 46.5048828125 330.09765625 39.2802734375 309.698242188 37.013671875 c 0
EndSplineSet
Validated: 524289
EndChar

StartChar: quotedbl
Encoding: 34 34 2
Width: 570
VWidth: 941
GlyphClass: 2
Flags: HMW
VStem: 197.998 86.2121 332.258 87.9537
LayerCount: 2
Fore
SplineSet
285.063476562 718.748046875 m 0
 285.251953125 711.01953125 285.345703125 701.646484375 285.345703125 690.626953125 c 0
 285.345703125 668.516601562 284.965820312 639.78125 284.209960938 604.420898438 c 0
 283.077148438 551.438476562 281.09375 515.030273438 278.260742188 495.197265625 c 0
 276.560546875 483.864257812 271.744140625 475.364257812 263.810546875 469.697265625 c 0
 256.598632812 464.545898438 248.684570312 461.969726562 240.068359375 461.969726562 c 0
 239.20703125 461.969726562 238.337890625 461.99609375 237.461914062 462.046875 c 0
 226.12890625 462.614257812 216.071289062 466.15625 207.288085938 472.672851562 c 0
 199.508789062 478.4453125 195.619140625 486.328125 195.619140625 496.323242188 c 0
 195.619140625 499.913085938 197.999023438 526.419921875 197.999023438 592.73046875 c 0
 197.999023438 598.869140625 197.978515625 605.173828125 197.938476562 611.647460938 c 0
 197.655273438 656.98046875 196.663085938 694.379882812 194.962890625 723.846679688 c 0
 194.396484375 730.647460938 195.670898438 736.455078125 198.788085938 741.272460938 c 0
 201.905273438 746.088867188 206.012695312 749.630859375 211.11328125 751.897460938 c 0
 216.212890625 754.165039062 221.455078125 755.72265625 226.837890625 756.573242188 c 0
 232.220703125 757.422851562 237.462890625 757.564453125 242.563476562 756.998046875 c 0
 247.663085938 756.998046875 252.48046875 756.430664062 257.012695312 755.297851562 c 0
 261.545898438 754.165039062 265.938476562 752.323242188 270.188476562 749.772460938 c 0
 274.438476562 747.22265625 277.98046875 743.255859375 280.813476562 737.873046875 c 0
 283.646484375 732.490234375 285.063476562 726.115234375 285.063476562 718.748046875 c 0
421.059570312 718.745117188 m 0
 421.249023438 710.9921875 421.342773438 701.583007812 421.342773438 690.516601562 c 0
 421.342773438 668.419921875 420.965820312 639.720703125 420.211914062 604.418945312 c 0
 419.078125 551.435546875 417.377929688 515.02734375 415.111328125 495.194335938 c 0
 413.411132812 483.861328125 408.453125 475.361328125 400.236328125 469.694335938 c 0
 392.766601562 464.54296875 384.9453125 461.967773438 376.7734375 461.967773438 c 0
 375.956054688 461.967773438 375.134765625 461.993164062 374.310546875 462.044921875 c 0
 362.977539062 462.611328125 352.77734375 466.153320312 343.7109375 472.670898438 c 0
 336.075195312 478.158203125 332.2578125 485.553710938 332.2578125 494.859375 c 0
 332.2578125 496.604492188 332.392578125 498.416015625 332.66015625 500.295898438 c 0
 333.935546875 521.969726562 334.573242188 548.265625 334.573242188 579.182617188 c 0
 334.573242188 589.490234375 334.502929688 600.310546875 334.360351562 611.64453125 c 0
 333.793945312 656.977539062 332.66015625 694.377929688 330.9609375 723.844726562 c 0
 330.9609375 730.64453125 332.518554688 736.453125 335.635742188 741.26953125 c 0
 338.752929688 746.086914062 342.860351562 749.62890625 347.9609375 751.895507812 c 0
 353.060546875 754.162109375 358.16015625 755.720703125 363.260742188 756.5703125 c 0
 368.360351562 757.420898438 373.4609375 757.5625 378.560546875 756.995117188 c 0
 383.66015625 756.995117188 388.477539062 756.428710938 393.010742188 755.295898438 c 0
 397.543945312 754.162109375 402.077148438 752.3203125 406.609375 749.770507812 c 0
 411.142578125 747.220703125 414.684570312 743.25390625 417.234375 737.870117188 c 0
 419.78515625 732.487304688 421.059570312 726.112304688 421.059570312 718.745117188 c 0
EndSplineSet
Validated: 524289
EndChar

StartChar: numbersign
Encoding: 35 35 3
Width: 570
VWidth: 904
GlyphClass: 2
Flags: HMW
HStem: 217.396 69.7 432.446 71.4 647.213 17G
LayerCount: 2
Fore
SplineSet
211.09375 89.8955078125 m 0
 207.126953125 77.99609375 198.909179688 68.2197265625 186.442382812 60.5693359375 c 0
 177.810546875 55.2734375 169.587890625 52.6259765625 161.771484375 52.6259765625 c 0
 158.297851562 52.6259765625 154.904296875 53.1484375 151.591796875 54.1943359375 c 0
 140.82421875 56.4619140625 132.891601562 63.6865234375 127.791015625 75.8701171875 c 0
 125.090820312 82.3193359375 123.741210938 89.126953125 123.741210938 96.291015625 c 0
 123.741210938 102.66015625 124.807617188 109.310546875 126.94140625 116.244140625 c 0
 131.474609375 131.543945312 139.407226562 164.411132812 150.740234375 214.84375 c 1
 125.240234375 214.84375 l 2
 111.073242188 214.84375 100.306640625 217.676757812 92.939453125 223.34375 c 0
 82.1064453125 231.676757812 81.82421875 242.190429688 81.82421875 248.618164062 c 0
 81.82421875 257.791015625 84.962890625 265.516601562 91.2392578125 271.793945312 c 0
 98.0400390625 278.59375 108.806640625 282.560546875 123.540039062 283.694335938 c 0
 128.072265625 283.694335938 135.014648438 283.8359375 144.364257812 284.119140625 c 0
 153.71484375 284.40234375 160.65625 284.543945312 165.189453125 284.543945312 c 1
 194.08984375 431.59375 l 1
 189.556640625 431.59375 183.323242188 431.452148438 175.390625 431.168945312 c 0
 167.45703125 430.885742188 162.07421875 430.744140625 159.241210938 430.744140625 c 0
 158.107421875 430.698242188 156.994140625 430.67578125 155.90234375 430.67578125 c 0
 143.348632812 430.67578125 133.553710938 433.672851562 126.516601562 439.668945312 c 0
 115.248046875 449.267578125 114.979492188 459.853515625 114.979492188 466.056640625 c 0
 114.979492188 475.321289062 118.399414062 483.241210938 125.240234375 489.818359375 c 0
 132.607421875 496.901367188 143.657226562 500.7265625 158.390625 501.29296875 c 0
 169.157226562 501.860351562 185.590820312 502.143554688 207.690429688 502.143554688 c 1
 223.557617188 587.709960938 231.774414062 631.91015625 232.341796875 634.743164062 c 0
 236.874023438 648.91015625 243.95703125 658.827148438 253.590820312 664.494140625 c 0
 260.012695312 668.272460938 266.561523438 670.162109375 273.236328125 670.162109375 c 0
 276.573242188 670.162109375 279.94140625 669.689453125 283.341796875 668.745117188 c 0
 295.241210938 666.477539062 304.44921875 660.810546875 310.966796875 651.744140625 c 0
 315.508789062 645.424804688 317.779296875 637.728515625 317.779296875 628.657226562 c 0
 317.779296875 624.712890625 317.350585938 620.508789062 316.4921875 616.044921875 c 2
 293.541992188 503.844726562 l 1
 389.591796875 503.844726562 l 1
 412.541992188 627.944335938 l 2
 417.075195312 642.677734375 424.017578125 652.877929688 433.3671875 658.544921875 c 0
 439.6015625 662.323242188 446.275390625 664.212890625 453.391601562 664.212890625 c 0
 456.948242188 664.212890625 460.615234375 663.740234375 464.392578125 662.795898438 c 0
 476.860351562 660.528320312 486.209960938 654.861328125 492.443359375 645.794921875 c 0
 496.4765625 639.927734375 498.493164062 632.875 498.493164062 624.635742188 c 0
 498.493164062 620.141601562 497.893554688 615.293945312 496.693359375 610.094726562 c 0
 490.459960938 586.294921875 483.376953125 551.444335938 475.443359375 505.544921875 c 1
 484.793945312 505.544921875 l 2
 498.393554688 505.544921875 509.869140625 501.719726562 519.21875 494.069335938 c 0
 528.568359375 486.419921875 533.52734375 478.344726562 534.09375 469.844726562 c 0
 534.09375 459.64453125 530.693359375 451.002929688 523.893554688 443.919921875 c 0
 517.09375 436.836914062 506.610351562 433.01171875 492.443359375 432.444335938 c 2
 461.84375 432.444335938 l 1
 437.193359375 287.094726562 l 1
 472.043945312 287.094726562 l 2
 485.077148438 287.094726562 494.143554688 284.120117188 499.244140625 278.169921875 c 0
 504.34375 272.219726562 507.176757812 264.427734375 507.744140625 254.794921875 c 0
 507.744140625 229.861328125 495.84375 217.39453125 472.043945312 217.39453125 c 2
 424.443359375 217.39453125 l 1
 413.110351562 152.794921875 404.893554688 109.162109375 399.793945312 86.4951171875 c 0
 395.260742188 74.5947265625 387.185546875 65.38671875 375.568359375 58.8701171875 c 0
 367.934570312 54.587890625 360.361328125 52.4462890625 352.850585938 52.4462890625 c 0
 348.931640625 52.4462890625 345.029296875 53.029296875 341.143554688 54.1943359375 c 0
 330.376953125 56.4619140625 322.443359375 63.1201171875 317.34375 74.169921875 c 0
 314.643554688 80.01953125 313.293945312 86.306640625 313.293945312 93.0302734375 c 0
 313.293945312 99.0068359375 314.360351562 105.328125 316.494140625 111.99609375 c 0
 322.161132812 134.662109375 329.52734375 169.512695312 338.594726562 216.545898438 c 1
 326.694335938 216.545898438 309.412109375 216.403320312 286.745117188 216.12109375 c 0
 264.078125 215.837890625 247.360351562 215.6953125 236.59375 215.6953125 c 1
 224.693359375 154.49609375 216.193359375 112.5625 211.09375 89.8955078125 c 0
279.943359375 432.444335938 m 1
 250.193359375 287.09375 l 1
 273.426757812 287.661132812 306.860351562 287.944335938 350.493164062 287.944335938 c 1
 359.559570312 334.411132812 368.342773438 382.578125 376.842773438 432.444335938 c 1
 279.943359375 432.444335938 l 1
EndSplineSet
Validated: 524289
EndChar

StartChar: dollar
Encoding: 36 36 4
Width: 570
VWidth: 901
GlyphClass: 2
Flags: HMW
HStem: 26.5075 72.2442 597.7 67.1517
VStem: 115.974 78.2009 275.774 73.9509 437.276 79.0491
LayerCount: 2
Fore
SplineSet
343.775390625 -32.998046875 m 0
 342.641601562 -45.46484375 337.825195312 -55.0927734375 329.325195312 -61.892578125 c 0
 320.825195312 -68.6923828125 310.908203125 -72.0927734375 299.575195312 -72.0927734375 c 0
 288.807617188 -72.0927734375 280.733398438 -68.267578125 275.349609375 -60.6171875 c 0
 270.903320312 -54.2978515625 268.6796875 -45.7548828125 268.6796875 -34.98828125 c 0
 268.6796875 -32.7216796875 268.778320312 -30.3564453125 268.974609375 -27.8935546875 c 0
 269.73046875 -18.8291015625 270.108398438 -7.7509765625 270.108398438 5.341796875 c 0
 270.108398438 11.892578125 270.013671875 18.947265625 269.82421875 26.5068359375 c 1
 267.274414062 26.5068359375 l 2
 246.874023438 26.5068359375 227.749023438 29.056640625 209.899414062 34.1572265625 c 0
 192.048828125 39.2568359375 176.749023438 46.056640625 163.999023438 54.556640625 c 0
 151.249023438 63.056640625 140.19921875 72.1240234375 130.848632812 81.7568359375 c 0
 121.499023438 91.3896484375 113.991210938 101.873046875 108.32421875 113.206054688 c 0
 103.223632812 124.680664062 100.673828125 134.5625 100.673828125 142.849609375 c 0
 100.673828125 145.612304688 100.95703125 148.198242188 101.524414062 150.60546875 c 0
 103.791015625 160.239257812 109.741210938 167.322265625 119.374023438 171.85546875 c 0
 126.173828125 174.688476562 131.557617188 176.670898438 135.524414062 177.8046875 c 0
 139.491210938 178.9375 143.8828125 179.220703125 148.700195312 178.653320312 c 0
 153.516601562 178.086914062 158.19140625 175.819335938 162.724609375 171.852539062 c 0
 167.2578125 167.885742188 172.075195312 162.21875 177.174804688 154.8515625 c 0
 188.5078125 137.28515625 201.541015625 123.54296875 216.274414062 113.625976562 c 0
 231.006835938 103.708984375 248.857421875 98.7509765625 269.82421875 98.7509765625 c 2
 273.223632812 98.7509765625 l 1
 274.357421875 193.383789062 274.923828125 277.817382812 274.923828125 352.049804688 c 1
 272.090820312 352.049804688 267.1328125 352.6171875 260.049804688 353.75 c 0
 252.966796875 354.8828125 247.724609375 355.450195312 244.325195312 355.450195312 c 0
 223.924804688 357.716796875 205.224609375 363.099609375 188.224609375 371.599609375 c 0
 171.224609375 380.099609375 157.766601562 390.442382812 147.849609375 402.625 c 0
 137.932617188 414.80859375 130.140625 427.55859375 124.473632812 440.875 c 0
 118.807617188 454.192382812 115.973632812 467.650390625 115.973632812 481.25 c 0
 115.973632812 501.650390625 119.090820312 521.200195312 125.32421875 539.900390625 c 0
 131.557617188 558.599609375 141.048828125 576.025390625 153.798828125 592.174804688 c 0
 166.548828125 608.325195312 183.124023438 622.208007812 203.524414062 633.825195312 c 0
 223.923828125 645.442382812 248.006835938 653.516601562 275.774414062 658.049804688 c 1
 276.340820312 671.650390625 276.624023438 688.083007812 276.624023438 707.349609375 c 0
 277.19140625 738.516601562 288.807617188 754.099609375 311.474609375 754.099609375 c 0
 311.947265625 754.111328125 312.415039062 754.116210938 312.879882812 754.116210938 c 0
 337.443359375 754.116210938 349.724609375 739.377929688 349.724609375 709.901367188 c 2
 349.724609375 664.850585938 l 1
 362.19140625 664.284179688 379.6171875 661.451171875 402 656.350585938 c 0
 424.3828125 651.250976562 440.958007812 646.43359375 451.724609375 641.901367188 c 0
 462.4921875 637.93359375 470.141601562 631.701171875 474.674804688 623.201171875 c 0
 478.301757812 616.401367188 480.114257812 609.23828125 480.114257812 601.712890625 c 0
 480.114257812 599.83203125 480.001953125 597.928710938 479.775390625 596.001953125 c 0
 479.208007812 589.202148438 477.083007812 583.959960938 473.400390625 580.276367188 c 0
 469.716796875 576.59375 465.18359375 574.327148438 459.80078125 573.4765625 c 0
 454.41796875 572.626953125 449.317382812 572.484375 444.500976562 573.051757812 c 0
 439.68359375 573.619140625 434.44140625 574.46875 428.775390625 575.6015625 c 0
 423.674804688 576.734375 417.299804688 579.142578125 409.650390625 582.826171875 c 0
 402 586.508789062 393.358398438 589.766601562 383.724609375 592.599609375 c 0
 374.091796875 595.43359375 362.474609375 597.1328125 348.875 597.700195312 c 1
 348.307617188 552.3671875 347.174804688 492.299804688 345.474609375 417.5 c 1
 371.541992188 414.099609375 394.775390625 408.0078125 415.174804688 399.224609375 c 0
 435.575195312 390.442382812 451.8671875 380.383789062 464.049804688 369.05078125 c 0
 476.233398438 357.717773438 486.575195312 344.684570312 495.075195312 329.952148438 c 0
 503.575195312 315.21875 509.2421875 300.768554688 512.075195312 286.6015625 c 0
 514.908203125 272.434570312 516.325195312 257.702148438 516.325195312 242.401367188 c 0
 516.325195312 216.334960938 511.932617188 191.684570312 503.150390625 168.452148438 c 0
 494.3671875 145.21875 482.041992188 125.1015625 466.174804688 108.1015625 c 0
 450.307617188 91.1015625 431.890625 76.369140625 410.923828125 63.9013671875 c 0
 389.95703125 51.4345703125 367.006835938 42.0849609375 342.07421875 35.8515625 c 1
 342.640625 1.8515625 343.208007812 -21.0986328125 343.775390625 -32.998046875 c 0
194.174804688 502.5078125 m 0
 194.174804688 484.375 201.400390625 468.5078125 215.850585938 454.907226562 c 0
 230.30078125 441.307617188 249.993164062 431.674804688 274.92578125 426.0078125 c 1
 275.493164062 465.107421875 275.775390625 519.5078125 275.775390625 589.208007812 c 1
 251.409179688 581.840820312 231.716796875 570.791015625 216.700195312 556.057617188 c 0
 201.682617188 541.32421875 194.174804688 523.474609375 194.174804688 502.5078125 c 0
437.275390625 227.958007812 m 0
 437.275390625 238.724609375 435.857421875 248.641601562 433.024414062 257.708007812 c 0
 430.19140625 266.775390625 425.658203125 276.267578125 419.424804688 286.184570312 c 0
 413.19140625 296.1015625 403.841796875 305.309570312 391.375 313.809570312 c 0
 378.908203125 322.309570312 363.325195312 329.67578125 344.625 335.909179688 c 1
 344.625 310.9765625 344.483398438 273.434570312 344.200195312 223.284179688 c 0
 343.916992188 173.133789062 343.208984375 136.7265625 342.076171875 114.059570312 c 1
 369.275390625 125.392578125 391.942382812 140.975585938 410.076171875 160.80859375 c 0
 428.208984375 180.641601562 437.275390625 203.024414062 437.275390625 227.958007812 c 0
EndSplineSet
Validated: 524289
EndChar

StartChar: percent
Encoding: 37 37 5
Width: 570
VWidth: 899
GlyphClass: 2
Flags: HMW
HStem: 25.1899 64.5771 194.366 62.9 416.217 63.75<195.782 202.865 195.782 205.131> 586.217 62.05
VStem: 87.8322 61.1311 240.885 59.7559 315.573 61.1932 416.78 75.5471 466.947 60.9723
LayerCount: 2
Fore
SplineSet
186.431640625 416.216796875 m 0xfe
 166.598632812 416.216796875 148.890625 421.741210938 133.307617188 432.791992188 c 0
 117.723632812 443.841796875 106.249023438 457.724609375 98.8818359375 474.44140625 c 0
 91.515625 491.158203125 87.83203125 509.150390625 87.83203125 528.416992188 c 0
 87.83203125 563.55078125 97.607421875 592.30859375 117.157226562 614.69140625 c 0
 136.70703125 637.07421875 164.33203125 648.266601562 200.032226562 648.266601562 c 0
 214.19921875 648.266601562 227.374023438 645.858398438 239.557617188 641.041992188 c 0
 251.740234375 636.224609375 262.6484375 629 272.28125 619.366210938 c 0
 281.9140625 609.733398438 289.28125 596.55859375 294.380859375 579.841796875 c 0
 298.553710938 566.163085938 300.639648438 550.684570312 300.639648438 533.40234375 c 0
 300.639648438 529.5625 300.537109375 525.633789062 300.331054688 521.616210938 c 0
 298.630859375 487.049804688 288.573242188 460.841796875 270.15625 442.991210938 c 0
 251.739257812 425.141601562 223.831054688 416.216796875 186.431640625 416.216796875 c 0xfe
109.081054688 65.1669921875 m 0
 120.981445312 89.533203125 149.173828125 140.67578125 193.657226562 218.592773438 c 0
 238.140625 296.509765625 282.623046875 375.134765625 327.106445312 454.467773438 c 0
 371.58984375 533.80078125 401.481445312 590.467773438 416.78125 624.467773438 c 0
 423.581054688 634.666992188 432.505859375 641.041992188 443.556640625 643.592773438 c 0
 446.985351562 644.383789062 450.346679688 644.779296875 453.639648438 644.779296875 c 0
 460.956054688 644.779296875 467.9375 642.825195312 474.580078125 638.916992188 c 0
 480.250976562 636.397460938 492.327148438 629.958007812 492.327148438 614.823242188 c 0xff
 492.327148438 606.897460938 488.962890625 597.645507812 482.231445312 587.068359375 c 0
 461.264648438 552.500976562 411.255859375 464.384765625 332.206054688 322.717773438 c 0
 253.15625 181.05078125 200.880859375 85.283203125 175.380859375 35.4169921875 c 0
 164.501953125 15.330078125 152.231445312 5.287109375 138.5703125 5.287109375 c 0
 133.732421875 5.287109375 128.719726562 6.546875 123.532226562 9.06640625 c 0
 109.140625 15.9033203125 101.944335938 25.9375 101.944335938 39.1689453125 c 0
 101.944335938 46.77734375 104.323242188 55.443359375 109.081054688 65.1669921875 c 0
195.782226562 479.966796875 m 0
 209.94921875 479.966796875 220.573242188 484.5 227.65625 493.56640625 c 0
 238.256835938 507.134765625 240.885742188 525.888671875 240.885742188 533.669921875 c 0
 240.885742188 551.134765625 236.901367188 564.1171875 228.932617188 572.6171875 c 0
 220.432617188 581.684570312 208.532226562 586.217773438 193.232421875 586.217773438 c 0
 179.631835938 586.217773438 169.149414062 581.259765625 161.782226562 571.342773438 c 0
 159.301757812 568.002929688 148.963867188 552.568359375 148.963867188 527.227539062 c 0
 148.963867188 513.172851562 151.961914062 502.236328125 157.95703125 494.416992188 c 0
 164.473632812 485.916992188 177.08203125 481.099609375 195.782226562 479.966796875 c 0
413.380859375 25.216796875 m 0
 393.547851562 25.216796875 375.981445312 30.7412109375 360.681640625 41.7919921875 c 0
 345.380859375 52.841796875 333.90625 66.724609375 326.255859375 83.44140625 c 0
 319.133789062 99.005859375 315.572265625 115.673828125 315.572265625 133.448242188 c 0
 315.572265625 152.983398438 316.572265625 191.2109375 344.53125 223.69140625 c 0
 363.797851562 246.07421875 391.28125 257.266601562 426.981445312 257.266601562 c 0
 441.1484375 257.266601562 454.323242188 255 466.505859375 250.466796875 c 0
 478.689453125 245.93359375 489.739257812 238.708007812 499.65625 228.791992188 c 0
 509.573242188 218.875 517.081054688 205.557617188 522.181640625 188.840820312 c 0
 526.005859375 176.302734375 527.918945312 162.251953125 527.918945312 146.685546875 c 0xfe80
 527.918945312 141.497070312 527.706054688 136.140625 527.28125 130.615234375 c 0
 525.581054688 96.048828125 515.5234375 69.69921875 497.106445312 51.5654296875 c 0
 479.248046875 33.982421875 452.46484375 25.1904296875 416.756835938 25.1904296875 c 0
 415.639648438 25.1904296875 414.515625 25.19921875 413.380859375 25.216796875 c 0
422.731445312 89.81640625 m 0
 423.508789062 89.7841796875 424.275390625 89.76953125 425.032226562 89.76953125 c 0
 437.51953125 89.76953125 447.235351562 94.1767578125 454.181640625 102.9921875 c 0
 455.349609375 104.474609375 466.946289062 119.73046875 466.946289062 141.07421875 c 0
 466.946289062 176.602539062 451.641601562 194.3671875 421.03125 194.3671875 c 0
 407.998046875 194.3671875 397.65625 189.409179688 390.005859375 179.4921875 c 0
 387.330078125 176.022460938 376.765625 160.786132812 376.765625 136.4921875 c 0
 376.765625 122.833007812 379.904296875 111.94921875 386.181640625 103.841796875 c 0
 392.981445312 95.05859375 405.1640625 90.3837890625 422.731445312 89.81640625 c 0
EndSplineSet
Validated: 524289
EndChar

StartChar: ampersand
Encoding: 38 38 6
Width: 570
VWidth: 901
GlyphClass: 2
Flags: HMW
HStem: 15.4518 79.8983 16.8298 17.85G 599.401 67.15
VStem: 87.7959 85.8474 161.745 81.5983 360.643 70.5517
LayerCount: 2
Fore
SplineSet
499.193359375 21.400390625 m 0xac
 494.20703125 18.3525390625 488.916992188 16.8291015625 483.321289062 16.8291015625 c 0x6c
 477.470703125 16.8291015625 471.286132812 18.4951171875 464.768554688 21.826171875 c 0
 452.018554688 28.3427734375 440.826171875 39.53515625 431.193359375 55.4013671875 c 0
 430.060546875 58.234375 426.802734375 66.734375 421.418945312 80.9013671875 c 0
 416.036132812 95.068359375 411.927734375 105.268554688 409.094726562 111.501953125 c 1
 407.395507812 109.234375 403.711914062 104.41796875 398.044921875 97.05078125 c 0
 392.377929688 89.68359375 388.127929688 84.30078125 385.294921875 80.9013671875 c 0
 382.461914062 77.5009765625 377.928710938 72.4013671875 371.696289062 65.6005859375 c 0
 365.462890625 58.80078125 359.9375 53.55859375 355.12109375 49.8759765625 c 0
 350.303710938 46.1923828125 344.071289062 41.80078125 336.420898438 36.701171875 c 0
 328.770507812 31.6005859375 321.404296875 27.7763671875 314.321289062 25.2255859375 c 0
 307.23828125 22.67578125 298.73828125 20.4091796875 288.821289062 18.42578125 c 0
 278.904296875 16.4423828125 268.845703125 15.451171875 258.645507812 15.451171875 c 0
 226.913085938 15.451171875 197.87109375 23.66796875 171.520507812 40.1005859375 c 0
 145.170898438 56.5341796875 124.62890625 78.0673828125 109.895507812 104.700195312 c 0
 95.1630859375 131.333007812 87.7958984375 160.233398438 87.7958984375 191.400390625 c 0xb4
 87.7958984375 298.5 131.99609375 371.317382812 220.395507812 409.849609375 c 1
 215.295898438 418.349609375 209.204101562 428.549804688 202.12109375 440.450195312 c 0
 195.038085938 452.349609375 189.795898438 460.708007812 186.395507812 465.525390625 c 0
 182.99609375 470.341796875 179.3125 476.575195312 175.345703125 484.224609375 c 0
 171.37890625 491.875 168.6875 498.533203125 167.270507812 504.200195312 c 0
 165.853515625 509.8671875 164.578125 516.80859375 163.4453125 525.026367188 c 0
 162.3125 533.243164062 161.745117188 542.16796875 161.745117188 551.80078125 c 0
 161.745117188 562.000976562 163.020507812 572.05859375 165.5703125 581.975585938 c 0
 168.120117188 591.892578125 172.9375 602.092773438 180.020507812 612.576171875 c 0
 187.103515625 623.05859375 195.3203125 632.266601562 204.669921875 640.200195312 c 0
 214.020507812 648.1328125 226.770507812 654.5078125 242.919921875 659.325195312 c 0
 259.0703125 664.141601562 277.344726562 666.549804688 297.745117188 666.549804688 c 0
 314.177734375 666.549804688 330.328125 664 346.1953125 658.900390625 c 0
 362.0625 653.799804688 376.370117188 646.291992188 389.120117188 636.375 c 0
 401.870117188 626.458007812 412.0703125 613.424804688 419.719726562 597.275390625 c 0
 427.370117188 581.125 431.1953125 563.1328125 431.1953125 543.299804688 c 0
 431.1953125 525.166992188 428.927734375 508.30859375 424.395507812 492.725585938 c 0
 419.862304688 477.142578125 414.053710938 464.109375 406.970703125 453.626953125 c 0
 399.887695312 443.143554688 390.962890625 433.0859375 380.196289062 423.452148438 c 0
 369.428710938 413.819335938 359.51171875 406.169921875 350.4453125 400.502929688 c 0
 341.377929688 394.8359375 330.895507812 389.168945312 318.995117188 383.501953125 c 1
 329.1953125 365.934570312 346.478515625 339.868164062 370.844726562 305.30078125 c 0
 395.211914062 270.734375 410.794921875 247.784179688 417.594726562 236.451171875 c 1
 421.5625 244.383789062 426.094726562 253.591796875 431.1953125 264.075195312 c 0
 436.294921875 274.55859375 440.120117188 283.05859375 442.669921875 289.575195312 c 0
 445.219726562 296.091796875 447.627929688 300.766601562 449.895507812 303.599609375 c 0
 460.094726562 318.333007812 469.870117188 327.541015625 479.219726562 331.224609375 c 0
 482.903320312 332.674804688 486.6953125 333.400390625 490.598632812 333.400390625 c 0
 496.603515625 333.400390625 502.869140625 331.68359375 509.395507812 328.248046875 c 0
 519.028320312 323.715820312 524.8359375 315.357421875 526.819335938 303.173828125 c 0
 527.240234375 300.58984375 527.450195312 297.936523438 527.450195312 295.211914062 c 0
 527.450195312 285.091796875 524.547851562 274.004882812 518.743164062 261.94921875 c 0
 515.91015625 256.849609375 507.41015625 245.516601562 493.243164062 227.94921875 c 0
 479.076171875 210.381835938 467.743164062 194.232421875 459.243164062 179.499023438 c 1
 465.4765625 168.732421875 474.118164062 153.290039062 485.16796875 133.173828125 c 0
 496.21875 113.056640625 502.876953125 101.298828125 505.143554688 97.8984375 c 0
 512.03515625 86.8720703125 515.481445312 74.9130859375 515.481445312 62.0234375 c 0
 515.481445312 59.015625 515.293945312 55.9580078125 514.91796875 52.849609375 c 0
 512.935546875 36.416015625 507.693359375 25.93359375 499.193359375 21.400390625 c 0xac
243.344726562 537.349609375 m 0
 243.344726562 523.18359375 247.02734375 507.599609375 254.39453125 490.599609375 c 0
 261.760742188 473.599609375 270.828125 458.583007812 281.594726562 445.549804688 c 1
 294.0625 449.516601562 304.6875 453.625 313.469726562 457.875 c 0
 322.252929688 462.125 330.611328125 467.650390625 338.543945312 474.450195312 c 0
 346.477539062 481.25 352.14453125 489.608398438 355.543945312 499.525390625 c 0
 358.944335938 509.442382812 360.64453125 521.200195312 360.64453125 534.799804688 c 0
 360.64453125 555.766601562 354.26953125 571.775390625 341.51953125 582.825195312 c 0
 328.76953125 593.875 313.327148438 599.400390625 295.194335938 599.400390625 c 0
 260.626953125 599.400390625 243.344726562 578.716796875 243.344726562 537.349609375 c 0
173.64453125 199.049804688 m 0xb4
 173.64453125 169.583007812 181.575195312 144.932617188 197.442382812 125.099609375 c 0
 213.309570312 105.266601562 233.9921875 95.349609375 259.4921875 95.349609375 c 0
 267.42578125 95.349609375 275.217773438 96.19921875 282.8671875 97.8994140625 c 0
 290.517578125 99.599609375 297.034179688 101.298828125 302.41796875 102.999023438 c 0
 307.80078125 104.69921875 313.467773438 107.532226562 319.41796875 111.499023438 c 0
 325.3671875 115.465820312 330.04296875 118.724609375 333.442382812 121.274414062 c 0
 336.842773438 123.82421875 340.950195312 127.791015625 345.767578125 133.173828125 c 0
 350.584960938 138.557617188 353.701171875 142.381835938 355.118164062 144.649414062 c 0
 356.53515625 146.916015625 359.510742188 151.024414062 364.04296875 156.974609375 c 0
 368.576171875 162.923828125 371.126953125 166.465820312 371.693359375 167.599609375 c 0
 361.493164062 189.69921875 352.993164062 206.982421875 346.193359375 219.44921875 c 0
 339.393554688 232.482421875 325.651367188 253.732421875 304.96875 283.19921875 c 0
 284.28515625 312.666015625 269.693359375 334.483398438 261.193359375 348.650390625 c 1
 244.193359375 341.283203125 229.6015625 332.075195312 217.41796875 321.025390625 c 0
 205.235351562 309.974609375 196.02734375 297.791992188 189.793945312 284.474609375 c 0
 183.561523438 271.158203125 179.311523438 257.700195312 177.043945312 244.099609375 c 0
 174.77734375 230.5 173.64453125 215.483398438 173.64453125 199.049804688 c 0xb4
EndSplineSet
Validated: 524289
EndChar

StartChar: quotesingle
Encoding: 39 39 7
Width: 570
VWidth: 941
GlyphClass: 2
Flags: HMW
HStem: 470.397 276.751
VStem: 262.977 90.3822
LayerCount: 2
Fore
SplineSet
353.075195312 710.172851562 m 0
 353.264648438 702.61328125 353.359375 693.68359375 353.359375 683.383789062 c 0
 353.359375 662.797851562 352.981445312 636.736328125 352.225585938 605.19921875 c 0
 351.092773438 557.881835938 349.110351562 524.307617188 346.27734375 504.473632812 c 0
 344.577148438 492.57421875 339.619140625 483.791015625 331.40234375 478.124023438 c 0
 323.931640625 472.97265625 316.111328125 470.396484375 307.938476562 470.396484375 c 0
 307.12109375 470.396484375 306.30078125 470.422851562 305.475585938 470.473632812 c 0
 294.142578125 471.041015625 284.084960938 474.723632812 275.301757812 481.524414062 c 0
 267.522460938 487.546875 263.6328125 495.5703125 263.6328125 505.594726562 c 0
 263.6328125 508.65234375 265.739257812 534.173828125 265.739257812 583.521484375 c 0
 265.739257812 592.58984375 265.668945312 601.940429688 265.52734375 611.57421875 c 0
 264.959960938 650.107421875 264.110351562 684.390625 262.9765625 714.422851562 c 0
 262.9765625 721.223632812 264.251953125 727.172851562 266.801757812 732.2734375 c 0
 269.3515625 737.373046875 273.318359375 740.915039062 278.702148438 742.8984375 c 0
 284.084960938 744.880859375 289.327148438 746.297851562 294.426757812 747.1484375 c 0
 299.52734375 747.998046875 304.626953125 748.140625 309.7265625 747.573242188 c 0
 314.827148438 747.573242188 319.643554688 747.005859375 324.176757812 745.873046875 c 0
 328.709960938 744.740234375 333.243164062 742.8984375 337.776367188 740.348632812 c 0
 342.30859375 737.797851562 345.9921875 733.973632812 348.825195312 728.873046875 c 0
 351.658203125 723.7734375 353.075195312 717.540039062 353.075195312 710.172851562 c 0
EndSplineSet
Validated: 524289
EndChar

StartChar: parenleft
Encoding: 40 40 8
Width: 570
VWidth: 901
GlyphClass: 2
Flags: HMW
HStem: -60.1229 71.3983 674.277 68.85
VStem: 180.536 82.7746
LayerCount: 2
Fore
SplineSet
433.735351562 -27.82421875 m 0
 433.735351562 -36.8916015625 430.053710938 -44.5390625 422.686523438 -50.7724609375 c 0
 415.319335938 -57.0048828125 407.669921875 -60.1220703125 399.736328125 -60.1220703125 c 0
 361.76953125 -60.1220703125 327.344726562 -46.5224609375 296.4609375 -19.322265625 c 0
 265.578125 7.8779296875 240.361328125 45.560546875 220.811523438 93.7275390625 c 0
 201.26171875 141.89453125 188.653320312 197.427734375 182.986328125 260.328125 c 0
 181.352539062 277.362304688 180.536132812 296.509765625 180.536132812 317.770507812 c 0
 180.536132812 348.142578125 182.203125 382.828125 185.536132812 421.828125 c 0
 191.203125 488.127929688 202.252929688 542.810546875 218.686523438 585.877929688 c 0
 226.053710938 604.578125 235.828125 623.135742188 248.01171875 641.552734375 c 0
 260.194335938 659.969726562 274.077148438 676.828125 289.66015625 692.127929688 c 0
 305.243164062 707.427734375 322.810546875 719.752929688 342.360351562 729.102539062 c 0
 361.91015625 738.453125 381.318359375 743.127929688 400.5859375 743.127929688 c 0
 423.264648438 743.127929688 434.604492188 732.057617188 434.604492188 709.918945312 c 0
 434.604492188 703.594726562 434.48046875 690.345703125 424.384765625 682.352539062 c 0
 417.584960938 676.969726562 409.084960938 674.278320312 398.884765625 674.278320312 c 0
 384.151367188 674.278320312 370.41015625 670.028320312 357.66015625 661.528320312 c 0
 344.91015625 653.028320312 333.717773438 641.411132812 324.084960938 626.677734375 c 0
 314.451171875 611.9453125 306.09375 595.794921875 299.010742188 578.227539062 c 0
 291.927734375 560.661132812 285.8359375 541.677734375 280.735351562 521.278320312 c 0
 273.368164062 491.810546875 268.268554688 451.293945312 265.435546875 399.727539062 c 0
 264.01953125 373.943359375 263.311523438 350.568359375 263.311523438 329.6015625 c 0
 263.311523438 308.634765625 264.01953125 290.076171875 265.435546875 273.92578125 c 0
 268.268554688 239.359375 274.360351562 205.784179688 283.7109375 173.201171875 c 0
 293.060546875 140.618164062 303.96875 112.568359375 316.435546875 89.0517578125 c 0
 328.90234375 65.5341796875 342.502929688 46.6923828125 357.235351562 32.525390625 c 0
 371.96875 18.3583984375 386.135742188 11.275390625 399.735351562 11.275390625 c 0
 411.068359375 11.275390625 419.568359375 8.4423828125 425.235351562 2.775390625 c 0
 430.90234375 -2.8916015625 433.735351562 -13.091796875 433.735351562 -27.82421875 c 0
EndSplineSet
Validated: 524289
EndChar

StartChar: parenright
Encoding: 41 41 9
Width: 570
VWidth: 901
GlyphClass: 2
Flags: HMW
HStem: -60.1296 71.4 674.273 68.8517
VStem: 351.105 84.361
LayerCount: 2
Fore
SplineSet
433.016601562 260.32421875 m 0
 426.783203125 197.424804688 413.89453125 141.887695312 394.344726562 93.720703125 c 0
 374.794921875 45.5537109375 349.719726562 7.8701171875 319.119140625 -19.3291015625 c 0
 288.51953125 -46.529296875 254.236328125 -60.1298828125 216.26953125 -60.1298828125 c 0
 208.336914062 -60.1298828125 200.686523438 -57.0126953125 193.319335938 -50.779296875 c 0
 185.953125 -44.546875 182.26953125 -36.896484375 182.26953125 -27.8291015625 c 0
 182.26953125 -13.0966796875 185.244140625 -2.896484375 191.194335938 2.7705078125 c 0
 197.14453125 8.4375 205.502929688 11.2705078125 216.26953125 11.2705078125 c 0
 229.302734375 11.2705078125 243.044921875 18.353515625 257.494140625 32.5205078125 c 0
 271.944335938 46.6875 285.40234375 65.529296875 297.869140625 89.0458984375 c 0
 310.336914062 112.563476562 321.38671875 140.754882812 331.01953125 173.622070312 c 0
 340.65234375 206.489257812 346.602539062 239.921875 348.869140625 273.921875 c 0
 350.360351562 290.922851562 351.10546875 310.591796875 351.10546875 332.928710938 c 0
 351.10546875 353.032226562 350.501953125 375.295898438 349.293945312 399.721679688 c 0
 346.744140625 451.2890625 341.501953125 491.805664062 333.568359375 521.2734375 c 0
 329.036132812 541.672851562 323.369140625 560.65625 316.568359375 578.22265625 c 0
 309.768554688 595.790039062 301.411132812 611.939453125 291.494140625 626.672851562 c 0
 281.577148438 641.40625 270.384765625 653.0234375 257.91796875 661.5234375 c 0
 245.451171875 670.0234375 232.133789062 674.2734375 217.966796875 674.2734375 c 0
 207.200195312 674.2734375 198.416992188 676.96484375 191.6171875 682.34765625 c 0
 184.817382812 687.731445312 181.416992188 696.373046875 181.416992188 708.2734375 c 0
 181.416992188 715.639648438 182.267578125 721.731445312 183.966796875 726.548828125 c 0
 185.666992188 731.366210938 188.642578125 734.907226562 192.892578125 737.174804688 c 0
 197.142578125 739.44140625 200.825195312 741 203.942382812 741.849609375 c 0
 207.05859375 742.69921875 210.883789062 743.125 215.416992188 743.125 c 0
 234.68359375 743.125 254.091796875 738.44921875 273.642578125 729.099609375 c 0
 293.192382812 719.75 310.6171875 707.424804688 325.916992188 692.125 c 0
 341.216796875 676.82421875 354.958984375 659.966796875 367.142578125 641.549804688 c 0
 379.325195312 623.1328125 389.3828125 604.57421875 397.31640625 585.875 c 0
 413.749023438 542.807617188 424.799804688 488.125 430.465820312 421.82421875 c 0
 433.799804688 382.825195312 435.466796875 348.139648438 435.466796875 317.766601562 c 0
 435.466796875 296.505859375 434.649414062 277.358398438 433.016601562 260.32421875 c 0
EndSplineSet
Validated: 524289
EndChar

StartChar: asterisk
Encoding: 42 42 10
Width: 570
VWidth: 901
GlyphClass: 2
Flags: HMW
HStem: 301.041 88.3991 312.517 65.0251
LayerCount: 2
Fore
SplineSet
262.950195312 170.143554688 m 0x40
 260.682617188 163.342773438 256.85546875 158.2421875 251.47265625 154.841796875 c 0
 246.088867188 151.442382812 240.139648438 149.458984375 233.622070312 148.892578125 c 0
 227.10546875 148.325195312 220.872070312 148.75 214.921875 150.166992188 c 0
 208.97265625 151.583984375 203.73046875 153.42578125 199.197265625 155.693359375 c 0
 194.09765625 158.526367188 189.84765625 162.633789062 186.447265625 168.017578125 c 0
 183.046875 173.400390625 180.780273438 180.05859375 179.647460938 187.991210938 c 0
 178.514648438 195.924804688 180.213867188 204.141601562 184.747070312 212.641601562 c 2
 241.697265625 305.291015625 l 1
 195.23046875 302.458007812 160.947265625 301.041015625 138.84765625 301.041015625 c 0
 125.247070312 301.041015625 114.48046875 305.57421875 106.546875 314.641601562 c 0
 98.6142578125 323.708007812 94.6474609375 333.341796875 94.6474609375 343.541015625 c 0
 94.6474609375 348.641601562 95.35546875 353.883789062 96.7724609375 359.266601562 c 0
 98.189453125 364.649414062 100.314453125 369.749023438 103.147460938 374.56640625 c 0
 105.98046875 379.383789062 110.372070312 383.208007812 116.322265625 386.041015625 c 0
 122.272460938 388.874023438 128.930664062 390.0078125 136.296875 389.440429688 c 0x80
 162.364257812 387.173828125 200.897460938 384.340820312 251.897460938 380.940429688 c 1
 227.530273438 422.307617188 207.413085938 454.041015625 191.546875 476.140625 c 0
 184.815429688 487.19921875 181.450195312 498.052734375 181.450195312 508.704101562 c 0
 181.450195312 510.606445312 181.557617188 512.501953125 181.772460938 514.391601562 c 0
 183.189453125 526.858398438 188.431640625 535.075195312 197.498046875 539.041992188 c 0
 202.59765625 542.442382812 208.97265625 544.284179688 216.623046875 544.567382812 c 0
 224.2734375 544.850585938 232.065429688 542.725585938 239.998046875 538.192382812 c 0
 247.931640625 533.659179688 254.1640625 526.859375 258.697265625 517.791992188 c 0
 264.930664062 504.192382812 281.647460938 471.609375 308.84765625 420.041992188 c 1
 331.514648438 458.575195312 348.514648438 490.875 359.84765625 516.942382812 c 0
 363.814453125 526.008789062 369.622070312 532.809570312 377.272460938 537.341796875 c 0
 384.921875 541.875 392.2890625 544 399.372070312 543.716796875 c 0
 406.455078125 543.434570312 412.546875 541.309570312 417.647460938 537.341796875 c 0
 423.314453125 534.508789062 427.989257812 529.9765625 431.671875 523.743164062 c 0
 435.35546875 517.509765625 437.197265625 510.143554688 437.197265625 501.643554688 c 0
 437.197265625 493.143554688 434.364257812 484.92578125 428.697265625 476.993164062 c 0
 410.564453125 450.360351562 390.731445312 417.209960938 369.198242188 377.54296875 c 1
 418.498046875 377.54296875 453.630859375 380.66015625 474.59765625 386.893554688 c 0
 478.565429688 388.155273438 482.359375 388.786132812 485.981445312 388.786132812 c 0
 493.745117188 388.786132812 500.717773438 385.888671875 506.899414062 380.092773438 c 0
 515.965820312 371.592773438 520.783203125 362.526367188 521.349609375 352.893554688 c 0
 521.349609375 347.79296875 520.783203125 342.693359375 519.649414062 337.592773438 c 0
 518.516601562 332.493164062 516.533203125 327.393554688 513.700195312 322.29296875 c 0
 510.8671875 317.193359375 506.900390625 313.2265625 501.80078125 310.393554688 c 0
 496.700195312 307.559570312 490.467773438 306.993164062 483.100585938 308.693359375 c 0
 468.649414062 311.243164062 443.83984375 312.518554688 408.669921875 312.518554688 c 0
 396.947265625 312.518554688 384.07421875 312.375976562 370.049804688 312.092773438 c 1
 427 213.493164062 l 2
 432.078125 202.874023438 434.6171875 193.2890625 434.6171875 184.73828125 c 0
 434.6171875 182.793945312 434.486328125 180.904296875 434.223632812 179.067382812 c 0
 432.806640625 169.150390625 428.69921875 161.92578125 421.899414062 157.392578125 c 0
 416.232421875 153.9921875 409.006835938 152.008789062 400.223632812 151.442382812 c 0
 399.125976562 151.372070312 398.02734375 151.3359375 396.9296875 151.3359375 c 2
 373.875 156.541992188 l 2
 365.091796875 160.508789062 359.56640625 167.026367188 357.299804688 176.092773438 c 0
 349.932617188 198.759765625 334.916015625 231.342773438 312.249023438 273.842773438 c 1
 285.616210938 221.709960938 269.182617188 187.143554688 262.950195312 170.143554688 c 0x40
EndSplineSet
Validated: 524289
EndChar

StartChar: plus
Encoding: 43 43 11
Width: 570
VWidth: 910
GlyphClass: 2
Flags: HMW
HStem: 365.837 67.3193
VStem: 272.297 68.8475
LayerCount: 2
Fore
SplineSet
341.14453125 272.5078125 m 0
 341.14453125 259.474609375 338.314453125 250.265625 332.647460938 244.8828125 c 0
 326.98046875 239.499023438 319.047851562 236.807617188 308.84765625 236.807617188 c 0
 284.48046875 236.807617188 272.297851562 248.70703125 272.297851562 272.5078125 c 2
 272.297851562 363.45703125 l 1
 260.96484375 363.45703125 245.665039062 363.315429688 226.397460938 363.032226562 c 0
 207.130859375 362.749023438 193.813476562 362.607421875 186.447265625 362.607421875 c 0
 172.280273438 362.607421875 161.796875 366.149414062 154.997070312 373.232421875 c 0
 145.102539062 383.5390625 144.731445312 394.581054688 144.731445312 401.61328125 c 0
 144.731445312 411.309570312 147.870117188 419.55859375 154.146484375 426.358398438 c 0
 160.4609375 433.19921875 169.951171875 436.619140625 182.616210938 436.619140625 c 0
 183.590820312 436.619140625 184.583984375 436.598632812 185.596679688 436.55859375 c 0
 225.263671875 435.424804688 254.1640625 434.858398438 272.296875 434.858398438 c 1
 272.296875 484.854492188 270.524414062 526.295898438 270.524414062 529.701171875 c 0
 270.524414062 552.0390625 282.731445312 563.20703125 307.146484375 563.20703125 c 0
 308.28125 563.263671875 309.393554688 563.291992188 310.483398438 563.291992188 c 0
 320.30078125 563.291992188 328.396484375 560.997070312 334.770507812 556.407226562 c 0
 340.875976562 552.010742188 343.9296875 544.245117188 343.9296875 533.109375 c 0
 343.9296875 531.328125 343.8515625 529.4609375 343.6953125 527.506835938 c 0
 341.995117188 494.639648438 341.145507812 463.189453125 341.145507812 433.15625 c 1
 434.645507812 433.15625 l 2
 447.678710938 433.15625 456.88671875 430.323242188 462.26953125 424.65625 c 0
 467.65234375 418.989257812 470.627929688 411.33984375 471.194335938 401.70703125 c 0
 471.194335938 396.606445312 470.627929688 391.931640625 469.494140625 387.681640625 c 0
 468.361328125 383.431640625 466.661132812 379.323242188 464.39453125 375.356445312 c 0
 462.127929688 371.389648438 458.444335938 368.415039062 453.344726562 366.431640625 c 0
 448.244140625 364.448242188 442.01171875 363.740234375 434.64453125 364.307617188 c 0
 425.8046875 365.327148438 410.947265625 365.836914062 390.071289062 365.836914062 c 0
 376.154296875 365.836914062 359.561523438 365.610351562 340.294921875 365.157226562 c 1
 340.294921875 349.857421875 340.436523438 331.724609375 340.719726562 310.7578125 c 0
 341.002929688 289.790039062 341.14453125 277.040039062 341.14453125 272.5078125 c 0
EndSplineSet
Validated: 524289
EndChar

StartChar: comma
Encoding: 44 44 12
Width: 570
VWidth: 845
GlyphClass: 2
Flags: HMW
VStem: 220.873 173.826
LayerCount: 2
Fore
SplineSet
394.698242188 76.6953125 m 0
 389.03125 48.927734375 376.848632812 6.1435546875 358.1484375 -51.65625 c 0
 339.448242188 -109.456054688 324.998046875 -145.15625 314.798828125 -158.755859375 c 0
 305.731445312 -170.65625 294.256835938 -179.15625 280.373046875 -184.255859375 c 0
 272.043945312 -187.315429688 264.479492188 -188.845703125 257.678710938 -188.845703125 c 0
 253.145507812 -188.845703125 248.952148438 -188.166015625 245.099609375 -186.805664062 c 0
 239.432617188 -185.106445312 234.190429688 -181.706054688 229.373046875 -176.606445312 c 0
 224.556640625 -171.505859375 221.723632812 -165.2734375 220.873046875 -157.90625 c 0
 220.0234375 -150.5390625 222.1484375 -142.888671875 227.248046875 -134.956054688 c 0
 239.1484375 -117.956054688 255.581054688 -80.5556640625 276.548828125 -22.755859375 c 0
 297.515625 35.0439453125 310.265625 75.27734375 314.798828125 97.9443359375 c 0
 316.498046875 105.876953125 320.46484375 112.110351562 326.698242188 116.643554688 c 0
 332.931640625 121.17578125 339.448242188 123.443359375 346.248046875 123.443359375 c 0
 353.048828125 123.443359375 359.848632812 122.875976562 366.6484375 121.743164062 c 0
 375.71484375 118.91015625 383.08203125 113.52734375 388.749023438 105.59375 c 0
 393.108398438 99.4921875 395.287109375 92.3837890625 395.287109375 84.2705078125 c 0
 395.287109375 81.8359375 395.090820312 79.310546875 394.698242188 76.6953125 c 0
EndSplineSet
Validated: 524289
EndChar

StartChar: hyphen
Encoding: 45 45 13
Width: 570
VWidth: 893
GlyphClass: 2
Flags: HMW
HStem: 249.75 73.95<201.453 223.269> 256.55 69.7<399.786 408.853 399.786 414.519>
VStem: 176.923 261.962
LayerCount: 2
Fore
SplineSet
211.935546875 323.700195312 m 0xa0
 244.235351562 323.700195312 282.76953125 324.125 327.536132812 324.974609375 c 0
 372.303710938 325.825195312 397.236328125 326.25 402.336914062 326.25 c 0
 415.369140625 326.25 424.577148438 323.275390625 429.9609375 317.325195312 c 0
 435.34375 311.375 438.318359375 303.583007812 438.885742188 293.950195312 c 0
 438.885742188 269.016601562 426.702148438 256.549804688 402.3359375 256.549804688 c 0x60
 394.96875 256.549804688 366.494140625 255.416992188 316.91015625 253.150390625 c 0
 267.327148438 250.8828125 232.90234375 249.75 213.635742188 249.75 c 0
 189.268554688 249.75 177.0859375 261.932617188 177.0859375 286.299804688 c 0
 176.9765625 287.891601562 176.922851562 289.431640625 176.922851562 290.921875 c 0
 176.922851562 312.7734375 188.59375 323.700195312 211.935546875 323.700195312 c 0xa0
EndSplineSet
Validated: 524289
EndChar

StartChar: period
Encoding: 46 46 14
Width: 570
VWidth: 859
GlyphClass: 2
Flags: HMW
HStem: -2.96641 131.413
VStem: 238.299 139.401
LayerCount: 2
Fore
SplineSet
309.700195312 -2.4892578125 m 0
 306.755859375 -2.806640625 303.88671875 -2.9658203125 301.09375 -2.9658203125 c 0
 283.994140625 -2.9658203125 269.720703125 2.9990234375 258.274414062 14.9326171875 c 0
 244.95703125 28.8154296875 238.298828125 45.107421875 238.298828125 63.8076171875 c 0
 238.298828125 81.375 245.807617188 96.3916015625 260.82421875 108.858398438 c 0
 275.840820312 121.325195312 292.1328125 127.842773438 309.700195312 128.409179688 c 0
 310.581054688 128.434570312 311.456054688 128.446289062 312.32421875 128.446289062 c 0
 330.974609375 128.446289062 346.391601562 122.625976562 358.575195312 110.985351562 c 0
 371.325195312 98.8017578125 377.700195312 83.3603515625 377.700195312 64.66015625 c 0
 377.700195312 46.52734375 371.466796875 31.369140625 359 19.1865234375 c 0
 346.533203125 7.0029296875 330.099609375 -0.2216796875 309.700195312 -2.4892578125 c 0
EndSplineSet
Validated: 524289
EndChar

StartChar: slash
Encoding: 47 47 15
Width: 570
VWidth: 901
GlyphClass: 2
Flags: W
LayerCount: 2
Fore
SplineSet
512.845703125 626.501953125 m 0
 498.112304688 597.6015625 456.74609375 526.623046875 388.74609375 413.573242188 c 0
 320.74609375 300.5234375 279.37890625 230.3984375 264.645507812 203.198242188 c 0
 255.579101562 185.631835938 240.845703125 155.881835938 220.4453125 113.948242188 c 0
 200.045898438 72.015625 187.295898438 46.515625 182.1953125 37.4482421875 c 0
 173.12890625 21.5810546875 161.653320312 10.53125 147.770507812 4.298828125 c 0
 140.829101562 1.1826171875 134.34765625 -0.3759765625 128.327148438 -0.3759765625 c 0
 122.306640625 -0.3759765625 116.74609375 1.1826171875 111.645507812 4.298828125 c 0
 103.145507812 8.83203125 98.0458984375 19.3154296875 96.345703125 35.748046875 c 0
 96.0458984375 38.6474609375 95.8955078125 41.5029296875 95.8955078125 44.314453125 c 0
 95.8955078125 57.4365234375 99.1630859375 69.5986328125 105.696289062 80.798828125 c 0
 188.4296875 216.798828125 259.262695312 337.78125 318.1953125 443.748046875 c 0
 355.028320312 508.915039062 394.12890625 582.58203125 435.49609375 664.749023438 c 0
 440.028320312 673.81640625 446.26171875 680.7578125 454.194335938 685.575195312 c 0
 462.127929688 690.391601562 469.77734375 692.659179688 477.14453125 692.375976562 c 0
 484.51171875 692.092773438 491.87890625 690.53515625 499.24609375 687.702148438 c 0
 509.4453125 682.6015625 515.962890625 674.668945312 518.795898438 663.901367188 c 0
 519.62890625 660.735351562 520.045898438 657.420898438 520.045898438 653.9609375 c 0
 520.045898438 645.655273438 517.645507812 636.501953125 512.845703125 626.501953125 c 0
EndSplineSet
Validated: 524289
EndChar

StartChar: zero
Encoding: 48 48 16
Width: 570
VWidth: 902
GlyphClass: 2
Flags: HMW
HStem: 31.6501 71.3991 593.499 68.8509
VStem: 107.39 81.1767 426.144 82.3143
LayerCount: 2
Fore
SplineSet
289.2890625 31.650390625 m 0
 262.655273438 31.650390625 238.149414062 36.4677734375 215.765625 46.1005859375 c 0
 193.3828125 55.734375 174.2578125 69.05078125 158.390625 86.05078125 c 0
 142.524414062 103.05078125 130.057617188 124.30078125 120.990234375 149.80078125 c 0
 112.45703125 173.799804688 108.190429688 200.057617188 108.190429688 228.57421875 c 0
 108.190429688 230.357421875 108.20703125 232.149414062 108.240234375 233.950195312 c 0
 108.240234375 239.6171875 108.098632812 253.641601562 107.815429688 276.025390625 c 0
 107.532226562 298.408203125 107.390625 316.2578125 107.390625 329.575195312 c 0
 107.390625 342.891601562 107.815429688 361.30859375 108.665039062 384.826171875 c 0
 109.515625 408.342773438 111.073242188 428.600585938 113.33984375 445.600585938 c 0
 115.607421875 462.600585938 118.58203125 480.875976562 122.265625 500.42578125 c 0
 125.948242188 519.975585938 130.90625 537.118164062 137.139648438 551.850585938 c 0
 150.739257812 587.55078125 173.689453125 614.892578125 205.989257812 633.875976562 c 0
 238.2890625 652.859375 277.672851562 662.350585938 324.139648438 662.350585938 c 0
 347.372070312 662.350585938 369.189453125 658.383789062 389.58984375 650.451171875 c 0
 409.989257812 642.517578125 428.122070312 630.901367188 443.989257812 615.600585938 c 0
 459.856445312 600.30078125 473.03125 580.467773438 483.514648438 556.100585938 c 0
 493.997070312 531.734375 500.655273438 503.68359375 503.48828125 471.951171875 c 0
 505.755859375 443.618164062 507.313476562 411.459960938 508.1640625 375.4765625 c 0
 508.359375 367.173828125 508.45703125 358.85546875 508.45703125 350.522460938 c 0
 508.45703125 322.741210938 507.3671875 294.791992188 505.188476562 266.67578125 c 0
 502.35546875 230.125976562 498.388671875 202.217773438 493.2890625 182.951171875 c 0
 488.188476562 163.68359375 482.521484375 146.68359375 476.2890625 131.951171875 c 0
 470.055664062 117.217773438 463.397460938 104.467773438 456.314453125 93.701171875 c 0
 449.231445312 82.93359375 441.297851562 73.8671875 432.515625 66.5 c 0
 423.732421875 59.1328125 414.381835938 53.18359375 404.46484375 48.650390625 c 0
 394.547851562 44.1171875 383.356445312 40.5751953125 370.889648438 38.025390625 c 0
 358.422851562 35.474609375 345.955078125 33.775390625 333.48828125 32.9248046875 c 0
 321.021484375 32.0751953125 306.2890625 31.650390625 289.2890625 31.650390625 c 0
191.540039062 247.55078125 m 0
 191.540039062 245.284179688 191.685546875 241.883789062 191.96875 237.350585938 c 0
 192.251953125 232.817382812 192.393554688 229.701171875 192.393554688 228.000976562 c 1
 268.326171875 331.701171875 336.609375 438.234375 397.243164062 547.600585938 c 1
 387.04296875 562.333984375 374.576171875 573.666992188 359.842773438 581.599609375 c 0
 345.109375 589.533203125 329.243164062 593.5 312.243164062 593.5 c 0
 280.509765625 593.5 255.717773438 584.716796875 237.868164062 567.150390625 c 0
 220.017578125 549.583007812 206.559570312 521.25 197.493164062 482.150390625 c 0
 194.092773438 467.983398438 191.684570312 451.408203125 190.267578125 432.424804688 c 0
 189.086914062 416.602539062 188.49609375 398.025390625 188.49609375 376.69140625 c 0
 188.49609375 372.4296875 188.51953125 368.057617188 188.56640625 363.576171875 c 0
 188.849609375 336.659179688 189.1328125 317.67578125 189.416015625 306.625976562 c 0
 189.69921875 295.576171875 190.407226562 275.883789062 191.540039062 247.55078125 c 0
413.393554688 194.850585938 m 0
 415.66015625 201.651367188 418.068359375 220.349609375 420.618164062 250.950195312 c 0
 423.168945312 281.549804688 425.010742188 316.541992188 426.143554688 355.924804688 c 0
 426.466796875 367.17578125 426.62890625 378.299804688 426.62890625 389.296875 c 0
 426.62890625 416.79296875 425.6171875 443.494140625 423.59375 469.400390625 c 1
 362.9609375 344.733398438 291.560546875 240.18359375 209.393554688 155.75 c 1
 224.693359375 120.6171875 251.326171875 103.049804688 289.293945312 103.049804688 c 0
 304.59375 103.049804688 318.3359375 104.325195312 330.518554688 106.875 c 0
 342.701171875 109.424804688 354.318359375 113.958007812 365.368164062 120.474609375 c 0
 376.418945312 126.9921875 385.768554688 136.484375 393.418945312 148.951171875 c 0
 401.068359375 161.41796875 407.7265625 176.717773438 413.393554688 194.850585938 c 0
EndSplineSet
Validated: 524289
EndChar

StartChar: one
Encoding: 49 49 17
Width: 570
VWidth: 904
GlyphClass: 2
Flags: HMW
HStem: 46.4251 72.675 49.8251 75.65<132.051 151.601 132.051 151.601> 488.883 17.85G
VStem: 267.484 82.1647 275.7 77.7733
LayerCount: 2
Fore
SplineSet
514.618164062 83.6884765625 m 0xb0
 514.618164062 73.5341796875 511.62109375 64.9375 505.625976562 57.900390625 c 0
 499.109375 50.25 487.634765625 46.4248046875 471.201171875 46.4248046875 c 0xb0
 463.833984375 46.4248046875 413.259765625 46.9921875 319.4765625 48.125 c 0
 225.693359375 49.2578125 165.201171875 49.8251953125 138.000976562 49.8251953125 c 0
 125.534179688 49.8251953125 116.326171875 53.224609375 110.375976562 60.025390625 c 0
 104.426757812 66.8251953125 101.451171875 75.6083984375 101.451171875 86.375 c 0
 101.40234375 87.361328125 101.376953125 88.33203125 101.376953125 89.2880859375 c 0
 101.376953125 99.3203125 104.094726562 107.69921875 109.526367188 114.424804688 c 0
 115.4765625 121.791992188 125.250976562 125.474609375 138.8515625 125.474609375 c 0
 164.3515625 125.474609375 207.701171875 125.192382812 268.901367188 124.625 c 1
 268.901367188 147.291992188 268.618164062 165.424804688 268.051757812 179.025390625 c 0
 267.672851562 182.047851562 267.483398438 189.735351562 267.483398438 202.086914062 c 0x70
 267.483398438 208.25390625 267.53125 215.583007812 267.625 224.075195312 c 0
 267.908203125 249.575195312 268.05078125 267.9921875 268.05078125 279.325195312 c 0
 268.05078125 290.658203125 268.6171875 311.625 269.75 342.224609375 c 0
 270.883789062 372.825195312 271.733398438 395.6328125 272.30078125 410.650390625 c 0
 272.8671875 425.666992188 274 449.466796875 275.700195312 482.049804688 c 0
 277.400390625 514.6328125 278.533203125 538.575195312 279.100585938 553.875 c 1
 237.166992188 518.7421875 206.567382812 497.775390625 187.30078125 490.974609375 c 0
 183.813476562 489.580078125 180.3125 488.8828125 176.798828125 488.8828125 c 0
 168.892578125 488.8828125 160.91796875 492.4140625 152.875 499.474609375 c 0
 141.798828125 509.200195312 136.260742188 518.92578125 136.260742188 528.650390625 c 0
 136.260742188 529.125 136.2734375 529.600585938 136.30078125 530.075195312 c 0
 136.30078125 539.141601562 138.283203125 547.216796875 142.25 554.299804688 c 0
 146.217773438 561.3828125 153.30078125 568.608398438 163.5 575.974609375 c 0
 179.93359375 588.442382812 197.216796875 602.18359375 215.349609375 617.201171875 c 0
 233.482421875 632.217773438 246.515625 643.125976562 254.44921875 649.92578125 c 0
 262.381835938 656.725585938 270.598632812 662.534179688 279.098632812 667.350585938 c 0
 287.598632812 672.16796875 294.965820312 674.576171875 301.19921875 674.576171875 c 0
 313.098632812 674.576171875 325.565429688 669.475585938 338.598632812 659.276367188 c 0
 351.631835938 649.076171875 358.1484375 640.576171875 358.1484375 633.776367188 c 0
 358.1484375 620.743164062 356.590820312 574.41796875 353.473632812 494.80078125 c 0x68
 350.356445312 415.18359375 348.798828125 368.576171875 348.798828125 354.975585938 c 0
 348.798828125 298.30859375 349.08203125 250.9921875 349.6484375 213.025390625 c 0
 349.6484375 192.05859375 350.215820312 161.458007812 351.348632812 121.224609375 c 1
 367.782226562 121.224609375 385.064453125 120.942382812 403.198242188 120.375 c 0
 421.331054688 119.80859375 436.206054688 119.3828125 447.823242188 119.099609375 c 0
 459.439453125 118.817382812 467.797851562 118.674804688 472.8984375 118.674804688 c 0
 488.764648438 118.674804688 499.532226562 115.700195312 505.19921875 109.75 c 0
 509.809570312 104.909179688 514.618164062 96.7333984375 514.618164062 83.6884765625 c 0xb0
EndSplineSet
Validated: 524289
EndChar

StartChar: two
Encoding: 50 50 18
Width: 570
VWidth: 902
GlyphClass: 2
Flags: HMW
HStem: 37.3452 71.4042 40.7443 77.355 594.947 71.3991
VStem: 109.977 84.9975 410.026 84.1475
LayerCount: 2
Fore
SplineSet
478.025390625 42.44921875 m 0x78
 454.225585938 42.44921875 424.619140625 41.876953125 389.203125 40.744140625 c 0x78
 353.786132812 39.611328125 322.477539062 38.478515625 295.27734375 37.3447265625 c 0
 268.078125 36.2119140625 240.169921875 35.6455078125 211.552734375 35.6455078125 c 0
 182.935546875 35.6455078125 160.693359375 36.7783203125 144.827148438 39.044921875 c 0
 132.360351562 40.1787109375 123.434570312 47.828125 118.051757812 61.9951171875 c 0
 112.668945312 76.162109375 109.9765625 96.5625 109.9765625 123.1953125 c 0
 109.9765625 147.5625 115.21875 173.204101562 125.702148438 200.12109375 c 0
 136.184570312 227.038085938 151.626953125 252.821289062 172.026367188 277.470703125 c 0
 192.426757812 302.12109375 216.2265625 322.095703125 243.426757812 337.396484375 c 0
 304.059570312 371.396484375 343.16015625 395.196289062 360.7265625 408.795898438 c 0
 383.959960938 426.928710938 398.693359375 446.196289062 404.92578125 466.595703125 c 0
 408.326171875 478.49609375 410.026367188 493.229492188 410.026367188 510.795898438 c 0
 410.026367188 540.262695312 401.383789062 561.655273438 384.100585938 574.971679688 c 0
 366.818359375 588.2890625 342.309570312 594.947265625 310.577148438 594.947265625 c 0
 288.4765625 594.947265625 267.369140625 588.146484375 247.251953125 574.546875 c 0
 227.134765625 560.947265625 211.693359375 545.9296875 200.92578125 529.497070312 c 0
 195.826171875 522.129882812 191.008789062 516.322265625 186.475585938 512.072265625 c 0
 181.943359375 507.822265625 177.125976562 505.4140625 172.026367188 504.846679688 c 0
 166.92578125 504.280273438 162.392578125 504.5625 158.42578125 505.696289062 c 0
 154.458984375 506.829101562 149.076171875 508.8125 142.276367188 511.645507812 c 0
 132.642578125 516.745117188 126.693359375 524.112304688 124.42578125 533.745117188 c 0
 123.859375 536.153320312 123.576171875 538.739257812 123.576171875 541.500976562 c 0
 123.576171875 549.7890625 126.125976562 559.669921875 131.225585938 571.145507812 c 0
 136.892578125 581.912109375 145.392578125 592.678710938 156.725585938 603.446289062 c 0
 168.05859375 614.212890625 181.091796875 624.413085938 195.825195312 634.045898438 c 0
 210.55859375 643.678710938 227.840820312 651.470703125 247.674804688 657.420898438 c 0
 267.5078125 663.37109375 287.340820312 666.345703125 307.173828125 666.345703125 c 0
 368.373046875 666.345703125 414.840820312 652.178710938 446.573242188 623.845703125 c 0
 478.306640625 595.512695312 494.173828125 553.012695312 494.173828125 496.345703125 c 0
 494.173828125 449.3125 482.2734375 411.629882812 458.473632812 383.296875 c 0
 440.90625 362.330078125 409.173828125 339.096679688 363.2734375 313.596679688 c 0
 351.940429688 306.796875 332.390625 296.313476562 304.623046875 282.146484375 c 0
 280.256835938 269.114257812 259.856445312 253.10546875 243.423828125 234.123046875 c 0
 226.990234375 215.139648438 215.232421875 195.731445312 208.149414062 175.8984375 c 0
 201.06640625 156.065429688 196.674804688 134.532226562 194.974609375 111.299804688 c 1
 226.70703125 109.599609375 257.307617188 108.749023438 286.774414062 108.749023438 c 0xb8
 316.241210938 108.749023438 339.19140625 109.174804688 355.624023438 110.024414062 c 0
 372.057617188 110.874023438 391.040039062 112.149414062 412.573242188 113.849609375 c 0
 434.106445312 115.549804688 448.2734375 116.682617188 455.073242188 117.249023438 c 0
 455.640625 117.249023438 458.33203125 117.391601562 463.149414062 117.674804688 c 0
 467.965820312 117.95703125 471.224609375 118.099609375 472.924804688 118.099609375 c 2
 481.424804688 118.099609375 l 2
 485.391601562 118.099609375 488.366210938 117.532226562 490.349609375 116.399414062 c 0
 492.33203125 115.266601562 494.599609375 113.849609375 497.149414062 112.149414062 c 0
 499.69921875 110.44921875 501.682617188 108.182617188 503.099609375 105.349609375 c 0
 504.516601562 102.516601562 505.5078125 99.1162109375 506.075195312 95.1494140625 c 0
 506.642578125 88.349609375 506.359375 81.1240234375 505.225585938 73.474609375 c 0
 504.092773438 65.82421875 501.118164062 58.7412109375 496.30078125 52.224609375 c 0
 491.484375 45.70703125 485.392578125 42.44921875 478.025390625 42.44921875 c 0x78
EndSplineSet
Validated: 524289
EndChar

StartChar: three
Encoding: 51 51 19
Width: 570
VWidth: 902
GlyphClass: 2
Flags: HMW
HStem: 31.956 71.4 322.656 85 594.656 71.3983
VStem: 398.967 84.1917 417.652 84.9983
LayerCount: 2
Fore
SplineSet
502.650390625 221.500976562 m 0xe8
 502.650390625 163.133789062 484.655273438 116.958007812 448.672851562 82.9580078125 c 0
 412.689453125 48.9580078125 362.114257812 31.9580078125 296.947265625 31.9580078125 c 0
 277.114257812 31.9580078125 257.28125 34.9326171875 237.448242188 40.8828125 c 0
 217.615234375 46.8330078125 200.473632812 54.482421875 186.0234375 63.8330078125 c 0
 171.573242188 73.1826171875 158.681640625 83.3828125 147.348632812 94.4326171875 c 0
 136.015625 105.482421875 127.232421875 116.390625 120.999023438 127.157226562 c 0
 115.899414062 136.932617188 113.348632812 146.0703125 113.348632812 154.5703125 c 0
 113.348632812 157.403320312 113.631835938 160.166015625 114.19921875 162.857421875 c 0
 116.465820312 173.625 122.69921875 181.274414062 132.899414062 185.807617188 c 0
 140.71484375 189.715820312 147.9921875 191.669921875 154.73046875 191.669921875 c 0
 157.762695312 191.669921875 160.685546875 191.2734375 163.5 190.482421875 c 0
 172.56640625 187.932617188 181.633789062 180.708007812 190.701171875 168.807617188 c 0
 203.16796875 151.807617188 219.034179688 136.649414062 238.301757812 123.333007812 c 0
 257.568359375 110.015625 278.251953125 103.357421875 300.3515625 103.357421875 c 0
 334.3515625 103.357421875 362.401367188 112.990234375 384.501953125 132.2578125 c 0
 406.6015625 151.524414062 417.651367188 176.458007812 417.651367188 207.057617188 c 0xe8
 417.651367188 225.7578125 414.818359375 241.907226562 409.151367188 255.5078125 c 0
 403.484375 269.107421875 394.41796875 281.0078125 381.951171875 291.208007812 c 0
 369.483398438 301.407226562 352.341796875 309.19921875 330.525390625 314.583007812 c 0
 308.708007812 319.965820312 283.349609375 322.657226562 254.450195312 322.657226562 c 0
 242.549804688 322.657226562 232.208007812 327.333007812 223.424804688 336.682617188 c 0
 214.641601562 346.032226562 210.25 356.375 210.25 367.708007812 c 0
 210.25 379.607421875 213.3671875 389.240234375 219.599609375 396.607421875 c 0
 225.833007812 403.974609375 234.900390625 407.657226562 246.799804688 407.657226562 c 0
 294.400390625 407.657226562 331.799804688 417.149414062 359 436.1328125 c 0
 385.64453125 454.727539062 398.967773438 481.616210938 398.967773438 516.796875 c 0
 398.967773438 517.530273438 398.961914062 518.267578125 398.950195312 519.0078125 c 0
 398.966796875 519.768554688 398.974609375 520.524414062 398.974609375 521.2734375 c 0
 398.974609375 545.634765625 390.041992188 563.862304688 372.174804688 575.95703125 c 0
 353.7578125 588.423828125 327.265625 594.657226562 292.69921875 594.657226562 c 0
 285.899414062 594.657226562 279.241210938 593.948242188 272.723632812 592.532226562 c 0
 266.20703125 591.115234375 260.96484375 589.698242188 256.998046875 588.28125 c 0
 253.03125 586.864257812 248.78125 584.456054688 244.248046875 581.055664062 c 0
 239.71484375 577.65625 235.890625 574.823242188 232.7734375 572.555664062 c 0
 229.65625 570.2890625 226.255859375 566.60546875 222.573242188 561.505859375 c 0
 218.890625 556.40625 216.057617188 552.864257812 214.07421875 550.880859375 c 0
 212.090820312 548.897460938 209.399414062 544.790039062 205.999023438 538.556640625 c 0
 196.932617188 526.08984375 187.723632812 518.72265625 178.374023438 516.456054688 c 0
 175.703125 515.80859375 172.950195312 515.484375 170.116210938 515.484375 c 0
 163.033203125 515.484375 155.444335938 517.508789062 147.348632812 521.555664062 c 0
 137.715820312 526.088867188 131.908203125 533.596679688 129.924804688 544.080078125 c 0
 129.411132812 546.797851562 129.153320312 549.638671875 129.153320312 552.604492188 c 0
 129.153320312 561.077148438 131.252929688 570.560546875 135.451171875 581.0546875 c 0
 141.118164062 592.387695312 148.484375 602.73046875 157.551757812 612.080078125 c 0
 166.618164062 621.4296875 177.1015625 630.35546875 189.001953125 638.85546875 c 0
 200.901367188 647.35546875 215.493164062 654.012695312 232.776367188 658.830078125 c 0
 250.059570312 663.647460938 268.618164062 666.0546875 288.451171875 666.0546875 c 0
 353.618164062 666.0546875 402.634765625 652.455078125 435.501953125 625.254882812 c 0
 467.272460938 598.961914062 483.159179688 560.489257812 483.159179688 509.836914062 c 0xf0
 483.159179688 508.090820312 483.139648438 506.330078125 483.102539062 504.5546875 c 0
 483.102539062 488.12109375 480.977539062 473.24609375 476.727539062 459.9296875 c 0
 472.477539062 446.612304688 466.668945312 435.279296875 459.302734375 425.9296875 c 0
 451.935546875 416.579101562 442.868164062 408.362304688 432.1015625 401.279296875 c 0
 421.334960938 394.196289062 410.426757812 388.670898438 399.376953125 384.704101562 c 0
 388.326171875 380.737304688 376.568359375 377.620117188 364.1015625 375.353515625 c 1
 387.334960938 370.25390625 407.16796875 364.020507812 423.600585938 356.653320312 c 0
 440.034179688 349.286132812 454.341796875 339.794921875 466.525390625 328.177734375 c 0
 478.708007812 316.560546875 487.775390625 301.96875 493.724609375 284.401367188 c 0
 499.674804688 266.834960938 502.650390625 245.868164062 502.650390625 221.500976562 c 0xe8
EndSplineSet
Validated: 524289
EndChar

StartChar: four
Encoding: 52 52 20
Width: 570
VWidth: 902
GlyphClass: 2
Flags: HMW
HStem: 33.1262 17.85G 243.276 68.2847
VStem: 364.953 74.3725 370.902 75.6483 370.902 82.4977
LayerCount: 2
Fore
SplineSet
451.650390625 99.4267578125 m 0xd0
 452.81640625 93.2080078125 453.399414062 87.2880859375 453.399414062 81.66796875 c 0
 453.399414062 70.9033203125 451.258789062 61.23828125 446.977539062 52.67578125 c 0
 440.4609375 39.642578125 430.96875 33.125 418.501953125 33.125 c 0
 407.734375 33.125 397.251953125 37.2333984375 387.051757812 45.4501953125 c 0
 376.8515625 53.6669921875 371.46875 62.025390625 370.901367188 70.525390625 c 2
 370.901367188 103.67578125 l 1
 370.901367188 169.55078125 l 1xc8
 370.901367188 243.075195312 l 1xd0
 358.770507812 243.208984375 347.077148438 243.275390625 335.82421875 243.275390625 c 0
 251.41015625 243.275390625 191.703125 239.526367188 156.702148438 232.026367188 c 0
 147.634765625 230.326171875 139.41796875 230.609375 132.05078125 232.875976562 c 0
 124.68359375 235.143554688 118.875976562 239.110351562 114.625976562 244.77734375 c 0
 110.375976562 250.444335938 107.118164062 256.9609375 104.850585938 264.328125 c 0
 102.583984375 271.6953125 101.451171875 279.344726562 101.451171875 287.278320312 c 0
 101.451171875 295.2109375 102.868164062 302.861328125 105.701171875 310.227539062 c 0
 111.368164062 326.094726562 126.525390625 352.01953125 151.17578125 388.002929688 c 0
 175.826171875 423.986328125 207.842773438 468.46875 247.225585938 521.452148438 c 0
 286.609375 574.435546875 314.516601562 612.827148438 330.950195312 636.626953125 c 0
 338.317382812 647.39453125 346.674804688 655.46875 356.025390625 660.852539062 c 0
 365.375 666.235351562 374.299804688 668.926757812 382.799804688 668.926757812 c 0
 384.860351562 669.1328125 386.887695312 669.236328125 388.8828125 669.236328125 c 0
 397.861328125 669.236328125 406.174804688 667.150390625 413.825195312 662.977539062 c 0
 423.174804688 657.876953125 428.983398438 649.09375 431.25 636.626953125 c 0
 434.650390625 616.793945312 437.341796875 586.194335938 439.325195312 544.827148438 c 0xe0
 441.307617188 503.459960938 442.583007812 468.467773438 443.150390625 439.8515625 c 0
 443.716796875 411.234375 444.567382812 368.026367188 445.700195312 310.2265625 c 1
 455.333007812 309.659179688 466.099609375 309.375976562 478 309.375976562 c 0
 491.033203125 309.375976562 500.241210938 306.401367188 505.624023438 300.451171875 c 0
 511.006835938 294.500976562 513.982421875 286.708984375 514.548828125 277.076171875 c 0
 514.548828125 252.143554688 502.366210938 239.676757812 477.999023438 239.676757812 c 0
 466.666015625 239.676757812 456.182617188 239.958984375 446.549804688 240.526367188 c 1
 447.682617188 157.79296875 449.3828125 110.759765625 451.650390625 99.4267578125 c 0xd0
364.952148438 564.375 m 1xe0
 281.084960938 454.44140625 224.134765625 369.157226562 194.1015625 308.524414062 c 1
 225.674804688 310.548828125 264.764648438 311.560546875 311.373046875 311.560546875 c 0
 330.012695312 311.560546875 349.85546875 311.3984375 370.901367188 311.07421875 c 1
 370.901367188 417.041992188 368.918945312 501.474609375 364.952148438 564.375 c 1xe0
EndSplineSet
Validated: 524289
EndChar

StartChar: five
Encoding: 53 53 21
Width: 570
VWidth: 902
GlyphClass: 2
Flags: HMW
HStem: 36.749 71.3983 409.047 75.6525 578.2 75.6483 587.55 67.9983
VStem: 114.706 79.3942 120.996 74.8025 425.295 85.0051
LayerCount: 2
Fore
SplineSet
510.299804688 303.649414062 m 0xda
 510.299804688 261.716796875 505.05078125 223.890625 494.568359375 190.173828125 c 0
 484.084960938 156.45703125 469.3515625 128.407226562 450.369140625 106.024414062 c 0
 431.385742188 83.640625 408.578125 66.4990234375 381.944335938 54.5986328125 c 0
 355.311523438 42.69921875 326.12890625 36.7490234375 294.395507812 36.7490234375 c 0
 269.462890625 36.7490234375 246.512695312 39.298828125 225.545898438 44.3994140625 c 0
 204.578125 49.4990234375 187.01171875 56.58203125 172.844726562 65.6494140625 c 0
 158.677734375 74.7158203125 146.77734375 84.2080078125 137.14453125 94.125 c 0
 127.51171875 104.041992188 119.578125 114.383789062 113.345703125 125.150390625 c 0
 108.245117188 136.625976562 105.6953125 146.506835938 105.6953125 154.793945312 c 0
 105.6953125 157.556640625 105.978515625 160.142578125 106.545898438 162.55078125 c 0
 108.8125 172.18359375 114.762695312 179.55078125 124.395507812 184.650390625 c 0
 130.62890625 187.483398438 135.870117188 189.466796875 140.120117188 190.599609375 c 0
 144.370117188 191.732421875 149.045898438 192.015625 154.145507812 191.44921875 c 0
 159.245117188 190.881835938 164.0625 188.615234375 168.595703125 184.6484375 c 0
 173.12890625 180.681640625 177.9453125 175.014648438 183.045898438 167.647460938 c 0
 208.545898438 128.547851562 243.112304688 108.713867188 286.745117188 108.147460938 c 0
 329.245117188 108.147460938 362.962890625 125.005859375 387.895507812 158.72265625 c 0
 412.828125 192.439453125 425.295898438 237.630859375 425.295898438 294.297851562 c 0
 425.295898438 329.431640625 417.50390625 357.338867188 401.920898438 378.022460938 c 0
 386.337890625 398.705078125 362.395507812 409.046875 330.095703125 409.046875 c 0
 321.595703125 409.046875 313.37890625 408.622070312 305.4453125 407.772460938 c 0
 297.512695312 406.921875 290.712890625 405.7890625 285.045898438 404.372070312 c 0
 279.37890625 402.955078125 273.428710938 400.830078125 267.1953125 397.997070312 c 0
 260.962890625 395.1640625 256.00390625 392.897460938 252.321289062 391.197265625 c 0
 248.638671875 389.497070312 244.10546875 386.380859375 238.721679688 381.84765625 c 0
 233.338867188 377.314453125 229.796875 374.197265625 228.096679688 372.497070312 c 0
 226.397460938 370.796875 222.713867188 367.255859375 217.046875 361.872070312 c 0
 211.379882812 356.489257812 207.98046875 353.231445312 206.846679688 352.098632812 c 0
 202.314453125 348.130859375 196.7890625 344.731445312 190.272460938 341.8984375 c 0
 183.754882812 339.065429688 176.530273438 337.223632812 168.596679688 336.373046875 c 0
 160.6640625 335.5234375 152.731445312 336.797851562 144.797851562 340.198242188 c 0
 135.165039062 344.165039062 127.939453125 352.948242188 123.123046875 366.547851562 c 0
 118.305664062 380.1484375 115.614257812 396.865234375 115.046875 416.698242188 c 0
 114.8203125 424.630859375 114.70703125 432.450195312 114.70703125 440.157226562 c 0xda
 114.70703125 451.717773438 114.961914062 463.0234375 115.471679688 474.07421875 c 0
 116.321289062 492.491210938 117.454101562 512.32421875 118.87109375 533.57421875 c 0
 120.288085938 554.82421875 120.99609375 569.416015625 120.99609375 577.348632812 c 1
 116.462890625 584.715820312 113.629882812 593.07421875 112.497070312 602.423828125 c 0
 111.364257812 611.774414062 111.7890625 620.416015625 113.772460938 628.348632812 c 0
 115.754882812 636.282226562 119.721679688 643.08203125 125.671875 648.749023438 c 0
 131.622070312 654.416015625 138.564453125 657.249023438 146.497070312 657.249023438 c 0
 167.463867188 657.249023438 216.90625 656.681640625 294.823242188 655.548828125 c 0xd6
 372.740234375 654.416015625 432.09765625 653.848632812 472.8984375 653.848632812 c 0
 480.264648438 653.848632812 486.356445312 650.732421875 491.173828125 644.499023438 c 0
 495.991210938 638.265625 499.107421875 631.182617188 500.524414062 623.25 c 0
 501.94140625 615.31640625 502.083984375 607.950195312 500.950195312 601.149414062 c 0
 500.383789062 597.182617188 499.391601562 593.783203125 497.974609375 590.950195312 c 0
 496.557617188 588.1171875 494.57421875 585.9921875 492.024414062 584.575195312 c 0
 489.474609375 583.158203125 487.208007812 581.8828125 485.224609375 580.75 c 0
 483.241210938 579.6171875 480.266601562 578.909179688 476.299804688 578.625976562 c 0
 472.333007812 578.342773438 469.5 578.200195312 467.799804688 578.200195312 c 0xe6
 466.099609375 578.200195312 462.841796875 578.483398438 458.024414062 579.05078125 c 0
 453.208007812 579.6171875 450.515625 579.900390625 449.94921875 579.900390625 c 0
 442.015625 579.900390625 427.848632812 580.750976562 407.44921875 582.450195312 c 0
 387.048828125 584.150390625 368.916015625 585.42578125 353.048828125 586.275390625 c 0
 337.181640625 587.125976562 315.08203125 587.55078125 286.749023438 587.55078125 c 0
 258.416015625 587.55078125 228.666015625 586.700195312 197.499023438 585.000976562 c 1
 197.499023438 579.333984375 196.931640625 562.900390625 195.798828125 535.700195312 c 0xd6
 194.666015625 508.500976562 193.958007812 488.80859375 193.674804688 476.625976562 c 0
 193.580078125 472.568359375 193.532226562 467.9296875 193.532226562 462.709960938 c 0
 193.532226562 452.255859375 193.721679688 439.46875 194.100585938 424.349609375 c 1
 209.967773438 441.916992188 231.5 456.3671875 258.700195312 467.700195312 c 0
 285.900390625 479.033203125 317.067382812 484.700195312 352.200195312 484.700195312 c 0
 377.133789062 484.700195312 399.658203125 480.024414062 419.775390625 470.674804688 c 0
 439.892578125 461.325195312 456.467773438 448.432617188 469.5 432 c 0
 482.533203125 415.56640625 492.591796875 396.44140625 499.674804688 374.625 c 0
 506.7578125 352.807617188 510.299804688 329.149414062 510.299804688 303.649414062 c 0xda
EndSplineSet
Validated: 524289
EndChar

StartChar: six
Encoding: 54 54 22
Width: 570
VWidth: 903
GlyphClass: 2
Flags: HMW
HStem: 34.9564 71.4042 387.707 74.7967
VStem: 103.939 77.4059 428.695 83.3<246.887 265.875>
LayerCount: 2
Fore
SplineSet
511.995117188 262.75390625 m 0
 511.995117188 231.020507812 506.752929688 201.131835938 496.26953125 173.081054688 c 0
 485.787109375 145.03125 471.478515625 120.948242188 453.345703125 100.831054688 c 0
 435.212890625 80.71484375 413.538085938 64.7060546875 388.321289062 52.806640625 c 0
 363.103515625 40.90625 336.329101562 34.9560546875 307.99609375 34.9560546875 c 0
 272.86328125 34.9560546875 242.262695312 41.6142578125 216.196289062 54.931640625 c 0
 190.12890625 68.248046875 168.737304688 87.515625 152.01953125 112.732421875 c 0
 135.302734375 137.94921875 122.978515625 168.124023438 115.044921875 203.256835938 c 0
 107.640625 236.046875 103.938476562 272.5390625 103.938476562 312.733398438 c 0
 103.938476562 315.60546875 103.958007812 318.49609375 103.99609375 321.40625 c 0
 104.5625 370.139648438 109.379882812 414.056640625 118.446289062 453.15625 c 0
 127.513671875 492.256835938 140.122070312 525.123046875 156.271484375 551.756835938 c 0
 172.421875 578.389648438 192.396484375 600.9140625 216.196289062 619.331054688 c 0
 239.997070312 637.748046875 265.638671875 651.7734375 293.122070312 661.40625 c 0
 320.604492188 671.0390625 351.0625 677.272460938 384.49609375 680.10546875 c 0
 386.977539062 680.321289062 389.403320312 680.4296875 391.772460938 680.4296875 c 0
 401.842773438 680.4296875 410.892578125 678.479492188 418.920898438 674.580078125 c 0
 428.837890625 669.762695312 434.36328125 661.970703125 435.49609375 651.204101562 c 0
 436.0625 644.404296875 432.663085938 636.895507812 425.295898438 628.678710938 c 0
 417.928710938 620.461914062 409.711914062 614.936523438 400.64453125 612.103515625 c 0
 394.412109375 610.404296875 384.919921875 608.13671875 372.169921875 605.303710938 c 0
 359.419921875 602.470703125 348.51171875 599.779296875 339.4453125 597.228515625 c 0
 330.377929688 594.678710938 319.611328125 590.853515625 307.14453125 585.75390625 c 0
 294.677734375 580.654296875 282.352539062 573.287109375 270.168945312 563.654296875 c 0
 257.986328125 554.020507812 245.944335938 542.404296875 234.043945312 528.803710938 c 0
 221.577148438 514.071289062 210.102539062 493.954101562 199.619140625 468.454101562 c 0
 189.135742188 442.954101562 182.478515625 420.287109375 179.64453125 400.454101562 c 1
 197.211914062 421.420898438 220.162109375 437.00390625 248.495117188 447.204101562 c 0
 276.828125 457.404296875 308.278320312 462.50390625 342.844726562 462.50390625 c 0
 368.912109375 462.50390625 392.14453125 458.821289062 412.544921875 451.454101562 c 0
 432.9453125 444.086914062 450.653320312 432.469726562 465.669921875 416.603515625 c 0
 480.686523438 400.736328125 492.162109375 379.911132812 500.094726562 354.127929688 c 0
 508.028320312 328.344726562 511.995117188 297.88671875 511.995117188 262.75390625 c 0
181.344726562 249.15625 m 0
 182.478515625 236.689453125 185.029296875 224.084960938 188.99609375 211.334960938 c 0
 192.962890625 198.584960938 198.48828125 185.692382812 205.571289062 172.66015625 c 0
 212.654296875 159.626953125 221.01171875 148.293945312 230.64453125 138.66015625 c 0
 240.278320312 129.02734375 251.89453125 121.235351562 265.495117188 115.28515625 c 0
 279.094726562 109.3359375 293.544921875 106.360351562 308.844726562 106.360351562 c 0
 329.811523438 106.360351562 349.64453125 113.727539062 368.344726562 128.4609375 c 0
 387.044921875 143.193359375 401.778320312 161.751953125 412.544921875 184.134765625 c 0
 423.311523438 206.517578125 428.6953125 229.326171875 428.6953125 252.55859375 c 0
 428.6953125 279.192382812 426.427734375 301.575195312 421.89453125 319.708007812 c 0
 417.362304688 337.840820312 410.13671875 351.724609375 400.219726562 361.357421875 c 0
 390.302734375 370.990234375 379.111328125 377.790039062 366.64453125 381.756835938 c 0
 354.177734375 385.724609375 338.876953125 387.70703125 320.744140625 387.70703125 c 0
 292.411132812 387.70703125 265.778320312 380.33984375 240.844726562 365.607421875 c 0
 215.912109375 350.874023438 195.51171875 332.173828125 179.64453125 309.506835938 c 1
 179.64453125 285.140625 180.211914062 265.0234375 181.344726562 249.15625 c 0
EndSplineSet
Validated: 524289
EndChar

StartChar: seven
Encoding: 55 55 23
Width: 570
VWidth: 901
GlyphClass: 2
Flags: HMW
HStem: 32.3264 17.85G 580.951 76.925
LayerCount: 2
Fore
SplineSet
223.0390625 73.9287109375 m 0
 216.239257812 59.1962890625 207.309570312 48.14453125 196.259765625 40.77734375 c 0
 187.809570312 35.1435546875 179.442382812 32.3271484375 171.158203125 32.3271484375 c 0
 168.609375 32.3271484375 166.067382812 32.59375 163.534179688 33.126953125 c 0
 151.633789062 35.9599609375 143.275390625 42.7607421875 138.458984375 53.52734375 c 0
 136.24609375 58.474609375 135.139648438 63.6611328125 135.139648438 69.0859375 c 0
 135.139648438 75.46875 136.670898438 82.1826171875 139.733398438 89.2275390625 c 0
 168.633789062 147.594726562 199.659179688 205.677734375 232.80859375 263.477539062 c 0
 265.958984375 321.27734375 293.442382812 367.319335938 315.258789062 401.602539062 c 0
 337.076171875 435.885742188 357.192382812 469.177734375 375.609375 501.477539062 c 0
 394.026367188 533.77734375 406.3515625 560.126953125 412.584960938 580.52734375 c 1
 385.692382812 581.454101562 357.873046875 581.918945312 329.126953125 581.918945312 c 0
 305.173828125 581.918945312 280.576171875 581.596679688 255.334960938 580.952148438 c 0
 199.801757812 579.53515625 163.53515625 576.560546875 146.53515625 572.02734375 c 0
 139.734375 570.327148438 133.642578125 570.610351562 128.259765625 572.876953125 c 0
 122.876953125 575.14453125 118.484375 578.543945312 115.084960938 583.077148438 c 0
 111.684570312 587.610351562 109.134765625 592.427734375 107.434570312 597.52734375 c 0
 105.734375 602.626953125 104.884765625 607.727539062 104.884765625 612.827148438 c 0
 104.884765625 623.02734375 107.434570312 631.102539062 112.53515625 637.052734375 c 0
 117.634765625 643.001953125 126.984375 647.39453125 140.584960938 650.227539062 c 0
 161.551757812 654.194335938 190.59375 656.744140625 227.7109375 657.876953125 c 0
 246.26953125 658.443359375 264.084960938 658.7265625 281.15625 658.7265625 c 0
 298.227539062 658.7265625 314.5546875 658.443359375 330.137695312 657.876953125 c 0
 361.3046875 656.744140625 391.905273438 655.611328125 421.938476562 654.478515625 c 0
 451.970703125 653.344726562 468.12109375 652.778320312 470.387695312 652.778320312 c 0
 476.0546875 652.778320312 481.86328125 651.502929688 487.813476562 648.953125 c 0
 493.762695312 646.403320312 499.146484375 642.294921875 503.962890625 636.627929688 c 0
 507.647460938 632.29296875 511.6328125 624.905273438 511.6328125 613.223632812 c 0
 511.6328125 604.458984375 508.934570312 594.41015625 503.537109375 583.076171875 c 0
 495.604492188 566.076171875 481.295898438 540.434570312 460.61328125 506.151367188 c 0
 439.9296875 471.868164062 418.396484375 436.735351562 396.013671875 400.751953125 c 0
 373.630859375 364.76953125 346.430664062 316.88671875 314.4140625 257.103515625 c 0
 282.396484375 197.3203125 251.938476562 136.26171875 223.0390625 73.9287109375 c 0
EndSplineSet
Validated: 524289
EndChar

StartChar: eight
Encoding: 56 56 24
Width: 570
VWidth: 901
GlyphClass: 2
Flags: W
HStem: 27.958 73.0967<223.397 383.306> 600.854 61.2002<238.002 361.13>
VStem: 98.8965 73.0986<149.821 274.907> 121.848 79.8975<463.46 564.425> 403.195 76.502<459.874 559.21> 438.045 79.0547<150.612 281.197>
LayerCount: 2
Fore
SplineSet
517.099609375 225.151367188 m 0xc4
 517.099609375 207.017578125 514.6875 188.888671875 509.870117188 170.755859375 c 0
 505.053710938 152.623046875 496.978515625 134.915039062 485.645507812 117.631835938 c 0
 474.3125 100.348632812 460.4296875 85.1904296875 443.99609375 72.1572265625 c 0
 427.563476562 59.125 406.596679688 48.5 381.096679688 40.2822265625 c 0
 355.596679688 32.0654296875 327.263671875 27.9580078125 296.096679688 27.9580078125 c 0
 267.763671875 27.9580078125 241.98046875 31.9248046875 218.747070312 39.857421875 c 0
 195.513671875 47.791015625 176.671875 57.8486328125 162.22265625 70.0322265625 c 0
 147.772460938 82.21484375 135.588867188 96.806640625 125.671875 113.806640625 c 0
 115.754882812 130.806640625 108.813476562 147.948242188 104.846679688 165.231445312 c 0
 100.879882812 182.514648438 98.896484375 200.22265625 98.896484375 218.35546875 c 0xe4
 98.896484375 237.623046875 103.712890625 258.305664062 113.346679688 280.40625 c 0
 122.979492188 302.505859375 137.004882812 322.90625 155.421875 341.60546875 c 0
 173.837890625 360.305664062 194.379882812 373.338867188 217.046875 380.706054688 c 1
 187.013671875 394.873046875 163.638671875 413.430664062 146.921875 436.380859375 c 0
 130.205078125 459.331054688 121.84765625 482.706054688 121.84765625 506.505859375 c 0
 121.84765625 513.305664062 122.4140625 520.53125 123.546875 528.180664062 c 0
 124.680664062 535.831054688 126.805664062 544.897460938 129.921875 555.380859375 c 0
 133.0390625 565.864257812 137.2890625 575.921875 142.671875 585.5546875 c 0
 148.055664062 595.188476562 155.421875 604.6796875 164.772460938 614.030273438 c 0
 174.122070312 623.379882812 184.747070312 631.596679688 196.647460938 638.6796875 c 0
 208.546875 645.762695312 223.421875 651.4296875 241.272460938 655.6796875 c 0
 259.122070312 659.9296875 278.530273438 662.0546875 299.497070312 662.0546875 c 0
 321.59765625 662.0546875 341.572265625 659.9296875 359.421875 655.6796875 c 0
 377.272460938 651.4296875 392.2890625 645.762695312 404.47265625 638.6796875 c 0
 416.655273438 631.596679688 427.421875 623.379882812 436.772460938 614.030273438 c 0
 446.122070312 604.6796875 453.34765625 595.188476562 458.447265625 585.5546875 c 0
 463.546875 575.921875 467.796875 565.721679688 471.197265625 554.955078125 c 0
 474.59765625 544.188476562 476.864257812 534.696289062 477.997070312 526.479492188 c 0
 479.129882812 518.262695312 479.697265625 510.470703125 479.697265625 503.103515625 c 0xd8
 479.697265625 496.303710938 478.84765625 489.50390625 477.147460938 482.703125 c 0
 475.447265625 475.903320312 473.180664062 469.953125 470.34765625 464.853515625 c 0
 467.513671875 459.75390625 463.831054688 454.370117188 459.297851562 448.703125 c 0
 454.764648438 443.036132812 450.514648438 438.219726562 446.547851562 434.252929688 c 0
 442.581054688 430.286132812 437.481445312 425.752929688 431.248046875 420.65234375 c 0
 425.014648438 415.552734375 420.056640625 411.727539062 416.374023438 409.177734375 c 0
 412.690429688 406.627929688 407.44921875 403.0859375 400.6484375 398.552734375 c 0
 393.848632812 394.01953125 389.315429688 390.90234375 387.048828125 389.202148438 c 1
 408.015625 380.135742188 426.432617188 369.935546875 442.299804688 358.602539062 c 0
 458.166992188 347.26953125 470.774414062 336.077148438 480.125 325.02734375 c 0
 489.474609375 313.977539062 496.982421875 302.219726562 502.649414062 289.752929688 c 0
 508.31640625 277.286132812 512.141601562 266.09375 514.125 256.176757812 c 0
 516.107421875 246.259765625 517.099609375 235.91796875 517.099609375 225.151367188 c 0xc4
201.745117188 509.0546875 m 0xd8
 201.745117188 490.35546875 210.387695312 473.780273438 227.670898438 459.330078125 c 0
 244.953125 444.879882812 273.428710938 430.288085938 313.095703125 415.5546875 c 1
 336.895507812 425.188476562 357.862304688 438.221679688 375.995117188 454.654296875 c 0
 394.12890625 471.086914062 403.1953125 486.387695312 403.1953125 500.5546875 c 0
 403.1953125 516.420898438 398.662109375 532.00390625 389.595703125 547.3046875 c 0
 380.528320312 562.604492188 367.920898438 575.354492188 351.770507812 585.5546875 c 0
 335.620117188 595.75390625 318.1953125 600.854492188 299.495117188 600.854492188 c 0
 272.862304688 600.854492188 249.912109375 591.362304688 230.645507812 572.37890625 c 0
 211.37890625 553.396484375 201.745117188 532.288085938 201.745117188 509.0546875 c 0xd8
299.495117188 101.0546875 m 0
 315.928710938 101.0546875 332.361328125 103.458984375 348.793945312 108.276367188 c 0
 365.2265625 113.092773438 380.1015625 120.03515625 393.418945312 129.1015625 c 0
 406.736328125 138.168945312 417.502929688 150.068359375 425.719726562 164.801757812 c 0
 433.936523438 179.53515625 438.044921875 195.118164062 438.044921875 211.55078125 c 0
 438.044921875 220.618164062 437.194335938 229.259765625 435.495117188 237.4765625 c 0
 433.794921875 245.693359375 430.39453125 255.185546875 425.294921875 265.952148438 c 0
 420.194335938 276.719726562 413.111328125 286.63671875 404.044921875 295.703125 c 0
 394.977539062 304.770507812 382.370117188 314.262695312 366.219726562 324.1796875 c 0
 350.069335938 334.096679688 331.227539062 343.021484375 309.694335938 350.954101562 c 1
 268.89453125 340.1875 235.745117188 321.487304688 210.245117188 294.854492188 c 0
 184.745117188 268.221679688 171.995117188 239.887695312 171.995117188 209.85546875 c 0xe4
 171.995117188 188.887695312 178.370117188 169.905273438 191.120117188 152.905273438 c 0
 203.870117188 135.905273438 219.877929688 123.012695312 239.14453125 114.23046875 c 0
 258.412109375 105.447265625 278.528320312 101.0546875 299.495117188 101.0546875 c 0
EndSplineSet
Validated: 524289
EndChar

StartChar: nine
Encoding: 57 57 25
Width: 570
VWidth: 903
GlyphClass: 2
Flags: HMW
HStem: 34.7222 17.85G 253.495 75.65 610.492 71.4042
VStem: 103.082 83.3042 437.276 74.7089
LayerCount: 2
Fore
SplineSet
211.030273438 35.0458984375 m 0
 208.545898438 34.830078125 206.1171875 34.720703125 203.74609375 34.720703125 c 0
 193.6796875 34.720703125 184.63671875 36.66796875 176.610351562 40.5673828125 c 0
 166.693359375 45.3837890625 161.168945312 53.17578125 160.036132812 63.943359375 c 0
 159.46875 71.3095703125 162.7265625 78.9599609375 169.809570312 86.892578125 c 0
 176.892578125 94.826171875 185.250976562 100.208984375 194.883789062 103.041992188 c 0
 201.1171875 104.7421875 211.174804688 107.008789062 225.05859375 109.841796875 c 0
 238.94140625 112.674804688 251.408203125 115.650390625 262.458007812 118.766601562 c 0
 273.5078125 121.883789062 285.975585938 125.9921875 299.858398438 131.091796875 c 0
 313.741210938 136.192382812 327.19921875 143.275390625 340.232421875 152.341796875 c 0
 353.265625 161.409179688 365.166015625 172.17578125 375.932617188 184.642578125 c 0
 390.099609375 201.076171875 402.70703125 220.201171875 413.7578125 242.017578125 c 0
 424.807617188 263.834960938 432.599609375 283.526367188 437.1328125 301.09375 c 1
 421.265625 282.9609375 400.865234375 270.494140625 375.932617188 263.693359375 c 0
 350.999023438 256.893554688 320.399414062 253.494140625 284.1328125 253.494140625 c 0
 259.19921875 253.494140625 235.399414062 259.301757812 212.732421875 270.918945312 c 0
 190.065429688 282.536132812 170.798828125 297.977539062 154.931640625 317.244140625 c 0
 139.064453125 336.51171875 126.45703125 358.75390625 117.106445312 383.970703125 c 0
 107.756835938 409.1875 103.08203125 434.829101562 103.08203125 460.896484375 c 0
 103.08203125 492.62890625 108.46484375 522.237304688 119.231445312 549.720703125 c 0
 129.999023438 577.203125 144.448242188 600.578125 162.58203125 619.845703125 c 0
 180.71484375 639.112304688 202.248046875 654.270507812 227.180664062 665.3203125 c 0
 252.114257812 676.370117188 278.747070312 681.895507812 307.080078125 681.895507812 c 0
 376.780273438 681.895507812 428.629882812 655.544921875 462.629882812 602.845703125 c 0
 495.533203125 551.845703125 511.984375 479.3515625 511.984375 385.364257812 c 0
 511.984375 382.232421875 511.966796875 379.076171875 511.9296875 375.896484375 c 0
 511.36328125 330.563476562 505.696289062 289.62109375 494.928710938 253.071289062 c 0
 484.162109375 216.521484375 469.711914062 185.49609375 451.579101562 159.99609375 c 0
 433.446289062 134.49609375 411.771484375 112.6796875 386.553710938 94.5458984375 c 0
 361.336914062 76.4130859375 334.13671875 62.6708984375 304.954101562 53.3212890625 c 0
 275.771484375 43.9716796875 244.462890625 37.87890625 211.030273438 35.0458984375 c 0
186.384765625 471.090820312 m 0
 186.384765625 424.623046875 196.440429688 389.350585938 216.557617188 365.267578125 c 0
 236.674804688 341.184570312 266.56640625 329.142578125 306.233398438 329.142578125 c 0
 331.166015625 329.142578125 355.533203125 334.809570312 379.333007812 346.142578125 c 0
 403.1328125 357.475585938 422.400390625 373.05859375 437.1328125 392.891601562 c 0
 437.227539062 395.631835938 437.275390625 398.608398438 437.275390625 401.822265625 c 0
 437.275390625 417.876953125 436.094726562 439.833007812 433.734375 467.69140625 c 0
 432.6015625 480.158203125 430.193359375 492.766601562 426.509765625 505.516601562 c 0
 422.827148438 518.266601562 417.301757812 531.158203125 409.934570312 544.19140625 c 0
 402.568359375 557.224609375 394.068359375 568.557617188 384.434570312 578.190429688 c 0
 374.801757812 587.823242188 363.184570312 595.615234375 349.584960938 601.565429688 c 0
 335.985351562 607.515625 321.53515625 610.490234375 306.235351562 610.490234375 c 0
 285.267578125 610.490234375 265.434570312 603.690429688 246.735351562 590.090820312 c 0
 228.03515625 576.490234375 213.301757812 559.065429688 202.53515625 537.815429688 c 0
 191.767578125 516.565429688 186.384765625 494.323242188 186.384765625 471.090820312 c 0
EndSplineSet
Validated: 524289
EndChar

StartChar: colon
Encoding: 58 58 26
Width: 570
VWidth: 887
GlyphClass: 2
Flags: HMW
HStem: 71.5573 131.832 298.516 131.827
VStem: 252.462 108.541
LayerCount: 2
Fore
SplineSet
360.693359375 392.092773438 m 0
 360.899414062 388.692382812 361.002929688 385.254882812 361.002929688 381.780273438 c 0
 361.002929688 366.142578125 358.916992188 349.745117188 354.744140625 332.58984375 c 0
 351.911132812 321.256835938 345.677734375 312.615234375 336.044921875 306.665039062 c 0
 327.249023438 301.233398438 318.690429688 298.515625 310.3671875 298.515625 c 0
 309.57421875 298.515625 308.783203125 298.541015625 307.994140625 298.58984375 c 0
 273.994140625 300.290039062 255.861328125 313.323242188 253.594726562 337.690429688 c 0
 252.838867188 347.887695312 252.461914062 359.97265625 252.461914062 373.946289062 c 0
 252.461914062 380.9375 252.556640625 388.40234375 252.745117188 396.33984375 c 0
 252.745117188 403.70703125 254.870117188 409.798828125 259.120117188 414.616210938 c 0
 263.370117188 419.432617188 268.612304688 422.974609375 274.845703125 425.241210938 c 0
 281.078125 427.508789062 287.028320312 428.92578125 292.6953125 429.4921875 c 0
 298.362304688 430.059570312 303.745117188 430.342773438 308.845703125 430.342773438 c 0
 313.9453125 430.342773438 319.1875 429.775390625 324.5703125 428.642578125 c 0
 329.953125 427.509765625 335.336914062 425.666992188 340.719726562 423.1171875 c 0
 346.102539062 420.567382812 350.635742188 416.600585938 354.318359375 411.217773438 c 0
 358.001953125 405.833984375 360.126953125 399.458984375 360.693359375 392.092773438 c 0
361.543945312 165.139648438 m 0
 362.818359375 157.704101562 363.455078125 150.1875 363.455078125 142.591796875 c 0
 363.455078125 129.927734375 361.68359375 117.04296875 358.142578125 103.936523438 c 0
 355.30859375 92.603515625 348.225585938 84.2451171875 336.892578125 78.8623046875 c 0
 326.639648438 73.9921875 317.08203125 71.556640625 308.220703125 71.556640625 c 0
 307.287109375 71.556640625 306.362304688 71.583984375 305.443359375 71.638671875 c 0
 294.110351562 72.205078125 283.060546875 75.7470703125 272.293945312 82.263671875 c 0
 261.526367188 88.78125 255.577148438 97.9892578125 254.443359375 109.888671875 c 0
 253.876953125 121.7890625 253.452148438 129.296875 253.168945312 132.4140625 c 0
 252.885742188 135.53125 253.168945312 141.338867188 254.018554688 149.838867188 c 0
 254.869140625 158.338867188 255.293945312 164.856445312 255.293945312 169.388671875 c 0
 255.293945312 176.189453125 257.276367188 182.138671875 261.244140625 187.239257812 c 0
 265.2109375 192.338867188 270.168945312 195.880859375 276.119140625 197.864257812 c 0
 282.068359375 199.84765625 287.876953125 201.263671875 293.543945312 202.114257812 c 0
 299.2109375 202.963867188 304.59375 203.388671875 309.693359375 203.388671875 c 0
 316.494140625 203.388671875 323.293945312 202.397460938 330.09375 200.4140625 c 0
 336.893554688 198.430664062 343.411132812 194.323242188 349.643554688 188.08984375 c 0
 355.876953125 181.856445312 359.84375 174.20703125 361.543945312 165.139648438 c 0
EndSplineSet
Validated: 524289
EndChar

StartChar: semicolon
Encoding: 59 59 27
Width: 570
VWidth: 864
GlyphClass: 2
Flags: HMW
HStem: 239.748 131.824
VStem: 277.9 108.543
LayerCount: 2
Fore
SplineSet
386.134765625 333.323242188 m 0
 386.340820312 329.923828125 386.444335938 326.48828125 386.444335938 323.013671875 c 0
 386.444335938 307.375 384.357421875 290.977539062 380.184570312 273.822265625 c 0
 377.3515625 262.489257812 371.259765625 253.846679688 361.909179688 247.896484375 c 0
 353.373046875 242.46484375 344.717773438 239.748046875 335.944335938 239.748046875 c 0
 335.108398438 239.748046875 334.271484375 239.7734375 333.434570312 239.822265625 c 0
 326.067382812 240.388671875 318.559570312 241.947265625 310.909179688 244.497070312 c 0
 303.259765625 247.046875 296.17578125 251.438476562 289.659179688 257.671875 c 0
 283.142578125 263.905273438 279.600585938 271.271484375 279.033203125 279.771484375 c 0
 278.278320312 289.969726562 277.900390625 302.0546875 277.900390625 316.028320312 c 0
 277.900390625 323.01953125 277.995117188 330.484375 278.184570312 338.421875 c 0
 278.184570312 345.221679688 280.166992188 351.171875 284.134765625 356.271484375 c 0
 288.1015625 361.372070312 293.342773438 364.9140625 299.860351562 366.896484375 c 0
 306.376953125 368.879882812 312.610351562 370.296875 318.560546875 371.146484375 c 0
 324.509765625 371.997070312 329.751953125 372.138671875 334.28515625 371.572265625 c 0
 339.384765625 371.572265625 344.485351562 371.146484375 349.584960938 370.296875 c 0
 354.685546875 369.447265625 360.068359375 367.60546875 365.735351562 364.771484375 c 0
 371.40234375 361.938476562 376.077148438 357.831054688 379.759765625 352.448242188 c 0
 383.443359375 347.064453125 385.568359375 340.689453125 386.134765625 333.323242188 c 0
369.984375 77.47265625 m 0
 368.8515625 59.33984375 350.434570312 -14.611328125 314.734375 -144.377929688 c 0
 311.901367188 -156.278320312 306.092773438 -164.919921875 297.310546875 -170.302734375 c 0
 289.364257812 -175.172851562 281.30078125 -177.608398438 273.122070312 -177.608398438 c 0
 272.260742188 -177.608398438 271.3984375 -177.581054688 270.534179688 -177.52734375 c 0
 259.201171875 -176.959960938 249.143554688 -173.27734375 240.360351562 -166.477539062 c 0
 232.581054688 -160.454101562 228.690429688 -152.430664062 228.690429688 -142.40625 c 0
 228.690429688 -131.724609375 235.407226562 -94.421875 246.734375 -38.9775390625 c 0
 257.500976562 13.72265625 266.000976562 53.9560546875 272.234375 81.72265625 c 0
 273.934570312 90.22265625 276.484375 97.0224609375 279.884765625 102.123046875 c 0
 283.284179688 107.22265625 287.109375 110.623046875 291.359375 112.323242188 c 0
 295.609375 114.022460938 300.142578125 115.15625 304.958984375 115.72265625 c 0
 309.776367188 116.290039062 313.884765625 116.290039062 317.284179688 115.72265625 c 0
 322.384765625 115.72265625 327.909179688 115.014648438 333.859375 113.59765625 c 0
 339.809570312 112.180664062 345.759765625 110.198242188 351.708984375 107.647460938 c 0
 357.659179688 105.09765625 362.333984375 101.272460938 365.734375 96.1728515625 c 0
 369.134765625 91.0732421875 370.55078125 84.83984375 369.984375 77.47265625 c 0
EndSplineSet
Validated: 524289
EndChar

StartChar: less
Encoding: 60 60 28
Width: 570
VWidth: 902
GlyphClass: 2
Flags: HMW
HStem: 41.9717 17.85G
LayerCount: 2
Fore
SplineSet
516.244140625 64.4111328125 m 0
 513.411132812 58.744140625 509.161132812 53.9296875 503.494140625 49.962890625 c 0
 497.827148438 45.9951171875 490.318359375 43.4453125 480.96875 42.3125 c 0
 479.099609375 42.0859375 477.14453125 41.97265625 475.10546875 41.97265625 c 0
 466.944335938 41.97265625 457.424804688 43.7861328125 446.543945312 47.412109375 c 0
 432.376953125 51.9453125 414.952148438 61.8623046875 394.268554688 77.162109375 c 0
 373.5859375 92.462890625 351.203125 110.737304688 327.120117188 131.987304688 c 0
 303.037109375 153.237304688 279.094726562 174.912109375 255.294921875 197.012695312 c 0
 231.495117188 219.112304688 206.419921875 241.920898438 180.069335938 265.4375 c 0
 153.719726562 288.954101562 131.477539062 307.229492188 113.344726562 320.262695312 c 0
 105.977539062 325.362304688 101.161132812 333.012695312 98.8935546875 343.212890625 c 0
 97.8271484375 348.01171875 97.29296875 352.717773438 97.29296875 357.330078125 c 0
 97.29296875 362.517578125 97.96875 367.586914062 99.318359375 372.537109375 c 0
 101.868164062 381.88671875 106.826171875 388.544921875 114.193359375 392.51171875 c 0
 146.493164062 416.311523438 184.318359375 446.203125 227.66796875 482.186523438 c 0
 271.017578125 518.169921875 310.684570312 550.752929688 346.66796875 579.935546875 c 0
 382.651367188 609.119140625 414.526367188 632.2109375 442.29296875 649.2109375 c 0
 451.360351562 654.877929688 459.717773438 657.852539062 467.368164062 658.135742188 c 0
 475.017578125 658.418945312 481.67578125 657.001953125 487.342773438 653.884765625 c 0
 493.009765625 650.767578125 497.967773438 646.943359375 502.217773438 642.41015625 c 0
 506.467773438 637.876953125 509.7265625 633.059570312 511.993164062 627.959960938 c 0
 514.231445312 623.73046875 515.3515625 619.473632812 515.3515625 615.190429688 c 0
 515.3515625 609.716796875 513.5234375 604.198242188 509.868164062 598.634765625 c 0
 503.3515625 588.717773438 490.743164062 576.959960938 472.04296875 563.360351562 c 0
 440.309570312 541.259765625 392.001953125 504.993164062 327.119140625 454.559570312 c 0
 262.235351562 404.126953125 221.293945312 372.110351562 204.293945312 358.509765625 c 1
 226.393554688 341.509765625 250.760742188 320.967773438 277.393554688 296.884765625 c 0
 304.02734375 272.801757812 327.827148438 250.985351562 348.793945312 231.434570312 c 0
 369.760742188 211.884765625 392.143554688 191.91015625 415.943359375 171.509765625 c 0
 439.744140625 151.110351562 460.143554688 134.959960938 477.143554688 123.059570312 c 0
 495.27734375 111.16015625 507.318359375 100.818359375 513.268554688 92.03515625 c 0
 516.838867188 86.7646484375 518.625 81.341796875 518.625 75.7666015625 c 0
 518.625 72.048828125 517.831054688 68.263671875 516.244140625 64.4111328125 c 0
EndSplineSet
Validated: 524289
EndChar

StartChar: equal
Encoding: 61 61 29
Width: 570
VWidth: 908
GlyphClass: 2
Flags: HMW
HStem: 268.077 70.55 434.679 72.3116
LayerCount: 2
Fore
SplineSet
185.594726562 506.9296875 m 0
 217.89453125 505.796875 251.1875 505.2265625 285.470703125 505.2265625 c 0
 319.75390625 505.2265625 351.771484375 505.509765625 381.521484375 506.077148438 c 0
 411.271484375 506.643554688 428.979492188 506.926757812 434.646484375 506.926757812 c 0
 447.678710938 506.926757812 456.88671875 504.09375 462.270507812 498.426757812 c 0
 467.653320312 492.759765625 470.627929688 485.109375 471.1953125 475.4765625 c 0
 471.1953125 470.376953125 470.627929688 465.702148438 469.495117188 461.452148438 c 0
 468.362304688 457.202148438 466.662109375 453.09375 464.395507812 449.126953125 c 0
 462.127929688 445.16015625 458.4453125 442.184570312 453.344726562 440.202148438 c 0
 448.245117188 438.21875 442.01171875 437.510742188 434.645507812 438.077148438 c 0
 421.038085938 438.456054688 406.990234375 438.645507812 392.500976562 438.645507812 c 0
 385.267578125 438.645507812 377.923828125 438.59765625 370.469726562 438.502929688 c 0
 348.0859375 438.220703125 317.061523438 437.512695312 277.39453125 436.37890625 c 0
 237.727539062 435.24609375 208.543945312 434.6796875 189.844726562 434.6796875 c 0
 175.677734375 434.6796875 164.626953125 438.079101562 156.694335938 444.87890625 c 0
 144.84375 455.038085938 144.728515625 465.779296875 144.728515625 471.984375 c 0
 144.728515625 481.681640625 147.8671875 489.9296875 154.14453125 496.73046875 c 0
 160.458984375 503.5703125 169.948242188 506.990234375 182.61328125 506.990234375 c 0
 183.587890625 506.990234375 184.58203125 506.970703125 185.594726562 506.9296875 c 0
188.146484375 338.626953125 m 0
 203.094726562 338.4375 218.865234375 338.342773438 235.45703125 338.342773438 c 0
 268.552734375 338.342773438 304.916015625 338.719726562 344.546875 339.474609375 c 0
 404.046875 340.607421875 434.080078125 341.173828125 434.646484375 341.173828125 c 0
 447.6796875 341.173828125 456.887695312 338.19921875 462.271484375 332.249023438 c 0
 467.654296875 326.298828125 470.62890625 318.506835938 471.196289062 308.874023438 c 0
 471.196289062 303.774414062 470.62890625 299.099609375 469.49609375 294.849609375 c 0
 468.36328125 290.599609375 466.663085938 286.491210938 464.396484375 282.524414062 c 0
 462.12890625 278.557617188 458.446289062 275.58203125 453.345703125 273.599609375 c 0
 448.24609375 271.616210938 442.012695312 270.908203125 434.646484375 271.474609375 c 0
 421.0390625 271.853515625 406.866210938 272.04296875 392.124023438 272.04296875 c 0
 384.764648438 272.04296875 377.263671875 271.995117188 369.62109375 271.901367188 c 0
 346.670898438 271.618164062 315.079101562 270.91015625 274.845703125 269.776367188 c 0
 234.61328125 268.643554688 205.146484375 268.077148438 186.446289062 268.077148438 c 0
 172.279296875 268.077148438 161.795898438 271.619140625 154.99609375 278.702148438 c 0
 145.325195312 288.774414062 144.735351562 299.581054688 144.735351562 306.66796875 c 0
 144.735351562 315.40625 148.155273438 322.80078125 154.99609375 328.8515625 c 0
 162.36328125 335.369140625 173.413085938 338.626953125 188.146484375 338.626953125 c 0
EndSplineSet
Validated: 524289
EndChar

StartChar: greater
Encoding: 62 62 30
Width: 570
VWidth: 903
GlyphClass: 2
Flags: W
LayerCount: 2
Fore
SplineSet
173.723632812 57.818359375 m 0
 165.223632812 52.71875 157.004882812 49.8857421875 149.072265625 49.3193359375 c 0
 141.138671875 48.751953125 134.338867188 50.02734375 128.671875 53.14453125 c 0
 123.004882812 56.2607421875 118.1875 60.0859375 114.220703125 64.619140625 c 0
 110.25390625 69.15234375 107.13671875 73.96875 104.870117188 79.0693359375 c 0
 102.575195312 83.404296875 101.427734375 87.767578125 101.427734375 92.1591796875 c 0
 101.427734375 97.52734375 103.141601562 102.938476562 106.5703125 108.393554688 c 0
 112.803710938 118.310546875 125.553710938 130.068359375 144.8203125 143.66796875 c 0
 176.553710938 165.768554688 224.719726562 202.03515625 289.3203125 252.46875 c 0
 353.919921875 302.901367188 395.287109375 334.91796875 413.419921875 348.518554688 c 1
 391.3203125 365.518554688 366.528320312 386.060546875 339.044921875 410.143554688 c 0
 311.5625 434.2265625 287.620117188 456.04296875 267.219726562 475.59375 c 0
 246.8203125 495.143554688 224.719726562 515.118164062 200.919921875 535.518554688 c 0
 177.120117188 555.91796875 156.153320312 572.068359375 138.020507812 583.96875 c 0
 119.88671875 595.868164062 107.844726562 606.209960938 101.895507812 614.993164062 c 0
 98.5185546875 619.977539062 96.830078125 625.099609375 96.830078125 630.358398438 c 0
 96.830078125 634.365234375 97.810546875 638.451171875 99.771484375 642.6171875 c 0
 102.604492188 648.283203125 106.711914062 653.100585938 112.094726562 657.067382812 c 0
 117.478515625 661.034179688 125.127929688 663.584960938 135.044921875 664.717773438 c 0
 137.028320312 664.944335938 139.073242188 665.056640625 141.180664062 665.056640625 c 0
 149.614257812 665.056640625 159.043945312 663.244140625 169.469726562 659.6171875 c 0
 183.63671875 655.084960938 201.204101562 645.309570312 222.170898438 630.29296875 c 0
 243.137695312 615.275390625 265.663085938 597.000976562 289.74609375 575.467773438 c 0
 313.829101562 553.934570312 337.771484375 532.1171875 361.571289062 510.017578125 c 0
 385.37109375 487.91796875 410.303710938 465.250976562 436.37109375 442.017578125 c 0
 462.4375 418.784179688 485.104492188 400.3671875 504.372070312 386.767578125 c 0
 511.171875 381.66796875 515.705078125 374.017578125 517.971679688 363.817382812 c 0
 518.979492188 359.283203125 519.483398438 354.833984375 519.483398438 350.467773438 c 0
 519.483398438 345.01171875 518.696289062 339.686523438 517.123046875 334.4921875 c 0
 514.290039062 325.142578125 509.47265625 318.484375 502.672851562 314.517578125 c 0
 470.373046875 290.717773438 432.547851562 260.825195312 389.197265625 224.842773438 c 0
 345.84765625 188.859375 306.180664062 156.276367188 270.197265625 127.09375 c 0
 234.21484375 97.91015625 202.056640625 74.818359375 173.723632812 57.818359375 c 0
EndSplineSet
Validated: 524289
EndChar

StartChar: question
Encoding: 63 63 31
Width: 570
VWidth: 903
GlyphClass: 2
Flags: HMW
HStem: 40.6768 131.413 595.357 71.4009
VStem: 219.548 138.55 399.75 84.15
LayerCount: 2
Fore
SplineSet
334.30078125 275.7578125 m 0
 332.034179688 261.024414062 326.788085938 249.688476562 318.571289062 241.754882812 c 0
 313.09375 236.466796875 306.041992188 233.822265625 297.416992188 233.822265625 c 0
 293.103515625 233.822265625 288.397460938 234.483398438 283.297851562 235.805664062 c 0
 267.430664062 239.772460938 256.947265625 247.139648438 251.84765625 257.907226562 c 0
 249.147460938 263.606445312 247.797851562 270.338867188 247.797851562 278.103515625 c 0
 247.797851562 285.005859375 248.864257812 292.723632812 250.997070312 301.256835938 c 0
 254.963867188 316.556640625 260.772460938 331.006835938 268.422851562 344.606445312 c 0
 276.072265625 358.20703125 284.430664062 369.823242188 293.497070312 379.45703125 c 0
 302.564453125 389.08984375 312.056640625 398.297851562 321.973632812 407.081054688 c 0
 331.890625 415.864257812 341.381835938 424.081054688 350.44921875 431.73046875 c 0
 359.515625 439.380859375 367.733398438 447.172851562 375.099609375 455.10546875 c 0
 382.466796875 463.0390625 388.416992188 471.680664062 392.950195312 481.03125 c 0
 397.483398438 490.380859375 399.75 500.439453125 399.75 511.206054688 c 0
 399.75 540.672851562 391.108398438 562.064453125 373.825195312 575.381835938 c 0
 356.541992188 588.698242188 332.034179688 595.356445312 300.30078125 595.356445312 c 0
 292.3671875 595.356445312 284.434570312 593.514648438 276.501953125 589.83203125 c 0
 268.568359375 586.1484375 261.626953125 582.041015625 255.676757812 577.5078125 c 0
 249.7265625 572.974609375 243.493164062 566.8828125 236.9765625 559.232421875 c 0
 230.459960938 551.583007812 225.359375 545.065429688 221.676757812 539.682617188 c 0
 217.993164062 534.299804688 213.6015625 527.924804688 208.501953125 520.557617188 c 0
 203.401367188 513.190429688 198.584960938 507.3828125 194.051757812 503.1328125 c 0
 189.518554688 498.8828125 184.701171875 496.615234375 179.6015625 496.333007812 c 0
 174.501953125 496.049804688 169.96875 496.333007812 166.001953125 497.182617188 c 0
 162.034179688 498.032226562 156.934570312 499.875 150.701171875 502.708007812 c 0
 141.068359375 507.807617188 134.9765625 515.174804688 132.426757812 524.807617188 c 0
 131.770507812 527.284179688 131.443359375 529.94921875 131.443359375 532.80078125 c 0
 131.443359375 541.040039062 134.178710938 550.841796875 139.651367188 562.208007812 c 0
 145.884765625 574.107421875 153.392578125 585.583007812 162.17578125 596.6328125 c 0
 170.958984375 607.682617188 181.8671875 618.732421875 194.899414062 629.782226562 c 0
 207.932617188 640.833007812 223.375 649.7578125 241.224609375 656.557617188 c 0
 259.075195312 663.357421875 277.6328125 666.7578125 296.899414062 666.7578125 c 0
 358.099609375 666.7578125 404.56640625 652.590820312 436.299804688 624.2578125 c 0
 468.033203125 595.924804688 483.899414062 553.424804688 483.899414062 496.7578125 c 0
 483.899414062 481.458007812 481.4921875 467.57421875 476.674804688 455.107421875 c 0
 471.858398438 442.640625 465.483398438 431.874023438 457.549804688 422.806640625 c 0
 449.6171875 413.740234375 440.69140625 405.240234375 430.774414062 397.306640625 c 0
 420.858398438 389.374023438 410.658203125 381.440429688 400.174804688 373.5078125 c 0
 389.69140625 365.57421875 380.05859375 357.357421875 371.275390625 348.857421875 c 0
 362.4921875 340.357421875 354.701171875 329.732421875 347.900390625 316.982421875 c 0
 341.100585938 304.232421875 336.567382812 290.490234375 334.30078125 275.7578125 c 0
290.947265625 41.154296875 m 0
 288.00390625 40.8359375 285.134765625 40.6767578125 282.341796875 40.6767578125 c 0
 265.2421875 40.6767578125 250.96875 46.6416015625 239.522460938 58.576171875 c 0
 226.205078125 72.458984375 219.547851562 88.7509765625 219.547851562 107.451171875 c 0
 219.547851562 125.017578125 226.772460938 140.03515625 241.22265625 152.501953125 c 0
 255.672851562 164.96875 272.247070312 171.485351562 290.947265625 172.052734375 c 0
 291.829101562 172.077148438 292.704101562 172.08984375 293.571289062 172.08984375 c 0
 312.209960938 172.08984375 327.485351562 166.26953125 339.397460938 154.62890625 c 0
 351.864257812 142.4453125 358.09765625 127.00390625 358.09765625 108.303710938 c 0
 358.09765625 90.169921875 352.005859375 75.0126953125 339.822265625 62.8291015625 c 0
 327.639648438 50.646484375 311.34765625 43.4208984375 290.947265625 41.154296875 c 0
EndSplineSet
Validated: 524289
EndChar

StartChar: at
Encoding: 64 64 32
Width: 570
VWidth: 893
GlyphClass: 2
Flags: HMW
HStem: -66.7682 72.4013 129.738 66.2958 143.338 67.995 366.887 65.5635 564.081 76.5066
VStem: 88.694 73.9525 193.245 65.4491 347.943 68.0017 465.246 62.0483
LayerCount: 2
Fore
SplineSet
483.94921875 47.2861328125 m 0xdf80
 481.116210938 39.353515625 478.134765625 32.4111328125 475.018554688 26.4609375 c 0
 471.901367188 20.5107421875 467.651367188 13.1435546875 462.268554688 4.3603515625 c 0
 456.884765625 -4.4228515625 451.217773438 -11.9306640625 445.268554688 -18.1630859375 c 0
 439.318359375 -24.396484375 431.526367188 -30.771484375 421.893554688 -37.2880859375 c 0
 412.259765625 -43.8056640625 401.91796875 -49.1884765625 390.868164062 -53.4384765625 c 0
 379.818359375 -57.6884765625 366.643554688 -61.0888671875 351.342773438 -63.638671875 c 0
 338.825195312 -65.724609375 325.549804688 -66.767578125 311.514648438 -66.767578125 c 0
 308.39453125 -66.767578125 305.23828125 -66.716796875 302.04296875 -66.61328125 c 0
 272.009765625 -66.61328125 243.959960938 -59.24609375 217.893554688 -44.513671875 c 0
 191.826171875 -29.7802734375 169.301757812 -9.23828125 150.318359375 17.111328125 c 0
 131.334960938 43.4619140625 116.318359375 75.478515625 105.268554688 113.161132812 c 0
 94.2177734375 150.844726562 88.693359375 192.069335938 88.693359375 236.836914062 c 0
 88.693359375 286.703125 92.5185546875 333.169921875 100.16796875 376.237304688 c 0
 107.818359375 419.3046875 118.7265625 456.846679688 132.893554688 488.86328125 c 0
 147.060546875 520.879882812 163.77734375 548.36328125 183.043945312 571.313476562 c 0
 202.310546875 594.263671875 223.560546875 611.545898438 246.793945312 623.163085938 c 0
 270.02734375 634.780273438 294.39453125 640.587890625 319.89453125 640.587890625 c 0
 339.161132812 640.587890625 356.444335938 639.030273438 371.744140625 635.913085938 c 0
 387.043945312 632.795898438 401.918945312 627.696289062 416.369140625 620.61328125 c 0
 430.819335938 613.530273438 443.569335938 604.038085938 454.619140625 592.138671875 c 0
 465.668945312 580.23828125 475.869140625 565.36328125 485.21875 547.513671875 c 0
 494.569335938 529.663085938 502.21875 508.837890625 508.168945312 485.038085938 c 0
 514.119140625 461.23828125 518.793945312 433.188476562 522.194335938 400.888671875 c 0
 525.59375 368.587890625 527.293945312 332.321289062 527.293945312 292.087890625 c 0
 527.293945312 271.688476562 525.736328125 252.280273438 522.619140625 233.86328125 c 0
 519.501953125 215.446289062 514.96875 198.163085938 509.01953125 182.013671875 c 0
 503.069335938 165.86328125 494.286132812 153.11328125 482.668945312 143.763671875 c 0
 471.051757812 134.413085938 457.59375 129.73828125 442.293945312 129.73828125 c 0xdf80
 401.494140625 129.73828125 378.543945312 153.538085938 373.444335938 201.138671875 c 1
 360.411132812 162.60546875 335.760742188 143.337890625 299.494140625 143.337890625 c 0
 266.060546875 143.337890625 239.994140625 153.821289062 221.293945312 174.788085938 c 0
 202.59375 195.754882812 193.244140625 227.772460938 193.244140625 270.838867188 c 0
 193.244140625 292.372070312 195.65234375 312.205078125 200.46875 330.337890625 c 0
 205.286132812 348.471679688 211.802734375 363.913085938 220.01953125 376.663085938 c 0
 228.237304688 389.413085938 237.870117188 400.1796875 248.919921875 408.962890625 c 0
 259.969726562 417.74609375 272.01171875 423.979492188 285.044921875 427.662109375 c 0
 296.33984375 430.853515625 307.846679688 432.450195312 319.567382812 432.450195312 c 0
 321.372070312 432.450195312 323.181640625 432.412109375 324.99609375 432.336914062 c 0
 338.595703125 431.76953125 352.1953125 428.65234375 365.795898438 422.985351562 c 0
 378.829101562 417.885742188 389.311523438 411.0859375 397.245117188 402.5859375 c 0
 405.177734375 394.0859375 407.161132812 386.435546875 403.194335938 379.635742188 c 0
 400.926757812 375.102539062 398.376953125 371.419921875 395.543945312 368.586914062 c 0
 392.7109375 365.75390625 389.310546875 363.770507812 385.34375 362.637695312 c 0
 381.376953125 361.50390625 377.694335938 360.654296875 374.293945312 360.086914062 c 0
 370.89453125 359.520507812 366.64453125 359.662109375 361.543945312 360.512695312 c 0
 356.444335938 361.362304688 352.477539062 362.0703125 349.64453125 362.637695312 c 0
 346.810546875 363.204101562 342.560546875 364.336914062 336.89453125 366.037109375 c 0
 329.52734375 367.169921875 322.301757812 367.453125 315.21875 366.88671875 c 0
 308.135742188 366.319335938 301.194335938 363.911132812 294.39453125 359.661132812 c 0
 287.59375 355.411132812 281.64453125 350.028320312 276.543945312 343.51171875 c 0
 271.444335938 336.994140625 267.194335938 328.352539062 263.793945312 317.5859375 c 0
 260.39453125 306.818359375 258.694335938 294.635742188 258.694335938 281.036132812 c 0
 258.694335938 273.668945312 259.119140625 266.7265625 259.96875 260.209960938 c 0
 260.819335938 253.693359375 262.51953125 246.326171875 265.069335938 238.109375 c 0
 267.619140625 229.892578125 271.5859375 223.375 276.96875 218.55859375 c 0
 282.352539062 213.741210938 289.009765625 211.333007812 296.943359375 211.333007812 c 0xbf80
 315.076171875 211.333007812 327.826171875 218.275390625 335.193359375 232.158203125 c 0
 342.560546875 246.041015625 346.810546875 269.1328125 347.943359375 301.43359375 c 0
 347.943359375 310.5 355.310546875 317.8671875 370.04296875 323.534179688 c 0
 379.229492188 327.142578125 387.561523438 328.947265625 395.038085938 328.947265625 c 0
 400.475585938 328.947265625 405.4609375 327.9921875 409.994140625 326.083984375 c 0
 417.361328125 323.250976562 420.477539062 317.583984375 419.344726562 309.083984375 c 0
 417.078125 289.061523438 415.9453125 271.999023438 415.9453125 257.89453125 c 0
 415.9453125 250.84375 416.227539062 244.53125 416.794921875 238.958984375 c 0
 418.495117188 222.2421875 421.328125 210.909179688 425.294921875 204.958984375 c 0
 429.26171875 199.008789062 434.928710938 196.034179688 442.295898438 196.034179688 c 0
 446.829101562 196.034179688 450.795898438 199.716796875 454.1953125 207.083984375 c 0
 457.595703125 214.451171875 460.00390625 224.083984375 461.420898438 235.984375 c 0
 462.837890625 247.883789062 463.830078125 258.3671875 464.396484375 267.43359375 c 0
 464.963867188 276.500976562 465.24609375 285.284179688 465.24609375 293.784179688 c 0
 465.24609375 322.68359375 463.971679688 349.317382812 461.421875 373.68359375 c 0
 458.87109375 398.05078125 455.754882812 418.875976562 452.071289062 436.159179688 c 0
 448.388671875 453.442382812 443.430664062 469.025390625 437.197265625 482.908203125 c 0
 430.963867188 496.791015625 425.014648438 508.124023438 419.34765625 516.907226562 c 0
 413.680664062 525.690429688 406.880859375 533.198242188 398.947265625 539.431640625 c 0
 391.014648438 545.665039062 384.072265625 550.33984375 378.122070312 553.45703125 c 0
 372.172851562 556.573242188 365.372070312 558.981445312 357.72265625 560.681640625 c 0
 350.072265625 562.381835938 344.264648438 563.373046875 340.297851562 563.65625 c 0
 336.330078125 563.939453125 331.513671875 564.08203125 325.846679688 564.08203125 c 0
 303.1796875 564.08203125 282.071289062 556.998046875 262.521484375 542.83203125 c 0
 242.971679688 528.665039062 225.688476562 508.97265625 210.671875 483.755859375 c 0
 195.654296875 458.5390625 183.896484375 427.23046875 175.396484375 389.831054688 c 0
 166.896484375 352.430664062 162.646484375 311.630859375 162.646484375 267.430664062 c 0
 162.646484375 228.897460938 165.479492188 194.189453125 171.146484375 163.306640625 c 0
 176.813476562 132.423828125 184.463867188 107.490234375 194.096679688 88.5078125 c 0
 203.729492188 69.5244140625 214.921875 53.5166015625 227.671875 40.4833984375 c 0
 240.421875 27.4501953125 253.171875 18.3828125 265.921875 13.283203125 c 0
 278.671875 8.18359375 291.846679688 5.6328125 305.446289062 5.6328125 c 0
 320.1796875 5.6328125 333.779296875 7.0498046875 346.24609375 9.8828125 c 0
 358.713867188 12.7158203125 369.055664062 16.1162109375 377.272460938 20.0830078125 c 0
 385.489257812 24.0498046875 393.28125 29.43359375 400.6484375 36.2333984375 c 0
 408.015625 43.033203125 413.681640625 49.2666015625 417.649414062 54.93359375 c 0
 421.616210938 60.6005859375 426.149414062 67.966796875 431.249023438 77.0341796875 c 0
 433.515625 81.0009765625 435.499023438 84.1181640625 437.19921875 86.384765625 c 0
 438.899414062 88.6513671875 440.881835938 91.34375 443.149414062 94.4609375 c 0
 445.416015625 97.578125 447.399414062 99.8447265625 449.098632812 101.26171875 c 0
 450.798828125 102.678710938 452.923828125 103.953125 455.473632812 105.086914062 c 0
 458.024414062 106.219726562 460.57421875 106.786132812 463.124023438 106.786132812 c 0
 465.673828125 106.786132812 468.366210938 106.219726562 471.19921875 105.086914062 c 0
 475.732421875 103.38671875 479.556640625 101.26171875 482.673828125 98.7119140625 c 0
 485.791015625 96.1611328125 488.19921875 92.76171875 489.899414062 88.51171875 c 0
 491.598632812 84.26171875 491.881835938 78.5947265625 490.749023438 71.51171875 c 0
 489.616210938 64.4287109375 487.348632812 56.353515625 483.94921875 47.2861328125 c 0xdf80
EndSplineSet
Validated: 524289
EndChar

StartChar: A
Encoding: 65 65 33
Width: 570
VWidth: 903
GlyphClass: 2
Flags: HMW
HStem: 49.2596 17.85G 267.328 68.855
VStem: 81.4412 76.9446
LayerCount: 2
Fore
SplineSet
158.385742188 88.828125 m 2
 152.71875 71.26171875 144.786132812 59.6484375 134.5859375 53.9814453125 c 0
 128.918945312 50.8330078125 123.165039062 49.2587890625 117.322265625 49.2587890625 c 0
 112.649414062 49.2587890625 107.920898438 50.265625 103.134765625 52.2802734375 c 0
 88.673828125 58.892578125 81.4423828125 72.130859375 81.4423828125 91.998046875 c 0
 81.4423828125 99.3779296875 82.4404296875 107.671875 84.435546875 116.880859375 c 0
 87.8359375 135.013671875 104.268554688 179.213867188 133.736328125 249.48046875 c 1
 123.536132812 256.280273438 118.435546875 264.498046875 118.435546875 274.130859375 c 0
 117.869140625 282.063476562 121.411132812 289.571289062 129.060546875 296.655273438 c 0
 136.7109375 303.73828125 146.768554688 309.262695312 159.236328125 313.229492188 c 1
 228.935546875 475.296875 282.486328125 583.530273438 319.885742188 637.9296875 c 0
 328.385742188 649.262695312 335.893554688 657.479492188 342.411132812 662.580078125 c 0
 348.927734375 667.6796875 356.15234375 670.229492188 364.0859375 670.229492188 c 0
 366.04296875 670.435546875 367.967773438 670.5390625 369.860351562 670.5390625 c 0
 378.374023438 670.5390625 386.223632812 668.452148438 393.41015625 664.280273438 c 0
 402.193359375 659.1796875 407.434570312 650.396484375 409.134765625 637.9296875 c 0
 421.03515625 567.663085938 441.009765625 468.071289062 469.059570312 339.154296875 c 0
 497.110351562 210.237304688 516.518554688 136.145507812 527.28515625 116.877929688 c 0
 532.0078125 107.905273438 534.369140625 99.62109375 534.369140625 92.025390625 c 0
 534.369140625 90.5078125 534.274414062 89.0166015625 534.0859375 87.552734375 c 0
 532.953125 78.7705078125 530.120117188 71.4033203125 525.586914062 65.453125 c 0
 521.053710938 59.5029296875 515.670898438 55.111328125 509.4375 52.2783203125 c 0
 504.515625 50.2060546875 499.592773438 49.169921875 494.670898438 49.169921875 c 2
 477.135742188 53.5537109375 l 2
 466.369140625 58.9375 457.5859375 70.6953125 450.786132812 88.828125 c 0
 443.418945312 106.395507812 429.251953125 165.895507812 408.28515625 267.328125 c 1
 335.751953125 264.495117188 270.869140625 258.544921875 213.635742188 249.478515625 c 1
 158.385742188 88.828125 l 2
347.0859375 565.682617188 m 1
 322.15234375 527.715820312 286.736328125 447.249023438 240.8359375 324.282226562 c 1
 298.635742188 331.08203125 349.918945312 335.048828125 394.685546875 336.182617188 c 1
 347.0859375 565.682617188 l 1
EndSplineSet
Validated: 524289
EndChar

StartChar: B
Encoding: 66 66 34
Width: 570
VWidth: 901
GlyphClass: 2
Flags: HMW
HStem: 31.9037 17.85G 303.904 61.2 586.954 67.1491
VStem: 102.3 82.0231 403.197 76.5326 432.098 83.3008
LayerCount: 2
Fore
SplineSet
264.650390625 39.55078125 m 0xf4
 255.016601562 38.9833984375 244.248046875 38.1357421875 232.348632812 37.0029296875 c 0
 220.448242188 35.8701171875 210.815429688 35.01953125 203.448242188 34.453125 c 2
 181.348632812 32.7529296875 l 2
 173.981445312 32.185546875 167.323242188 31.9033203125 161.373046875 31.9033203125 c 0
 155.422851562 31.9033203125 149.8984375 32.4697265625 144.797851562 33.6025390625 c 2
 141.3984375 33.6025390625 l 2
 130.065429688 33.6025390625 120.857421875 37.427734375 113.774414062 45.078125 c 0
 107.215820312 52.1611328125 103.936523438 61.7939453125 103.936523438 73.9775390625 c 0
 103.936523438 80.3017578125 105.912109375 92.703125 105.912109375 166.8359375 c 0
 105.912109375 180.862304688 105.841796875 196.234375 105.700195312 212.953125 c 0
 105.1328125 279.819335938 104 348.669921875 102.299804688 419.502929688 c 0
 101.166992188 457.469726562 100.599609375 482.969726562 100.599609375 496.002929688 c 0
 100.599609375 509.036132812 101.025390625 526.602539062 101.875 548.703125 c 0
 102.724609375 570.802734375 103.150390625 586.102539062 103.150390625 594.602539062 c 0
 103.716796875 609.903320312 107.825195312 621.377929688 115.474609375 629.028320312 c 0
 123.125 636.677734375 132.900390625 640.502929688 144.799804688 640.502929688 c 2
 149.049804688 640.502929688 l 2
 158.1171875 643.3359375 167.466796875 645.744140625 177.099609375 647.7265625 c 0
 186.733398438 649.709960938 195.658203125 651.126953125 203.875 651.9765625 c 0
 212.091796875 652.827148438 221.016601562 653.393554688 230.650390625 653.676757812 c 0
 240.283203125 653.959960938 247.791015625 654.1015625 253.173828125 654.1015625 c 2
 270.598632812 654.1015625 l 1
 279.94921875 654.1015625 l 2
 318.482421875 654.1015625 352.624023438 647.018554688 382.374023438 632.8515625 c 0
 412.124023438 618.685546875 435.640625 598.143554688 452.923828125 571.2265625 c 0
 471.982421875 541.543945312 479.729492188 508.252929688 479.729492188 473.733398438 c 0xf8
 479.729492188 442.389648438 472.495117188 415.387695312 458.024414062 392.7265625 c 0
 443.006835938 369.208984375 422.182617188 352.067382812 395.548828125 341.30078125 c 1
 414.81640625 335.067382812 433.374023438 325.859375 451.223632812 313.67578125 c 0
 469.07421875 301.493164062 484.232421875 287.893554688 496.69921875 272.875976562 c 0
 509.166015625 257.859375 515.399414062 243.833984375 515.399414062 230.80078125 c 0
 515.399414062 209.268554688 510.015625 187.875976562 499.249023438 166.625976562 c 0
 488.482421875 145.375976562 472.756835938 125.967773438 452.07421875 108.401367188 c 0
 431.390625 90.833984375 404.7578125 75.8173828125 372.174804688 63.3505859375 c 0
 339.591796875 50.8837890625 303.75 42.9501953125 264.650390625 39.55078125 c 0xf4
278.248046875 586.953125 m 0
 247.6484375 586.953125 217.8984375 583.268554688 188.998046875 575.90234375 c 1
 188.998046875 565.134765625 188.431640625 547.8515625 187.297851562 524.051757812 c 0
 186.165039062 500.251953125 185.315429688 475.03515625 184.748046875 448.40234375 c 0
 184.46484375 435.0859375 184.322265625 421.627929688 184.322265625 408.028320312 c 0
 184.322265625 394.427734375 184.46484375 380.685546875 184.748046875 366.802734375 c 1
 211.380859375 365.669921875 236.598632812 365.102539062 260.3984375 365.102539062 c 0
 277.3984375 365.102539062 292.981445312 366.51953125 307.1484375 369.352539062 c 0
 321.315429688 372.185546875 333.073242188 375.869140625 342.422851562 380.40234375 c 0
 351.7734375 384.935546875 360.2734375 390.459960938 367.922851562 396.9765625 c 0
 375.573242188 403.494140625 381.380859375 410.15234375 385.348632812 416.952148438 c 0
 389.315429688 423.751953125 392.71484375 431.259765625 395.547851562 439.4765625 c 0
 398.380859375 447.694335938 400.364257812 455.060546875 401.497070312 461.578125 c 0
 402.630859375 468.094726562 403.197265625 475.037109375 403.197265625 482.403320312 c 0
 403.197265625 497.13671875 400.22265625 510.736328125 394.272460938 523.204101562 c 0
 388.322265625 535.670898438 380.955078125 545.728515625 372.172851562 553.37890625 c 0
 363.389648438 561.028320312 353.331054688 567.545898438 341.998046875 572.928710938 c 0
 330.665039062 578.311523438 319.615234375 581.995117188 308.848632812 583.977539062 c 0
 298.081054688 585.9609375 287.880859375 586.953125 278.248046875 586.953125 c 0
266.348632812 303.90234375 m 1
 224.981445312 303.90234375 198.348632812 303.618164062 186.448242188 303.05078125 c 1
 188.71484375 211.818359375 190.415039062 146.935546875 191.547851562 108.40234375 c 1
 197.78125 108.40234375 208.123046875 108.685546875 222.573242188 109.251953125 c 0
 237.0234375 109.819335938 247.931640625 110.1015625 255.297851562 110.1015625 c 0
 281.365234375 111.235351562 305.873046875 115.768554688 328.823242188 123.701171875 c 0
 351.7734375 131.633789062 370.331054688 141.125976562 384.498046875 152.17578125 c 0
 398.665039062 163.2265625 410.140625 174.842773438 418.922851562 187.026367188 c 0
 427.706054688 199.208984375 432.098632812 210.401367188 432.098632812 220.6015625 c 0xf4
 432.098632812 227.967773438 428.981445312 235.334960938 422.748046875 242.702148438 c 0
 416.515625 250.069335938 407.0234375 257.71875 394.2734375 265.65234375 c 0
 381.5234375 273.584960938 364.098632812 280.952148438 341.998046875 287.751953125 c 0
 319.8984375 294.551757812 294.681640625 299.935546875 266.348632812 303.90234375 c 1
EndSplineSet
Validated: 524289
EndChar

StartChar: C
Encoding: 67 67 35
Width: 570
VWidth: 903
GlyphClass: 2
Flags: HMW
HStem: 26.7904 76.5782 493.872 188.909 590.419 68.8467
VStem: 88.7041 85.8483 439.755 87.5508
LayerCount: 2
Fore
SplineSet
503.500976562 107.618164062 m 0xb8
 456.763671875 53.734375 385.223632812 26.7900390625 288.872070312 26.7900390625 c 0
 285.922851562 26.7900390625 282.950195312 26.814453125 279.954101562 26.865234375 c 0
 256.720703125 26.865234375 234.62109375 30.83203125 213.654296875 38.765625 c 0
 192.6875 46.6982421875 174.979492188 57.181640625 160.529296875 70.21484375 c 0
 146.079101562 83.248046875 133.1875 98.4052734375 121.854492188 115.688476562 c 0
 110.521484375 132.971679688 102.163085938 151.388671875 96.7802734375 170.938476562 c 0
 91.396484375 190.48828125 88.705078125 210.180664062 88.705078125 230.013671875 c 0
 88.705078125 271.380859375 92.955078125 311.331054688 101.455078125 349.86328125 c 0
 109.955078125 388.396484375 121.4296875 423.247070312 135.879882812 454.4140625 c 0
 150.330078125 485.581054688 167.188476562 514.197265625 186.455078125 540.264648438 c 0
 205.721679688 566.331054688 226.263671875 588.006835938 248.081054688 605.2890625 c 0
 269.897460938 622.572265625 292.28125 635.889648438 315.23046875 645.239257812 c 0
 338.180664062 654.58984375 360.138671875 659.264648438 381.10546875 659.264648438 c 0xb8
 402.072265625 659.264648438 421.33984375 656.998046875 438.90625 652.46484375 c 1
 441.173828125 660.96484375 445.423828125 667.90625 451.65625 673.2890625 c 0
 457.889648438 678.672851562 465.256835938 681.647460938 473.756835938 682.21484375 c 0
 475.771484375 682.591796875 477.79296875 682.78125 479.822265625 682.78125 c 0
 486.922851562 682.78125 494.108398438 680.466796875 501.380859375 675.83984375 c 0
 510.73046875 669.889648438 516.5390625 661.248046875 518.805664062 649.9140625 c 0
 520.505859375 641.4140625 522.206054688 633.056640625 523.90625 624.83984375 c 0
 525.60546875 616.623046875 526.59765625 608.547851562 526.880859375 600.614257812 c 0
 527.1640625 592.681640625 527.305664062 586.1640625 527.305664062 581.064453125 c 2
 527.305664062 563.21484375 l 1
 527.305664062 550.46484375 l 2
 527.305664062 538.564453125 522.772460938 526.522460938 513.706054688 514.33984375 c 0
 504.638671875 502.15625 495.572265625 495.498046875 486.504882812 494.365234375 c 0
 484.53125 494.037109375 482.551757812 493.872070312 480.56640625 493.872070312 c 0xd8
 472.296875 493.872070312 463.934570312 496.728515625 455.479492188 502.44140625 c 0
 444.997070312 509.524414062 439.754882812 519.016601562 439.754882812 530.916015625 c 0
 439.754882812 535.44921875 440.038085938 547.349609375 440.604492188 566.616210938 c 0
 440.038085938 567.18359375 437.345703125 569.025390625 432.529296875 572.141601562 c 0
 427.711914062 575.258789062 424.3125 577.526367188 422.329101562 578.942382812 c 0
 420.345703125 580.359375 417.087890625 582.202148438 412.5546875 584.46875 c 0
 408.021484375 586.735351562 403.629882812 588.293945312 399.379882812 589.143554688 c 0
 395.129882812 589.994140625 391.021484375 590.418945312 387.0546875 590.418945312 c 0
 369.48828125 590.418945312 350.646484375 584.751953125 330.529296875 573.418945312 c 0
 310.412109375 562.0859375 291.145507812 545.935546875 272.728515625 524.96875 c 0
 254.311523438 504.001953125 237.594726562 479.918945312 222.577148438 452.71875 c 0
 207.560546875 425.518554688 195.802734375 394.776367188 187.302734375 360.494140625 c 0
 178.802734375 326.2109375 174.552734375 291.78515625 174.552734375 257.21875 c 0
 174.552734375 232.28515625 179.369140625 207.918945312 189.002929688 184.119140625 c 0
 198.635742188 160.318359375 212.377929688 140.91015625 230.227539062 125.893554688 c 0
 248.077148438 110.876953125 267.485351562 103.369140625 288.452148438 103.369140625 c 0
 306.5859375 103.369140625 324.577148438 105.2109375 342.427734375 108.893554688 c 0
 360.27734375 112.577148438 376.002929688 117.393554688 389.602539062 123.34375 c 0
 403.202148438 129.293945312 414.9609375 135.244140625 424.877929688 141.193359375 c 0
 434.793945312 147.143554688 444.002929688 153.518554688 452.502929688 160.318359375 c 0
 459.869140625 165.418945312 466.244140625 169.385742188 471.627929688 172.21875 c 0
 477.010742188 175.051757812 482.818359375 176.46875 489.051757812 176.46875 c 0
 495.28515625 176.46875 501.517578125 174.485351562 507.750976562 170.518554688 c 0
 517.288085938 163.100585938 522.057617188 154.567382812 522.057617188 144.918945312 c 0
 522.057617188 133.931640625 515.87109375 121.498046875 503.500976562 107.618164062 c 0xb8
EndSplineSet
Validated: 524289
EndChar

StartChar: D
Encoding: 68 68 36
Width: 570
VWidth: 901
GlyphClass: 2
Flags: HMW
HStem: 24.8749 73.0983 641.126 17G
VStem: 87.3451 83.8336 91.277 86.7017 447.429 81.5975
LayerCount: 2
Fore
SplineSet
172.028320312 347.025390625 m 0xe8
 172.595703125 322.658203125 173.583984375 285.96484375 175.000976562 236.947265625 c 0
 176.41796875 187.930664062 177.412109375 150.955078125 177.978515625 126.022460938 c 1
 201.211914062 115.822265625 225.577148438 108.59765625 251.077148438 104.34765625 c 0
 276.577148438 100.09765625 305.4765625 97.97265625 337.77734375 97.97265625 c 0
 353.643554688 97.97265625 368.661132812 103.21484375 382.828125 113.697265625 c 0
 396.995117188 124.180664062 408.611328125 137.780273438 417.678710938 154.497070312 c 0
 426.74609375 171.21484375 433.970703125 189.630859375 439.353515625 209.748046875 c 0
 444.736328125 229.865234375 447.428710938 249.557617188 447.428710938 268.82421875 c 0
 447.428710938 375.357421875 403.795898438 456.673828125 316.528320312 512.774414062 c 0
 285.361328125 532.607421875 240.87890625 553.006835938 183.079101562 573.973632812 c 1
 182.228515625 574.82421875 l 1
 181.37890625 574.82421875 l 1
 180.528320312 574.82421875 l 1
 179.678710938 575.673828125 l 1
 178.829101562 575.673828125 l 1
 177.978515625 575.673828125 l 1
 177.978515625 576.524414062 l 1xd8
 177.12890625 576.524414062 l 1
 176.278320312 576.524414062 l 1
 175.428710938 577.374023438 l 1
 174.579101562 577.374023438 l 1
 173.728515625 577.374023438 l 1
 172.87890625 578.223632812 l 1
 172.028320312 578.223632812 l 1
 171.178710938 578.223632812 l 1
 171.178710938 579.07421875 l 1
 170.450195312 547.500976562 170.0859375 515.251953125 170.0859375 482.326171875 c 0
 170.0859375 438.427734375 170.732421875 393.327148438 172.028320312 347.025390625 c 0xe8
338.627929688 24.8740234375 m 0
 310.294921875 24.8740234375 282.670898438 26.150390625 255.75390625 28.7001953125 c 0
 228.836914062 31.25 207.444335938 34.224609375 191.578125 37.625 c 0
 175.7109375 41.025390625 161.828125 44.1416015625 149.927734375 46.974609375 c 0
 138.028320312 49.8076171875 130.944335938 51.224609375 128.677734375 51.224609375 c 0
 117.344726562 51.224609375 107.995117188 55.0498046875 100.627929688 62.7001953125 c 0
 94.2431640625 69.330078125 91.05078125 78.1953125 91.05078125 89.294921875 c 0
 91.05078125 91.001953125 91.1259765625 92.76171875 91.27734375 94.5751953125 c 0xd8
 92.5517578125 114.973632812 93.189453125 147.24609375 93.189453125 191.390625 c 0
 93.189453125 206.107421875 93.119140625 222.143554688 92.9765625 239.5 c 0
 92.41015625 308.916992188 90.9931640625 384.141601562 88.7265625 465.174804688 c 0
 88.1591796875 496.908203125 87.734375 517.733398438 87.451171875 527.650390625 c 0
 87.380859375 530.12890625 87.3447265625 532.952148438 87.3447265625 536.122070312 c 0xe8
 87.3447265625 545.630859375 87.6640625 558.248046875 88.30078125 573.973632812 c 0
 89.1513671875 594.94140625 89.576171875 607.69140625 89.576171875 612.224609375 c 0
 90.1435546875 627.525390625 94.3935546875 639 102.326171875 646.650390625 c 0
 110.258789062 654.299804688 120.17578125 658.125 132.076171875 658.125 c 0
 139.443359375 658.125 148.79296875 657.557617188 160.125976562 656.424804688 c 0
 171.458984375 655.291992188 186.05078125 653.025390625 203.901367188 649.625 c 0
 221.750976562 646.224609375 240.026367188 641.549804688 258.7265625 635.599609375 c 0
 277.42578125 629.650390625 297.684570312 621.291992188 319.500976562 610.525390625 c 0
 341.318359375 599.7578125 362.000976562 587.291015625 381.55078125 573.124023438 c 0
 401.1015625 558.95703125 419.943359375 541.249023438 438.076171875 519.999023438 c 0
 456.208984375 498.749023438 471.934570312 475.515625 485.250976562 450.298828125 c 0
 498.568359375 425.08203125 509.193359375 395.048828125 517.125976562 360.19921875 c 0
 525.059570312 325.348632812 529.026367188 287.807617188 529.026367188 247.57421875 c 0
 529.026367188 227.741210938 526.333984375 207.624023438 520.951171875 187.223632812 c 0
 515.568359375 166.82421875 507.3515625 146.848632812 496.30078125 127.298828125 c 0
 485.250976562 107.749023438 472.359375 90.32421875 457.625976562 75.0244140625 c 0
 442.893554688 59.7236328125 425.185546875 47.541015625 404.501953125 38.4736328125 c 0
 383.819335938 29.4072265625 361.861328125 24.8740234375 338.627929688 24.8740234375 c 0
EndSplineSet
Validated: 524289
EndChar

StartChar: E
Encoding: 69 69 37
Width: 570
VWidth: 901
GlyphClass: 2
Flags: HMW
HStem: 36.477 72.6012 46.0504 77.1225 316.551 73.0991 333.551 68.8491 574.235 70.4154
VStem: 98.0079 82.8725
LayerCount: 2
Fore
SplineSet
474.553710938 46.25 m 0x4c
 472.697265625 46.353515625 470.362304688 46.404296875 467.547851562 46.404296875 c 0
 454.90234375 46.404296875 432.58984375 45.3623046875 400.606445312 43.2763671875 c 0
 361.505859375 40.7265625 318.581054688 38.458984375 271.831054688 36.4765625 c 0
 246.657226562 35.408203125 224.399414062 34.875 205.05859375 34.875 c 0
 188.482421875 34.875 174.047851562 35.267578125 161.755859375 36.0517578125 c 0
 148.723632812 36.619140625 135.690429688 42.994140625 122.657226562 55.1767578125 c 0
 109.624023438 67.3603515625 101.973632812 82.2353515625 99.70703125 99.8017578125 c 0
 98.0068359375 114.53515625 97.1572265625 141.02734375 97.1572265625 179.27734375 c 0
 97.1572265625 217.52734375 97.4404296875 258.184570312 98.0068359375 301.251953125 c 0
 98.1962890625 315.615234375 98.291015625 330.576171875 98.291015625 346.135742188 c 0
 98.291015625 377.233398438 97.9130859375 410.721679688 97.158203125 446.6015625 c 0
 96.5908203125 480.6015625 96.166015625 503.126953125 95.8828125 514.176757812 c 0
 95.8125 516.938476562 95.7763671875 520.028320312 95.7763671875 523.444335938 c 0
 95.7763671875 533.698242188 96.095703125 546.900390625 96.732421875 563.05078125 c 0
 97.5830078125 584.583984375 98.0078125 597.901367188 98.0078125 603.000976562 c 0
 98.5751953125 618.30078125 102.825195312 629.91796875 110.7578125 637.8515625 c 0
 118.69140625 645.784179688 128.607421875 649.750976562 140.5078125 649.750976562 c 0
 141.284179688 649.78125 142.049804688 649.795898438 142.807617188 649.795898438 c 0
 156.42578125 649.795898438 166.9921875 644.963867188 174.5078125 635.30078125 c 1
 206.807617188 639.833984375 244.6328125 642.666992188 287.982421875 643.80078125 c 0
 309.658203125 644.366210938 330.09375 644.649414062 349.2890625 644.649414062 c 0
 368.484375 644.649414062 386.44140625 644.366210938 403.157226562 643.80078125 c 0
 436.58984375 642.666992188 463.223632812 640.966796875 483.056640625 638.700195312 c 0
 496.65625 637 506.005859375 633.600585938 511.106445312 628.5 c 0
 516.206054688 623.400390625 519.0390625 616.317382812 519.606445312 607.25 c 0
 519.606445312 602.150390625 519.0390625 597.333007812 517.90625 592.80078125 c 0
 516.7734375 588.267578125 514.931640625 584.159179688 512.380859375 580.4765625 c 0
 509.831054688 576.79296875 506.005859375 573.818359375 500.90625 571.55078125 c 0
 495.806640625 569.284179688 489.856445312 568.716796875 483.056640625 569.850585938 c 0
 443.80859375 572.7734375 404.330078125 574.234375 364.62109375 574.234375 c 0
 350.4375 574.234375 336.223632812 574.047851562 321.981445312 573.67578125 c 0
 267.864257812 572.258789062 221.5390625 568.716796875 183.005859375 563.049804688 c 1
 180.739257812 504.116210938 179.606445312 446.31640625 179.606445312 389.649414062 c 1xac
 220.973632812 389.649414062 277.356445312 391.774414062 348.755859375 396.024414062 c 0
 420.15625 400.274414062 460.389648438 402.399414062 469.456054688 402.399414062 c 0
 482.489257812 402.399414062 491.697265625 399.56640625 497.080078125 393.899414062 c 0
 502.463867188 388.232421875 505.155273438 380.299804688 505.155273438 370.099609375 c 0
 505.155273438 345.720703125 493.778320312 333.53125 471.025390625 333.53125 c 0
 470.5078125 333.53125 469.985351562 333.538085938 469.456054688 333.55078125 c 0x1c
 459.255859375 333.55078125 415.481445312 330.716796875 338.130859375 325.05078125 c 0
 260.78125 319.383789062 208.223632812 316.55078125 180.456054688 316.55078125 c 1
 180.456054688 304.083007812 180.598632812 287.791015625 180.880859375 267.674804688 c 0
 181.1640625 247.557617188 181.447265625 230.274414062 181.73046875 215.82421875 c 0
 182.013671875 201.374023438 182.296875 186.499023438 182.579101562 171.19921875 c 0
 182.862304688 155.899414062 183.4296875 143.291015625 184.279296875 133.374023438 c 0
 185.129882812 123.458007812 186.404296875 116.515625 188.104492188 112.548828125 c 0
 196.69921875 110.234375 215.37109375 109.077148438 244.119140625 109.077148438 c 0xac
 264.650390625 109.077148438 290.3203125 109.666992188 321.129882812 110.84765625 c 0
 395.079101562 113.680664062 442.538085938 117.364257812 463.504882812 121.897460938 c 0
 471.4375 123.030273438 478.237304688 123.455078125 483.904296875 123.171875 c 0
 489.571289062 122.888671875 494.529296875 121.755859375 498.779296875 119.772460938 c 0
 503.029296875 117.790039062 506.4296875 115.665039062 508.979492188 113.397460938 c 0
 511.529296875 111.130859375 513.512695312 108.15625 514.9296875 104.47265625 c 0
 516.346679688 100.790039062 517.479492188 97.53125 518.329101562 94.6982421875 c 0
 519.1796875 91.865234375 519.604492188 89.0322265625 519.604492188 86.19921875 c 0
 519.604492188 75.4326171875 515.779296875 65.7998046875 508.129882812 57.2998046875 c 0
 501.37890625 49.7998046875 491.872070312 46.0498046875 479.606445312 46.0498046875 c 0
 477.970703125 46.0498046875 476.287109375 46.1162109375 474.553710938 46.25 c 0x4c
EndSplineSet
Validated: 524289
EndChar

StartChar: F
Encoding: 70 70 38
Width: 570
VWidth: 901
GlyphClass: 2
Flags: HMW
HStem: 34.0727 17.85G 326.138 71.9191 580.5 72.0089 642.047 17G
VStem: 99.453 87.7727 101.592 79.6833
LayerCount: 2
Fore
SplineSet
187.225585938 72.3837890625 m 0xe8
 186.092773438 60.484375 180.572265625 50.9931640625 170.655273438 43.91015625 c 0
 161.47265625 37.3515625 151.198242188 34.072265625 139.830078125 34.072265625 c 0
 138.920898438 34.072265625 138.00390625 34.09375 137.080078125 34.1357421875 c 0
 125.74609375 34.1357421875 116.396484375 37.9609375 109.029296875 45.6103515625 c 0
 102.64453125 52.2412109375 99.4521484375 61.1064453125 99.4521484375 72.2060546875 c 0xe8
 99.4521484375 73.9140625 99.52734375 75.673828125 99.6787109375 77.486328125 c 0
 100.954101562 96.185546875 101.590820312 127.713867188 101.590820312 172.071289062 c 0
 101.590820312 186.859375 101.520507812 203.072265625 101.37890625 220.711914062 c 0
 100.811523438 291.26171875 99.39453125 363.936523438 97.1279296875 438.736328125 c 0
 95.9951171875 476.703125 95.427734375 502.203125 95.427734375 515.236328125 c 0
 95.427734375 528.26953125 95.8525390625 545.836914062 96.703125 567.936523438 c 0
 97.552734375 590.036132812 97.9775390625 605.053710938 97.9775390625 612.986328125 c 0
 98.544921875 628.286132812 102.794921875 639.76171875 110.727539062 647.411132812 c 0
 118.661132812 655.061523438 128.578125 658.88671875 140.477539062 658.88671875 c 0
 141.934570312 658.994140625 143.358398438 659.048828125 144.749023438 659.048828125 c 0xd4
 157.95703125 659.048828125 168.150390625 654.177734375 175.328125 644.435546875 c 1
 230.861328125 648.40234375 287.102539062 650.953125 344.052734375 652.0859375 c 0
 358.290039062 652.369140625 371.880859375 652.510742188 384.82421875 652.510742188 c 0
 423.66015625 652.510742188 456.677734375 651.235351562 483.87890625 648.685546875 c 0
 496.912109375 647.552734375 506.120117188 644.294921875 511.502929688 638.911132812 c 0
 516.885742188 633.528320312 519.578125 626.020507812 519.578125 616.387695312 c 0
 519.578125 605.620117188 516.4609375 596.553710938 510.227539062 589.186523438 c 0
 503.995117188 581.819335938 494.078125 578.13671875 480.477539062 578.13671875 c 0
 448.745117188 579.712890625 416.051757812 580.501953125 382.3984375 580.501953125 c 4
 319.298828125 580.501953125 252.825195312 577.729492188 182.977539062 572.186523438 c 5
 182.977539062 562.553710938 182.6953125 547.111328125 182.127929688 525.861328125 c 0
 181.560546875 504.611328125 180.994140625 482.936523438 180.426757812 460.836914062 c 0
 180.143554688 449.786132812 180.000976562 438.666015625 180.000976562 427.473632812 c 0
 180.000976562 416.282226562 180.143554688 405.01953125 180.426757812 393.685546875 c 1
 206.168945312 396.600585938 234.408203125 398.057617188 265.14453125 398.057617188 c 0
 270.268554688 398.057617188 275.462890625 398.017578125 280.7265625 397.935546875 c 0
 317.559570312 397.369140625 350.9921875 395.810546875 381.025390625 393.260742188 c 0
 411.05859375 390.7109375 434.575195312 388.018554688 451.575195312 385.185546875 c 0
 465.17578125 382.918945312 474.525390625 379.235351562 479.625 374.135742188 c 0
 484.725585938 369.036132812 487.55859375 361.953125 488.125 352.885742188 c 0
 488.125 347.786132812 487.700195312 343.110351562 486.850585938 338.860351562 c 0
 486 334.610351562 484.442382812 330.502929688 482.17578125 326.536132812 c 0
 479.908203125 322.568359375 476.225585938 319.59375 471.125 317.610351562 c 0
 466.025390625 315.627929688 459.508789062 314.919921875 451.575195312 315.486328125 c 0
 434.008789062 318.319335938 409.92578125 320.727539062 379.325195312 322.7109375 c 0
 348.725585938 324.693359375 314.30078125 325.827148438 276.05078125 326.110351562 c 0
 273.502929688 326.12890625 270.985351562 326.137695312 268.497070312 326.137695312 c 0
 233.622070312 326.137695312 204.547851562 324.287109375 181.275390625 320.583984375 c 1xe4
 184.67578125 170.416992188 186.658203125 87.68359375 187.225585938 72.3837890625 c 0xe8
EndSplineSet
Validated: 524289
EndChar

StartChar: G
Encoding: 71 71 39
Width: 570
VWidth: 901
GlyphClass: 2
Flags: HMW
HStem: 25.5681 76.5524 288.27 69.5785 598.522 68.8491
VStem: 87.8953 85.0008
LayerCount: 2
Fore
SplineSet
502.69921875 259.370117188 m 0
 501.56640625 247.470703125 498.017578125 233.58984375 492.067382812 217.72265625 c 0
 486.118164062 201.856445312 478.750976562 184.998046875 469.967773438 167.1484375 c 0
 461.184570312 149.297851562 449.8515625 132.014648438 435.96875 115.297851562 c 0
 422.0859375 98.5810546875 407.494140625 83.4228515625 392.193359375 69.8232421875 c 0
 376.893554688 56.22265625 359.043945312 45.314453125 338.643554688 37.09765625 c 0
 319.560546875 29.4111328125 300.724609375 25.568359375 282.137695312 25.568359375 c 0
 280.85546875 25.568359375 279.573242188 25.5859375 278.293945312 25.623046875 c 0
 255.060546875 25.623046875 233.102539062 29.58984375 212.419921875 37.5224609375 c 0
 191.736328125 45.4560546875 174.028320312 55.939453125 159.294921875 68.9716796875 c 0
 144.5625 82.0048828125 131.669921875 97.1630859375 120.620117188 114.446289062 c 0
 109.5703125 131.729492188 101.353515625 150.146484375 95.970703125 169.696289062 c 0
 90.5869140625 189.24609375 87.8955078125 208.938476562 87.8955078125 228.771484375 c 0
 87.8955078125 270.704101562 92.0029296875 311.50390625 100.220703125 351.170898438 c 0
 108.4375 390.837890625 119.912109375 426.538085938 134.645507812 458.271484375 c 0
 149.377929688 490.00390625 166.377929688 519.045898438 185.645507812 545.396484375 c 0
 204.912109375 571.74609375 225.454101562 593.846679688 247.271484375 611.696289062 c 0
 269.087890625 629.545898438 291.330078125 643.288085938 313.997070312 652.920898438 c 0
 336.6640625 662.5546875 358.48046875 667.37109375 379.448242188 667.37109375 c 0
 403.248046875 667.37109375 429.740234375 661.846679688 458.922851562 650.795898438 c 0
 488.10546875 639.74609375 507.23046875 630.25390625 516.297851562 622.321289062 c 0
 524.609375 614.009765625 528.764648438 604.061523438 528.764648438 592.475585938 c 0
 528.764648438 586.68359375 527.7265625 580.482421875 525.6484375 573.87109375 c 0
 523.381835938 566.50390625 517.999023438 561.12109375 509.499023438 557.721679688 c 0
 505.249023438 556.021484375 500.856445312 555.170898438 496.323242188 555.170898438 c 0
 491.791015625 555.170898438 487.115234375 556.021484375 482.299804688 557.721679688 c 0
 478.899414062 558.854492188 471.107421875 563.104492188 458.924804688 570.471679688 c 0
 446.741210938 577.837890625 434.274414062 584.35546875 421.524414062 590.022460938 c 0
 408.774414062 595.689453125 397.016601562 598.522460938 386.249023438 598.522460938 c 0
 368.682617188 598.522460938 349.840820312 592.713867188 329.723632812 581.096679688 c 0
 309.606445312 569.48046875 290.33984375 552.763671875 271.922851562 530.946289062 c 0
 253.505859375 509.12890625 236.7890625 484.337890625 221.772460938 456.5703125 c 0
 206.754882812 428.803710938 194.85546875 397.353515625 186.072265625 362.220703125 c 0
 177.2890625 327.087890625 172.897460938 291.670898438 172.897460938 255.970703125 c 0
 172.897460938 231.037109375 177.713867188 206.670898438 187.346679688 182.870117188 c 0
 196.98046875 159.0703125 210.721679688 139.662109375 228.572265625 124.645507812 c 0
 246.421875 109.62890625 266.114257812 102.120117188 287.647460938 102.120117188 c 0
 301.247070312 102.120117188 315.272460938 106.512695312 329.721679688 115.295898438 c 0
 344.171875 124.078125 357.063476562 135.270507812 368.397460938 148.870117188 c 0
 379.73046875 162.470703125 390.35546875 177.770507812 400.272460938 194.770507812 c 0
 410.188476562 211.770507812 418.688476562 228.203125 425.772460938 244.0703125 c 0
 432.85546875 259.9375 438.379882812 274.670898438 442.346679688 288.270507812 c 1
 406.647460938 286.5703125 371.655273438 283.453125 337.372070312 278.920898438 c 0
 303.088867188 274.387695312 279.430664062 268.4375 266.397460938 261.0703125 c 0
 261.834960938 258.655273438 257.3671875 257.447265625 252.995117188 257.447265625 c 0
 248.13671875 257.447265625 243.396484375 258.938476562 238.7734375 261.920898438 c 0
 229.990234375 267.587890625 225.032226562 275.237304688 223.899414062 284.870117188 c 0
 223.482421875 287.506835938 223.274414062 290.071289062 223.274414062 292.563476562 c 0
 223.274414062 310.424804688 233.965820312 324.577148438 255.348632812 335.020507812 c 0
 271.215820312 342.953125 305.923828125 349.045898438 359.473632812 353.295898438 c 0
 397.723632812 356.331054688 429.974609375 357.849609375 456.2265625 357.849609375 c 0
 466.727539062 357.849609375 476.268554688 357.606445312 484.848632812 357.120117188 c 0
 499.015625 356.553710938 508.791015625 354.145507812 514.173828125 349.895507812 c 0
 519.556640625 345.645507812 523.381835938 338.987304688 525.6484375 329.920898438 c 0
 525.951171875 327.125 526.1015625 324.469726562 526.1015625 321.95703125 c 0
 526.1015625 305.619140625 519.717773438 295.240234375 506.94921875 290.8203125 c 0
 506.94921875 289.120117188 506.241210938 284.587890625 504.82421875 277.220703125 c 0
 503.407226562 269.853515625 502.69921875 263.903320312 502.69921875 259.370117188 c 0
EndSplineSet
Validated: 524289
EndChar

StartChar: H
Encoding: 72 72 40
Width: 570
VWidth: 901
GlyphClass: 2
Flags: HMW
HStem: 34.0619 17.85G 317.174 73.1009 641.938 17G
VStem: 110.853 83.3017 426.282 84.6407
LayerCount: 2
Fore
SplineSet
505.254882812 72.375 m 0
 504.122070312 60.474609375 498.595703125 50.98046875 488.678710938 43.8974609375 c 0
 479.497070312 37.3388671875 469.465820312 34.060546875 458.583007812 34.060546875 c 0
 457.711914062 34.060546875 456.8359375 34.0810546875 455.954101562 34.123046875 c 0
 444.62109375 34.123046875 435.271484375 37.9482421875 427.904296875 45.5986328125 c 0
 421.51953125 52.228515625 418.327148438 61.09375 418.327148438 72.193359375 c 0
 418.327148438 73.900390625 418.40234375 75.66015625 418.553710938 77.4736328125 c 0
 423.705078125 149.076171875 426.280273438 228.640625 426.280273438 316.165039062 c 0
 426.280273438 324.920898438 426.254882812 333.756835938 426.203125 342.672851562 c 1
 416.5703125 342.106445312 381.862304688 337.713867188 322.079101562 329.497070312 c 0
 262.295898438 321.280273438 219.654296875 317.171875 194.154296875 317.171875 c 1
 194.154296875 315.47265625 194.012695312 312.497070312 193.729492188 308.247070312 c 0
 193.446289062 303.997070312 193.303710938 301.022460938 193.303710938 299.322265625 c 0
 191.604492188 271.272460938 190.75390625 238.334960938 190.75390625 200.509765625 c 0
 190.75390625 162.684570312 191.604492188 119.97265625 193.303710938 72.3720703125 c 0
 192.170898438 60.47265625 186.50390625 50.98046875 176.303710938 43.8974609375 c 0
 166.860351562 37.3388671875 156.6875 34.060546875 145.786132812 34.060546875 c 0
 144.9140625 34.060546875 144.036132812 34.0810546875 143.155273438 34.123046875 c 0
 131.822265625 34.123046875 122.471679688 37.9482421875 115.10546875 45.5986328125 c 0
 108.719726562 52.228515625 105.52734375 61.09375 105.52734375 72.1943359375 c 0
 105.52734375 73.9013671875 105.603515625 75.6611328125 105.75390625 77.4736328125 c 0
 106.321289062 85.4072265625 106.74609375 98.1572265625 107.029296875 115.723632812 c 0
 107.3125 133.291015625 107.454101562 156.807617188 107.454101562 186.274414062 c 0
 107.454101562 215.7421875 107.737304688 242.375 108.303710938 266.174804688 c 0
 108.303710938 285.44140625 108.87109375 313.06640625 110.00390625 349.049804688 c 0
 111.137695312 385.033203125 111.845703125 411.666015625 112.127929688 428.94921875 c 0
 112.22265625 434.705078125 112.270507812 441.41796875 112.270507812 449.090820312 c 0
 112.270507812 464.45703125 112.081054688 483.668945312 111.702148438 506.724609375 c 0
 111.135742188 532.224609375 110.852539062 548.516601562 110.852539062 555.599609375 c 0
 110.852539062 562.682617188 111.135742188 572.458007812 111.702148438 584.924804688 c 0
 112.26953125 597.391601562 112.8359375 606.7421875 113.403320312 612.974609375 c 0
 113.970703125 628.274414062 118.078125 639.75 125.728515625 647.399414062 c 0
 133.377929688 655.049804688 143.153320312 658.875 155.053710938 658.875 c 0
 155.977539062 658.916992188 156.889648438 658.9375 157.790039062 658.9375 c 0
 169.041992188 658.9375 178.471679688 655.659179688 186.079101562 649.100585938 c 0
 194.295898438 642.017578125 198.404296875 630.825195312 198.404296875 615.525390625 c 0
 198.404296875 609.858398438 197.696289062 597.67578125 196.279296875 578.975585938 c 0
 194.862304688 560.275390625 194.154296875 542.9921875 194.154296875 527.125976562 c 0
 194.154296875 512.392578125 194.4375 489.8671875 195.00390625 459.55078125 c 0
 195.571289062 429.233398438 195.854492188 406.141601562 195.854492188 390.274414062 c 1
 225.321289062 390.274414062 255.637695312 391.974609375 286.8046875 395.375 c 0
 317.971679688 398.774414062 346.3046875 402.174804688 371.8046875 405.575195312 c 0
 397.3046875 408.974609375 415.155273438 411.2421875 425.35546875 412.375 c 1
 425.35546875 416.341796875 425.072265625 422.149414062 424.504882812 429.799804688 c 0
 423.938476562 437.450195312 423.655273438 443.2578125 423.655273438 447.224609375 c 0
 423.087890625 482.357421875 422.8046875 505.590820312 422.8046875 516.923828125 c 0
 422.8046875 528.256835938 423.23046875 545.82421875 424.080078125 569.624023438 c 0
 424.9296875 593.423828125 425.637695312 607.874023438 426.205078125 612.973632812 c 0
 426.205078125 628.274414062 430.313476562 639.749023438 438.530273438 647.399414062 c 0
 446.747070312 655.048828125 456.521484375 658.874023438 467.85546875 658.874023438 c 0
 468.779296875 658.916015625 469.69140625 658.9375 470.591796875 658.9375 c 0
 481.84375 658.9375 491.2734375 655.658203125 498.880859375 649.099609375 c 0
 507.09765625 642.016601562 511.206054688 630.825195312 511.206054688 615.524414062 c 0
 511.206054688 604.7578125 510.922851562 582.658203125 510.35546875 549.224609375 c 0
 509.7890625 515.791992188 509.364257812 486.466796875 509.081054688 461.25 c 0
 509.024414062 456.209960938 508.99609375 450.721679688 508.99609375 444.787109375 c 0
 508.99609375 421.03125 509.44921875 390.110351562 510.35546875 352.024414062 c 0
 510.733398438 338.805664062 510.921875 324.202148438 510.921875 308.213867188 c 0
 510.921875 276.2265625 510.166992188 238.696289062 508.655273438 195.625 c 0
 506.387695312 131.024414062 505.254882812 89.94140625 505.254882812 72.375 c 0
EndSplineSet
Validated: 524289
EndChar

StartChar: I
Encoding: 73 73 41
Width: 570
VWidth: 902
GlyphClass: 2
Flags: HMW
HStem: 40.327 68.0008 46.786 66.2143 572.426 75.6509 583.477 72.5328
VStem: 261.251 86.6958 268.107 85.5066
LayerCount: 2
Fore
SplineSet
484.794921875 42.875 m 0x68
 470.061523438 45.142578125 445.845703125 46.4189453125 412.12890625 46.7021484375 c 0
 405.389648438 46.7587890625 398.6953125 46.787109375 392.046875 46.787109375 c 0x68
 365.431640625 46.787109375 339.54296875 46.3330078125 314.37890625 45.4267578125 c 0
 282.928710938 44.2939453125 249.211914062 43.1611328125 213.228515625 42.0283203125 c 0
 177.24609375 40.89453125 152.170898438 40.328125 138.00390625 40.328125 c 0
 123.270507812 40.328125 112.50390625 43.1611328125 105.704101562 48.828125 c 0
 95.6767578125 57.1845703125 95.43359375 67.09375 95.43359375 73.447265625 c 0
 95.43359375 82.55859375 98.2890625 90.3603515625 104.002929688 96.853515625 c 0
 110.236328125 103.936523438 120.71875 107.76171875 135.452148438 108.329101562 c 0
 159.251953125 109.461914062 201.185546875 110.87890625 261.251953125 112.579101562 c 1x88
 265.822265625 183.635742188 268.107421875 257.740234375 268.107421875 334.890625 c 0
 268.107421875 362.951171875 267.805664062 391.413085938 267.201171875 420.279296875 c 0
 266.634765625 440.6796875 266.208984375 459.946289062 265.926757812 478.079101562 c 0
 265.643554688 496.212890625 265.500976562 509.24609375 265.500976562 517.178710938 c 0
 265.500976562 525.111328125 266.068359375 537.436523438 267.201171875 554.153320312 c 0
 268.333984375 570.87109375 268.901367188 580.645507812 268.901367188 583.478515625 c 0
 243.1171875 584.044921875 219.883789062 584.328125 199.19921875 584.328125 c 0
 178.515625 584.328125 160.381835938 584.044921875 144.798828125 583.477539062 c 0
 130.631835938 583.477539062 119.723632812 586.594726562 112.07421875 592.828125 c 0
 100.791015625 602.020507812 100.536132812 612.604492188 100.536132812 618.87109375 c 0
 100.536132812 628.120117188 103.814453125 636.155273438 110.373046875 642.9765625 c 0
 117.456054688 650.342773438 128.6484375 654.026367188 143.948242188 654.026367188 c 0
 191.173828125 655.348632812 235.125 656.009765625 275.80078125 656.009765625 c 0x94
 357.145507812 656.009765625 425.39453125 653.365234375 480.547851562 648.077148438 c 0
 505.481445312 645.810546875 518.513671875 634.193359375 519.647460938 613.2265625 c 0
 519.647460938 608.125976562 518.939453125 603.16796875 517.522460938 598.3515625 c 0
 516.10546875 593.534179688 513.697265625 588.859375 510.296875 584.326171875 c 0
 506.897460938 579.79296875 502.364257812 576.250976562 496.697265625 573.701171875 c 0
 491.030273438 571.151367188 485.080078125 570.7265625 478.846679688 572.42578125 c 0
 461.846679688 575.258789062 420.197265625 578.375976562 353.897460938 581.776367188 c 1
 353.897460938 577.243164062 353.614257812 564.493164062 353.046875 543.526367188 c 0
 352.48046875 522.559570312 352.197265625 505.842773438 352.197265625 493.375 c 2
 352.197265625 439.825195312 l 2
 352.197265625 416.592773438 352.48046875 393.642578125 353.046875 370.975585938 c 0
 353.424804688 357.568359375 353.61328125 343.05859375 353.61328125 327.448242188 c 0x24
 353.61328125 296.215820312 352.857421875 260.575195312 351.346679688 220.525390625 c 0
 349.079101562 160.458007812 347.946289062 124.758789062 347.946289062 113.42578125 c 1
 372.313476562 113.42578125 400.646484375 113.283203125 432.946289062 113 c 0
 465.24609375 112.717773438 482.529296875 112.575195312 484.795898438 112.575195312 c 0
 497.829101562 112.575195312 507.037109375 109.600585938 512.420898438 103.650390625 c 0
 517.803710938 97.7001953125 520.495117188 89.908203125 520.495117188 80.275390625 c 0
 520.495117188 75.17578125 520.212890625 70.5 519.645507812 66.25 c 0
 519.078125 62 517.37890625 57.75 514.545898438 53.5 c 0
 511.712890625 49.25 507.887695312 46.1337890625 503.0703125 44.150390625 c 0
 498.25390625 42.1669921875 492.161132812 41.7421875 484.794921875 42.875 c 0x68
EndSplineSet
Validated: 524289
EndChar

StartChar: J
Encoding: 74 74 42
Width: 570
VWidth: 900
GlyphClass: 2
Flags: HMW
HStem: 20.8991 85.8509 581.9 70.5491
VStem: 92.9286 75.65 316.478 79.8975
LayerCount: 2
Fore
SplineSet
393.825195312 233.399414062 m 0
 389.291992188 182.399414062 382.493164062 141.032226562 373.42578125 109.298828125 c 0
 364.359375 77.56640625 353.309570312 54.8994140625 340.276367188 41.298828125 c 0
 327.243164062 27.69921875 311.943359375 20.8994140625 294.375976562 20.8994140625 c 0
 275.109375 20.8994140625 256.125976562 24.298828125 237.42578125 31.0986328125 c 0
 218.7265625 37.8994140625 202.434570312 46.9658203125 188.55078125 58.298828125 c 0
 174.66796875 69.6318359375 161.776367188 81.95703125 149.875976562 95.2744140625 c 0
 137.9765625 108.590820312 128.059570312 121.908203125 120.125976562 135.224609375 c 0
 112.193359375 148.541992188 105.959960938 160.44140625 101.426757812 170.924804688 c 0
 96.8935546875 181.408203125 94.34375 189.765625 93.77734375 195.999023438 c 0
 92.6435546875 201.098632812 92.3603515625 207.19140625 92.927734375 214.274414062 c 0
 93.4951171875 221.357421875 94.76953125 228.015625 96.7529296875 234.248046875 c 0
 98.7353515625 240.481445312 102.135742188 246.005859375 106.953125 250.823242188 c 0
 111.76953125 255.640625 118.427734375 258.615234375 126.927734375 259.748046875 c 0
 129.950195312 260.297851562 132.831054688 260.572265625 135.5703125 260.572265625 c 0
 144.129882812 260.572265625 151.307617188 257.889648438 157.102539062 252.524414062 c 0
 164.752929688 245.44140625 168.578125 236.515625 168.578125 225.749023438 c 0
 168.578125 219.515625 169.7109375 212.0078125 171.977539062 203.224609375 c 0
 174.245117188 194.44140625 178.069335938 184.2421875 183.453125 172.625 c 0
 188.8359375 161.0078125 195.494140625 150.3828125 203.426757812 140.75 c 0
 211.360351562 131.1171875 222.551757812 123.041992188 237.001953125 116.524414062 c 0
 251.452148438 110.0078125 266.893554688 106.75 283.327148438 106.75 c 0
 303.7265625 106.75 315.34375 156.049804688 318.176757812 254.649414062 c 0
 318.176757812 267.1171875 317.610351562 307.06640625 316.4765625 374.5 c 0
 315.911132812 408.215820312 315.627929688 442.286132812 315.627929688 476.711914062 c 0
 315.627929688 511.13671875 315.911132812 545.916015625 316.4765625 581.049804688 c 1
 278.397460938 582.0703125 242.969726562 582.580078125 210.194335938 582.580078125 c 0
 188.34375 582.580078125 167.670898438 582.353515625 148.177734375 581.899414062 c 0
 134.010742188 581.899414062 123.244140625 585.016601562 115.876953125 591.25 c 0
 105.057617188 600.404296875 104.763671875 610.931640625 104.763671875 617.293945312 c 0
 104.763671875 626.54296875 108.04296875 634.578125 114.6015625 641.399414062 c 0
 121.684570312 648.765625 132.591796875 652.44921875 147.325195312 652.44921875 c 0
 194.55078125 653.771484375 238.470703125 654.432617188 279.083984375 654.432617188 c 0
 360.302734375 654.432617188 428.299804688 651.788085938 483.076171875 646.5 c 0
 508.008789062 644.233398438 521.326171875 632.616210938 523.026367188 611.649414062 c 0
 523.026367188 606.548828125 522.17578125 601.590820312 520.4765625 596.774414062 c 0
 518.776367188 591.95703125 516.508789062 587.282226562 513.67578125 582.749023438 c 0
 510.842773438 578.215820312 506.592773438 574.673828125 500.92578125 572.124023438 c 0
 495.258789062 569.57421875 488.7421875 569.149414062 481.375 570.848632812 c 0
 461.541992188 573.681640625 431.225585938 576.232421875 390.424804688 578.499023438 c 1
 390.424804688 562.06640625 390.9921875 537.1328125 392.125 503.700195312 c 0
 393.258789062 470.266601562 394.25 439.80859375 395.100585938 412.326171875 c 0
 395.950195312 384.842773438 396.375 354.2421875 396.375 320.525390625 c 0
 396.375 286.80859375 395.525390625 257.766601562 393.825195312 233.399414062 c 0
EndSplineSet
Validated: 524289
EndChar

StartChar: K
Encoding: 75 75 43
Width: 570
VWidth: 901
GlyphClass: 2
Flags: HMW
HStem: 34.0608 17.85G 641.936 17G
VStem: 101.225 80.9749
LayerCount: 2
Fore
SplineSet
189 72.375 m 0
 187.8671875 60.474609375 182.346679688 50.9814453125 172.4296875 43.8984375 c 0
 163.247070312 37.3408203125 152.97265625 34.0615234375 141.604492188 34.0615234375 c 0
 140.694335938 34.0615234375 139.77734375 34.08203125 138.853515625 34.125 c 0
 127.520507812 34.125 118.170898438 37.94921875 110.803710938 45.599609375 c 0
 104.418945312 52.23046875 101.2265625 61.095703125 101.2265625 72.1953125 c 0
 101.2265625 73.9033203125 101.301757812 75.6630859375 101.453125 77.4755859375 c 0
 102.727539062 96.1748046875 103.365234375 127.703125 103.365234375 172.059570312 c 0
 103.365234375 186.84765625 103.294921875 203.060546875 103.15234375 220.69921875 c 0
 102.5859375 291.25 101.168945312 363.924804688 98.90234375 438.724609375 c 0
 97.7685546875 474.991210938 97.2021484375 499.5 97.2021484375 512.25 c 0
 97.2021484375 525 97.626953125 543.416992188 98.4765625 567.5 c 0
 99.3271484375 591.583007812 99.751953125 606.741210938 99.751953125 612.973632812 c 0
 100.318359375 628.2734375 104.568359375 639.749023438 112.501953125 647.3984375 c 0
 120.434570312 655.048828125 130.3515625 658.874023438 142.251953125 658.874023438 c 0
 143.17578125 658.916015625 144.087890625 658.936523438 144.98828125 658.936523438 c 0
 156.240234375 658.936523438 165.669921875 655.658203125 173.27734375 649.099609375 c 0
 181.495117188 642.016601562 185.602539062 630.82421875 185.602539062 615.524414062 c 0
 185.602539062 601.924804688 185.036132812 572.174804688 183.90234375 526.274414062 c 0
 182.76953125 480.375 182.203125 442.408203125 182.203125 412.375 c 1
 202.602539062 432.208007812 233.203125 462.241210938 274.002929688 502.473632812 c 0
 314.802734375 542.70703125 347.385742188 574.58203125 371.752929688 598.098632812 c 0
 396.120117188 621.616210938 411.703125 636.208007812 418.502929688 641.875 c 0
 426.435546875 649.241210938 434.0859375 654.19921875 441.453125 656.75 c 0
 448.819335938 659.299804688 455.194335938 659.866210938 460.578125 658.44921875 c 0
 465.9609375 657.033203125 470.918945312 654.057617188 475.452148438 649.524414062 c 0
 481.8359375 642.649414062 485.028320312 635.029296875 485.028320312 626.6640625 c 0
 485.028320312 615.724609375 479.569335938 603.51171875 468.651367188 590.024414062 c 0
 460.151367188 579.82421875 430.118164062 548.799804688 378.55078125 496.94921875 c 0
 326.984375 445.099609375 281.083984375 399.908203125 240.850585938 361.375 c 1
 260.118164062 340.974609375 292.842773438 309.099609375 339.026367188 265.75 c 0
 385.208984375 222.399414062 425.30078125 184.291992188 459.30078125 151.424804688 c 0
 493.30078125 118.557617188 512.284179688 97.875 516.250976562 89.375 c 0
 517.951171875 83.9912109375 518.80078125 78.890625 518.80078125 74.07421875 c 0
 518.80078125 69.2568359375 517.951171875 64.7236328125 516.250976562 60.4736328125 c 0
 512.850585938 51.9736328125 507.750976562 45.45703125 500.951171875 40.923828125 c 0
 493.916992188 36.166015625 486.920898438 33.787109375 479.962890625 33.787109375 c 0
 467.860351562 33.787109375 455.874023438 40.982421875 444 55.375 c 0
 438.333007812 62.7412109375 418.075195312 82.2919921875 383.225585938 114.024414062 c 0
 348.375 145.7578125 310.833007812 180.75 270.600585938 219 c 0
 230.3671875 257.25 200.900390625 287.708007812 182.200195312 310.375 c 1
 182.200195312 293.375 l 2
 182.200195312 283.741210938 184.466796875 210.07421875 189 72.375 c 0
EndSplineSet
Validated: 524289
EndChar

StartChar: L
Encoding: 76 76 44
Width: 570
VWidth: 901
GlyphClass: 2
Flags: HMW
HStem: 39.0756 73.8785
VStem: 97.1782 87.5517 122.508 77.9468
LayerCount: 2
Fore
SplineSet
482.229492188 60.330078125 m 0xc0
 443.697265625 52.962890625 385.329101562 47.5751953125 307.12890625 44.1748046875 c 0
 228.928710938 40.7744140625 171.412109375 39.0751953125 134.579101562 39.0751953125 c 0
 123.24609375 39.0751953125 113.895507812 42.8994140625 106.529296875 50.5498046875 c 0
 100.14453125 57.1806640625 96.951171875 66.0458984375 96.951171875 77.1455078125 c 0
 96.951171875 78.8525390625 97.02734375 80.6123046875 97.177734375 82.42578125 c 0xc0
 97.177734375 86.958984375 100.436523438 119.400390625 106.953125 179.750976562 c 0
 113.469726562 240.100585938 118.145507812 298.325195312 120.978515625 354.42578125 c 0
 121.998046875 369.725585938 122.5078125 392.674804688 122.5078125 423.274414062 c 0
 122.5078125 443.673828125 122.28125 467.474609375 121.828125 494.67578125 c 0
 120.6953125 562.67578125 120.127929688 599.508789062 120.127929688 605.17578125 c 0
 120.6953125 620.475585938 125.086914062 632.092773438 133.303710938 640.025390625 c 0
 141.520507812 647.958984375 151.295898438 651.92578125 162.62890625 651.92578125 c 0
 163.552734375 651.967773438 164.46484375 651.98828125 165.366210938 651.98828125 c 0
 176.6171875 651.98828125 186.046875 648.709960938 193.655273438 642.151367188 c 0
 201.872070312 635.068359375 205.979492188 623.875976562 205.979492188 608.576171875 c 0
 205.979492188 592.143554688 205.413085938 569.760742188 204.280273438 541.427734375 c 0
 203.146484375 513.09375 201.872070312 477.39453125 200.455078125 434.327148438 c 0xa0
 199.038085938 391.260742188 197.762695312 353.860351562 196.629882812 322.126953125 c 0
 196.0625 298.327148438 193.9375 263.760742188 190.254882812 218.427734375 c 0
 186.572265625 173.09375 184.729492188 137.9609375 184.729492188 113.028320312 c 1
 188.870117188 112.979492188 193.069335938 112.954101562 197.328125 112.954101562 c 0
 242.025390625 112.954101562 293.217773438 115.670898438 350.905273438 121.103515625 c 0
 414.087890625 127.052734375 456.163085938 132.861328125 477.129882812 138.528320312 c 0
 483.9296875 140.228515625 490.021484375 139.9453125 495.405273438 137.677734375 c 0
 500.788085938 135.411132812 505.038085938 132.010742188 508.155273438 127.478515625 c 0
 511.271484375 122.9453125 513.822265625 117.987304688 515.8046875 112.603515625 c 0
 517.788085938 107.220703125 518.780273438 102.262695312 518.780273438 97.7294921875 c 0
 518.780273438 87.529296875 516.229492188 79.3125 511.129882812 73.080078125 c 0
 506.030273438 66.8466796875 496.396484375 62.5966796875 482.229492188 60.330078125 c 0xc0
EndSplineSet
Validated: 524289
EndChar

StartChar: M
Encoding: 77 77 45
Width: 570
VWidth: 902
GlyphClass: 2
Flags: HMW
HStem: 43.5819 17.85G<112.501 118.168>
VStem: 81.8994 70.5508 262.101 89.2492
LayerCount: 2
Fore
SplineSet
152.450195312 102.2265625 m 0
 152.48828125 101.018554688 152.508789062 99.826171875 152.508789062 98.6513671875 c 0
 152.508789062 82.2041015625 148.8046875 69.0908203125 141.400390625 59.306640625 c 0
 133.466796875 48.82421875 123.833984375 43.58203125 112.500976562 43.58203125 c 0
 92.1005859375 44.1484375 81.9013671875 65.1162109375 81.9013671875 106.482421875 c 0
 81.9013671875 113.282226562 82.7509765625 124.899414062 84.451171875 141.333007812 c 0
 86.1513671875 157.765625 88.2763671875 179.298828125 90.826171875 205.931640625 c 0
 93.3759765625 232.564453125 95.5009765625 255.797851562 97.201171875 275.630859375 c 0
 97.767578125 282.430664062 98.6181640625 292.9140625 99.7509765625 307.081054688 c 0
 103.151367188 349.013671875 105.842773438 381.739257812 107.826171875 405.255859375 c 0
 109.809570312 428.7734375 112.784179688 458.09765625 116.750976562 493.231445312 c 0
 120.717773438 528.364257812 124.259765625 555.989257812 127.376953125 576.106445312 c 0
 130.494140625 596.22265625 134.318359375 610.248046875 138.8515625 618.180664062 c 0
 144.518554688 630.081054688 153.161132812 638.72265625 164.77734375 644.106445312 c 0
 174.374023438 648.552734375 183.680664062 650.776367188 192.698242188 650.776367188 c 0
 194.595703125 650.776367188 196.48046875 650.677734375 198.352539062 650.481445312 c 0
 223.852539062 650.481445312 239.719726562 639.998046875 245.953125 619.03125 c 0
 252.752929688 594.09765625 260.120117188 552.873046875 268.052734375 495.356445312 c 0
 275.985351562 437.838867188 284.060546875 372.247070312 292.27734375 298.580078125 c 0
 300.495117188 224.913085938 306.302734375 176.180664062 309.703125 152.379882812 c 1
 315.370117188 232.280273438 321.88671875 304.247070312 329.25390625 368.280273438 c 0
 334.353515625 415.313476562 341.295898438 462.629882812 350.078125 510.23046875 c 0
 358.861328125 557.830078125 366.653320312 594.096679688 373.453125 619.030273438 c 0
 375.720703125 627.530273438 380.395507812 634.471679688 387.478515625 639.85546875 c 0
 394.561523438 645.23828125 402.069335938 648.49609375 410.002929688 649.62890625 c 0
 415.290039062 650.384765625 420.200195312 650.762695312 424.732421875 650.762695312 c 0
 427 650.762695312 429.173828125 650.66796875 431.251953125 650.478515625 c 2
 434.65234375 650.478515625 l 1
 446.126953125 650.478515625 l 2
 449.244140625 650.478515625 453.494140625 649.770507812 458.876953125 648.353515625 c 0
 464.259765625 646.936523438 468.65234375 645.094726562 472.051757812 642.828125 c 0
 475.452148438 640.560546875 478.568359375 637.018554688 481.40234375 632.202148438 c 0
 484.235351562 627.384765625 486.217773438 621.577148438 487.350585938 614.77734375 c 0
 489.618164062 597.77734375 496.134765625 514.759765625 506.90234375 365.7265625 c 0
 517.668945312 216.693359375 525.6015625 132.543945312 530.702148438 113.27734375 c 0
 532.96875 103.5625 534.1015625 94.8662109375 534.1015625 87.1865234375 c 0
 534.1015625 67.9892578125 527.018554688 55.15234375 512.8515625 48.67578125 c 0
 507.9296875 46.6044921875 503.006835938 45.568359375 498.084960938 45.568359375 c 2
 480.549804688 49.9521484375 l 2
 469.783203125 55.3349609375 461.850585938 67.0927734375 456.75 85.2255859375 c 0
 444.850585938 123.193359375 434.3671875 288.66015625 425.299804688 581.626953125 c 1
 408.8671875 499.459960938 398.100585938 424.66015625 393 357.2265625 c 0
 387.900390625 292.626953125 380.958007812 231.28515625 372.174804688 173.202148438 c 0
 363.392578125 115.119140625 356.450195312 79.560546875 351.350585938 66.52734375 c 0
 345.1171875 52.927734375 329.25 46.1279296875 303.75 46.1279296875 c 0
 302.333007812 46.0576171875 300.94921875 46.021484375 299.598632812 46.021484375 c 0
 290.147460938 46.021484375 282.323242188 47.7568359375 276.125976562 51.2275390625 c 0
 269.04296875 55.1943359375 264.368164062 60.861328125 262.100585938 68.228515625 c 0
 255.30078125 95.4287109375 243.967773438 157.903320312 228.100585938 255.653320312 c 0
 212.234375 353.403320312 197.784179688 447.045898438 184.750976562 536.578125 c 1
 183.05078125 518.4453125 181.493164062 498.045898438 180.076171875 475.37890625 c 0
 178.659179688 452.711914062 177.383789062 433.01953125 176.250976562 416.302734375 c 0
 175.118164062 399.5859375 173.276367188 374.793945312 170.725585938 341.926757812 c 0
 168.17578125 309.059570312 166.333984375 284.126953125 165.201171875 267.126953125 c 0
 164.068359375 243.327148438 162.368164062 218.818359375 160.100585938 193.6015625 c 0
 157.833984375 168.384765625 155.9921875 148.551757812 154.575195312 134.1015625 c 0
 153.158203125 119.65234375 152.450195312 109.02734375 152.450195312 102.2265625 c 0
EndSplineSet
Validated: 524289
EndChar

StartChar: N
Encoding: 78 78 46
Width: 570
VWidth: 901
GlyphClass: 2
Flags: HMW
HStem: 39.8158 17.85G
VStem: 98.9145 70.3357 438.421 78.6919 446.565 70.703
LayerCount: 2
Fore
SplineSet
454.213867188 39.916015625 m 0xd0
 452.9453125 39.849609375 451.703125 39.8154296875 450.485351562 39.8154296875 c 0
 441.369140625 39.8154296875 433.684570312 41.6884765625 427.436523438 45.4384765625 c 0
 420.353515625 49.6884765625 415.395507812 55.49609375 412.561523438 62.86328125 c 0
 407.461914062 74.1962890625 393.862304688 99.1298828125 371.76171875 137.662109375 c 0
 349.662109375 176.1953125 326.853515625 216.287109375 303.336914062 257.9375 c 0
 279.8203125 299.587890625 255.169921875 346.1953125 229.38671875 397.762695312 c 0
 203.603515625 449.329101562 184.196289062 493.24609375 171.163085938 529.513671875 c 1
 173.8828125 480.099609375 175.2421875 433.40625 175.2421875 389.432617188 c 0
 175.2421875 378.439453125 175.158203125 367.616210938 174.98828125 356.962890625 c 0
 174.137695312 303.6953125 172.86328125 249.4375 171.163085938 194.1875 c 0
 169.887695312 152.751953125 169.25 123.506835938 169.25 106.454101562 c 0
 169.25 99.34765625 169.51953125 90.0654296875 169.51953125 89.8994140625 c 0
 169.51953125 73.5751953125 165.817382812 61.4462890625 158.413085938 53.513671875 c 0
 150.9765625 45.544921875 142.044921875 41.560546875 131.620117188 41.560546875 c 0
 130.924804688 41.560546875 130.22265625 41.578125 129.513671875 41.61328125 c 0
 117.61328125 41.61328125 109.5390625 46.4306640625 105.2890625 56.0634765625 c 0
 101.0390625 65.6962890625 98.9140625 79.86328125 98.9140625 98.5634765625 c 0
 98.9140625 109.896484375 99.763671875 153.813476562 101.463867188 230.313476562 c 0
 103.1640625 306.813476562 104.296875 373.680664062 104.86328125 430.913085938 c 0
 105.005859375 445.22265625 105.076171875 459.390625 105.076171875 473.41796875 c 0
 105.076171875 515.491210938 104.438476562 556.290039062 103.1640625 595.814453125 c 0
 103.08203125 597.43359375 103.041992188 599.018554688 103.041992188 600.568359375 c 0
 103.041992188 609.865234375 104.499023438 617.913085938 107.4140625 624.712890625 c 0
 110.813476562 632.645507812 115.630859375 638.454101562 121.86328125 642.13671875 c 0
 128.096679688 645.819335938 134.61328125 648.370117188 141.4140625 649.787109375 c 0
 148.213867188 651.204101562 155.581054688 651.345703125 163.513671875 650.212890625 c 0
 187.880859375 650.212890625 203.180664062 639.729492188 209.4140625 618.762695312 c 0
 221.313476562 581.362304688 254.180664062 512.512695312 308.013671875 412.212890625 c 0
 361.846679688 311.912109375 407.463867188 230.879882812 444.86328125 169.112304688 c 1
 446.375 204.627929688 447.130859375 250.913085938 447.130859375 307.967773438 c 0
 447.130859375 336.484375 446.942382812 367.69140625 446.564453125 401.588867188 c 0xd0
 445.431640625 503.305664062 442.881835938 570.313476562 438.9140625 602.61328125 c 0
 438.5859375 605.245117188 438.421875 607.797851562 438.421875 610.270507812 c 0
 438.421875 620.575195312 441.27734375 629.498046875 446.990234375 637.038085938 c 0
 454.073242188 646.388671875 463.28125 651.063476562 474.614257812 651.063476562 c 0
 480.84765625 651.063476562 486.23046875 650.35546875 490.763671875 648.938476562 c 0
 495.296875 647.521484375 498.838867188 645.821289062 501.388671875 643.838867188 c 0
 503.938476562 641.85546875 506.063476562 638.59765625 507.763671875 634.064453125 c 0
 509.463867188 629.53125 510.73828125 625.422851562 511.588867188 621.740234375 c 0
 512.438476562 618.056640625 513.430664062 612.249023438 514.563476562 604.315429688 c 0
 515.696289062 595.249023438 516.546875 549.774414062 517.11328125 467.890625 c 0xe0
 517.216796875 453 517.267578125 438.01171875 517.267578125 422.923828125 c 0
 517.267578125 355.045898438 516.224609375 285.176757812 514.138671875 213.315429688 c 0
 511.588867188 125.482421875 507.196289062 74.765625 500.963867188 61.166015625 c 0
 495.296875 46.9990234375 479.713867188 39.916015625 454.213867188 39.916015625 c 0xd0
EndSplineSet
Validated: 524289
EndChar

StartChar: O
Encoding: 79 79 47
Width: 570
VWidth: 902
GlyphClass: 2
Flags: HMW
HStem: 31.6498 71.3983 593.497 68.8509
VStem: 99.7136 81.9277 434.189 81.6547
LayerCount: 2
Fore
SplineSet
279.9140625 31.6494140625 m 0
 244.78125 32.216796875 213.331054688 42.8388671875 185.564453125 63.521484375 c 0
 157.797851562 84.2041015625 136.405273438 111.971679688 121.388671875 146.821289062 c 0
 106.91796875 180.404296875 99.6826171875 217.010742188 99.6826171875 256.64453125 c 0
 99.6826171875 258.141601562 99.693359375 259.642578125 99.7138671875 261.147460938 c 2
 99.7138671875 275.59765625 l 2
 99.7138671875 301.09765625 99.85546875 321.497070312 100.138671875 336.796875 c 0
 100.421875 352.09765625 101.5546875 372.497070312 103.538085938 397.997070312 c 0
 105.520507812 423.497070312 108.920898438 447.72265625 113.73828125 470.671875 c 0
 118.5546875 493.622070312 124.646484375 515.296875 132.013671875 535.697265625 c 0
 146.180664062 572.530273438 171.397460938 602.84765625 207.6640625 626.647460938 c 0
 243.931640625 650.447265625 284.1640625 662.34765625 328.364257812 662.34765625 c 0
 351.03125 662.34765625 372.848632812 657.955078125 393.815429688 649.171875 c 0
 414.782226562 640.389648438 433.482421875 627.78125 449.915039062 611.34765625 c 0
 466.348632812 594.915039062 480.08984375 573.948242188 491.140625 548.448242188 c 0
 502.190429688 522.948242188 509.131835938 494.331054688 511.96484375 462.59765625 c 0
 514.232421875 434.264648438 515.506835938 403.948242188 515.790039062 371.6484375 c 0
 515.826171875 367.614257812 515.84375 363.573242188 515.84375 359.525390625 c 0
 515.84375 331.16796875 514.975585938 302.483398438 513.240234375 273.473632812 c 0
 511.256835938 240.32421875 507.432617188 214.116210938 501.765625 194.848632812 c 0
 494.3984375 168.215820312 485.331054688 145.265625 474.564453125 125.999023438 c 0
 463.797851562 106.732421875 451.897460938 91.0068359375 438.864257812 78.82421875 c 0
 425.831054688 66.640625 410.814453125 57.0078125 393.814453125 49.9248046875 c 0
 376.814453125 42.841796875 359.389648438 38.0244140625 341.5390625 35.474609375 c 0
 323.689453125 32.9248046875 303.147460938 31.6494140625 279.9140625 31.6494140625 c 0
279.9140625 103.046875 m 0
 295.21484375 103.046875 309.662109375 104.889648438 323.26171875 108.572265625 c 0
 336.862304688 112.254882812 350.178710938 118.205078125 363.211914062 126.421875 c 0
 376.245117188 134.639648438 387.862304688 145.546875 398.061523438 159.147460938 c 0
 408.26171875 172.747070312 416.1953125 188.614257812 421.862304688 206.747070312 c 0
 424.12890625 214.114257812 426.395507812 231.114257812 428.663085938 257.747070312 c 0
 430.9296875 284.379882812 432.771484375 316.11328125 434.188476562 352.946289062 c 0
 434.60546875 363.780273438 434.813476562 374.564453125 434.813476562 385.299804688 c 0
 434.813476562 411.064453125 433.61328125 436.546875 431.213867188 461.74609375 c 0
 427.813476562 499.146484375 415.771484375 530.454101562 395.088867188 555.671875 c 0
 374.405273438 580.888671875 349.047851562 593.49609375 319.014648438 593.49609375 c 0
 288.4140625 593.49609375 262.772460938 582.3046875 242.08984375 559.921875 c 0
 221.40625 537.538085938 206.53125 506.23046875 197.46484375 465.997070312 c 0
 186.916015625 420.446289062 181.641601562 367.796875 181.641601562 308.045898438 c 0
 181.641601562 297.180664062 181.815429688 286.081054688 182.1640625 274.74609375 c 0
 182.731445312 256.61328125 184.2890625 239.896484375 186.83984375 224.596679688 c 0
 189.389648438 209.296875 192.931640625 193.99609375 197.46484375 178.696289062 c 0
 201.997070312 163.396484375 207.947265625 150.221679688 215.314453125 139.171875 c 0
 222.681640625 128.12109375 231.889648438 119.338867188 242.939453125 112.821289062 c 0
 253.989257812 106.3046875 266.314453125 103.046875 279.9140625 103.046875 c 0
EndSplineSet
Validated: 524289
EndChar

StartChar: P
Encoding: 80 80 48
Width: 570
VWidth: 901
GlyphClass: 2
Flags: HMW
HStem: 35.679 17.85G 247.395 69.6468 587.397 68.8483
VStem: 116.457 80.1861 120.772 86.9669 430.39 78.2025
LayerCount: 2
Fore
SplineSet
207.73828125 70.3876953125 m 0xec
 207.73828125 59.40625 203.047851562 50.8388671875 193.666992188 44.673828125 c 0
 184.543945312 38.677734375 174.340820312 35.6806640625 163.059570312 35.6806640625 c 0
 162.078125 35.6806640625 161.088867188 35.703125 160.090820312 35.7490234375 c 0
 148.19140625 35.7490234375 138.416015625 39.291015625 130.765625 46.3740234375 c 0
 124.102539062 52.54296875 120.771484375 61.18359375 120.771484375 72.296875 c 0xec
 120.771484375 73.943359375 120.844726562 75.642578125 120.991210938 77.3974609375 c 0
 121.557617188 86.46484375 121.840820312 99.9228515625 121.840820312 117.772460938 c 0
 121.840820312 135.623046875 121.69921875 157.72265625 121.416015625 184.073242188 c 0
 121.1328125 210.422851562 120.708007812 235.922851562 120.140625 260.573242188 c 0
 119.57421875 285.22265625 118.866210938 315.397460938 118.015625 351.09765625 c 0
 117.166015625 386.797851562 116.741210938 416.547851562 116.741210938 440.34765625 c 0
 116.551757812 452.630859375 116.45703125 466.239257812 116.45703125 481.168945312 c 0xf4
 116.45703125 511.008789062 116.834960938 546.134765625 117.58984375 586.546875 c 0
 114.756835938 589.379882812 113.057617188 590.796875 112.490234375 590.796875 c 0
 107.95703125 597.596679688 106.399414062 604.5390625 107.81640625 611.622070312 c 0
 109.233398438 618.705078125 112.349609375 625.080078125 117.166992188 630.747070312 c 0
 121.983398438 636.4140625 127.225585938 639.813476562 132.892578125 640.947265625 c 0
 153.29296875 645.48046875 183.184570312 649.163085938 222.567382812 651.99609375 c 0
 261.951171875 654.829101562 289.576171875 656.24609375 305.442382812 656.24609375 c 0
 343.975585938 656.24609375 378.400390625 649.446289062 408.717773438 635.845703125 c 0
 439.034179688 622.24609375 463.118164062 601.704101562 480.967773438 574.220703125 c 0
 498.817382812 546.73828125 508.025390625 514.012695312 508.592773438 476.045898438 c 0
 508.592773438 444.313476562 503.350585938 414.420898438 492.868164062 386.37109375 c 0
 482.384765625 358.321289062 468.217773438 334.095703125 450.368164062 313.696289062 c 0
 432.517578125 293.295898438 410.559570312 277.146484375 384.493164062 265.24609375 c 0
 358.42578125 253.345703125 330.092773438 247.396484375 299.493164062 247.396484375 c 0
 255.29296875 247.396484375 220.442382812 250.512695312 194.942382812 256.74609375 c 1
 196.076171875 232.946289062 197.493164062 210.137695312 199.192382812 188.321289062 c 0
 200.892578125 166.50390625 202.592773438 143.836914062 204.29296875 120.3203125 c 0
 206.217773438 93.6875 207.73828125 72.6494140625 207.73828125 70.3876953125 c 0xec
305.44140625 587.399414062 m 0
 285.608398438 587.399414062 249.91015625 585.130859375 198.34375 580.59765625 c 1
 198.34375 569.264648438 197.776367188 548.297851562 196.643554688 517.698242188 c 0xf4
 195.510742188 487.09765625 194.66015625 455.647460938 194.09375 423.34765625 c 0
 193.526367188 391.047851562 193.243164062 359.59765625 193.243164062 328.998046875 c 1
 215.024414062 321.029296875 240.291015625 317.044921875 269.043945312 317.044921875 c 0
 270.9609375 317.044921875 272.89453125 317.0625 274.84375 317.09765625 c 0
 291.276367188 317.09765625 306.151367188 318.23046875 319.46875 320.498046875 c 0
 332.78515625 322.764648438 344.40234375 325.881835938 354.319335938 329.848632812 c 0
 364.236328125 333.815429688 373.161132812 339.057617188 381.094726562 345.57421875 c 0
 389.02734375 352.091796875 395.685546875 358.608398438 401.068359375 365.125 c 0
 406.451171875 371.642578125 410.984375 379.291992188 414.66796875 388.075195312 c 0
 418.350585938 396.858398438 421.18359375 404.791015625 423.166992188 411.874023438 c 0
 425.150390625 418.958007812 426.708007812 427.174804688 427.840820312 436.524414062 c 0
 428.973632812 445.874023438 429.682617188 453.524414062 429.96484375 459.474609375 c 0
 430.248046875 465.424804688 430.390625 472.649414062 430.390625 481.149414062 c 0
 430.390625 497.016601562 427.415039062 511.32421875 421.46484375 524.07421875 c 0
 415.515625 536.82421875 408.1484375 547.024414062 399.365234375 554.674804688 c 0
 390.58203125 562.32421875 380.524414062 568.69921875 369.19140625 573.799804688 c 0
 357.858398438 578.899414062 346.950195312 582.44140625 336.466796875 584.424804688 c 0
 325.983398438 586.407226562 315.641601562 587.399414062 305.44140625 587.399414062 c 0
EndSplineSet
Validated: 524289
EndChar

